<svg width="105" height="66" viewBox="0 0 105 66" fill="none" xmlns="http://www.w3.org/2000/svg">
<rect width="105" height="66" fill="white"/>
<path d="M86.5797 54.1941H25.4092C23.1371 54.1941 21.302 52.3643 21.302 50.0988V6.09537C21.302 3.82984 23.1371 2 25.4092 2H86.5797C88.8517 2 90.6869 3.82984 90.6869 6.09537V50.0988C90.6869 52.3425 88.8517 54.1941 86.5797 54.1941Z" fill="#E7F3F9"/>
<path d="M86.9078 2H25.1037C23.0064 2 21.3242 3.69914 21.3242 5.76861V10.1689H90.7091V5.76861C90.6872 3.67736 89.005 2 86.9078 2Z" fill="#338ECD"/>
<path d="M26.327 6.35699C26.327 7.01051 25.8026 7.53332 25.1472 7.53332C24.4919 7.53332 23.9675 7.01051 23.9675 6.35699C23.9675 5.70348 24.4919 5.18066 25.1472 5.18066C25.8026 5.18066 26.327 5.70348 26.327 6.35699Z" fill="#83C441"/>
<path d="M30.5435 6.35699C30.5435 7.01051 30.0192 7.53332 29.3638 7.53332C28.7084 7.53332 28.1841 7.01051 28.1841 6.35699C28.1841 5.70348 28.7084 5.18066 29.3638 5.18066C30.0192 5.18066 30.5435 5.70348 30.5435 6.35699Z" fill="#DD6C2F"/>
<path d="M34.7816 6.35699C34.7816 7.01051 34.2572 7.53332 33.6018 7.53332C32.9464 7.53332 32.4221 7.01051 32.4221 6.35699C32.4221 5.70348 32.9464 5.18066 33.6018 5.18066C34.2572 5.18066 34.7816 5.70348 34.7816 6.35699Z" fill="#E3F8FF"/>
<path d="M5.10826 5.44287L2 10.1101H3.57241V28.9431H6.6441V10.1101H8.21651L5.10826 5.44287Z" fill="#E49062"/>
<path d="M11.2332 10.3838L4.57788 20.3746H7.94211V33.3371H14.5243V20.3746H17.8703L11.2332 10.3838Z" fill="#DD6C2F"/>
<path d="M61.7144 19.7991H57.2646V46.9425H61.7144V19.7991Z" fill="#83C441" fill-opacity="0.6"/>
<path d="M71.0589 17.5742H66.6091V46.4975H71.0589V17.5742Z" fill="#88CA46" fill-opacity="0.8"/>
<path d="M79.9584 14.459H75.0637V46.4971H79.9584V14.459Z" fill="#83C441"/>
<path d="M51.9251 25.1384H47.4753V46.9422H51.9251V25.1384Z" fill="#83C441" fill-opacity="0.4"/>
<path d="M43.9158 30.4785H39.4661V46.9426H43.9158V30.4785Z" fill="#83C441" fill-opacity="0.2"/>
<path d="M35.9063 35.8181H31.4565V46.9425H35.9063V35.8181Z" fill="#83C441" fill-opacity="0.15"/>
<path d="M100.453 65.3117H65.4938C63.7751 65.3117 62.3855 63.9261 62.3855 62.2123V46.8068C62.3855 45.0931 63.7751 43.7075 65.4938 43.7075H100.453C102.171 43.7075 103.561 45.0931 103.561 46.8068V62.2123C103.561 63.9078 102.171 65.3117 100.453 65.3117Z" fill="#356588"/>
<path d="M74.1138 58.4639C76.2915 56.2923 76.2915 52.7716 74.1138 50.6001C71.936 48.4286 68.4051 48.4286 66.2274 50.6001C64.0496 52.7716 64.0496 56.2923 66.2274 58.4639C68.4051 60.6354 71.936 60.6354 74.1138 58.4639Z" fill="white"/>
<path d="M67.0845 53.4617L70.8144 57.2539L77.6708 47.4089L70.4487 54.6103L67.0845 53.4617Z" fill="#83C441"/>
<path d="M89.7567 53.042H79.1155C78.6767 53.042 78.311 52.6774 78.311 52.2399V51.3283C78.311 50.8907 78.6767 50.5261 79.1155 50.5261H89.7567C90.1955 50.5261 90.5612 50.8907 90.5612 51.3283V52.2399C90.5429 52.6774 90.1955 53.042 89.7567 53.042Z" fill="white"/>
<path d="M97.8199 58.8763H79.1155C78.6767 58.8763 78.311 58.5117 78.311 58.0741V57.1625C78.311 56.725 78.6767 56.3604 79.1155 56.3604H97.8199C98.2587 56.3604 98.6244 56.725 98.6244 57.1625V58.0741C98.6244 58.5117 98.277 58.8763 97.8199 58.8763Z" fill="white"/>
<path d="M33.6812 35.8177L42.7897 30.6449L50.739 25.1384L60.1789 19.6318L69.7843 17.1288L77.7336 14.459" stroke="#E49062" stroke-width="2" stroke-linecap="round"/>
<circle cx="77.2886" cy="14.9041" r="0.889948" fill="#DD6C2F"/>
<circle cx="68.8345" cy="17.129" r="0.889948" fill="#DD6C2F"/>
<circle cx="59.7123" cy="19.5765" r="1.11244" fill="#DD6C2F"/>
<ellipse cx="49.7005" cy="25.361" rx="0.889948" ry="1.11244" fill="#DD6C2F"/>
<ellipse cx="41.4684" cy="30.9234" rx="1.11244" ry="0.889948" fill="#DD6C2F"/>
<ellipse cx="33.681" cy="35.5956" rx="0.889948" ry="1.11244" fill="#DD6C2F"/>
</svg>
