<svg width="70" height="121" viewBox="0 0 70 121" fill="none" xmlns="http://www.w3.org/2000/svg">
<circle cx="35" cy="35" r="35" fill="#338ECD"/>
<path d="M42.8025 66C44.0043 66 44.9785 66.9743 44.9785 68.1761L44.9785 109.676C44.9785 110.878 44.0043 111.852 42.8025 111.852C41.6007 111.852 40.6264 110.878 40.6264 109.676L40.6264 68.1761C40.6264 66.9743 41.6007 66 42.8025 66Z" fill="#338ECD"/>
<circle cx="42.4407" cy="115.116" r="5.44014" transform="rotate(90 42.4407 115.116)" fill="#338ECD"/>
<path d="M28 66C29.1046 66 30 66.8954 30 68L30 104C30 105.105 29.1046 106 28 106C26.8954 106 26 105.105 26 104L26 68C26 66.8954 26.8954 66 28 66Z" fill="#338ECD"/>
<circle cx="27.4407" cy="104.56" r="5.44014" transform="rotate(90 27.4407 104.56)" fill="#338ECD"/>
<path d="M42.12 49C41.3467 47.4533 40.4933 45.8933 39.56 44.32C38.6533 42.72 37.6 41.0933 36.4 39.44C36.0267 39.92 35.5467 40.5867 34.96 41.44C34.4 42.2933 33.8267 43.2 33.24 44.16C32.68 45.12 32.1467 46.04 31.64 46.92C31.1333 47.8 30.76 48.4933 30.52 49H23.4C24.5733 46.84 25.9333 44.5733 27.48 42.2C29.0533 39.8267 30.8 37.3067 32.72 34.64L23.8 21.28H31.36L36.76 29.92L42.04 21.28H49.16L40.36 34.72C42.6 37.6267 44.48 40.32 46 42.8C47.52 45.2533 48.72 47.32 49.6 49H42.12Z" fill="white"/>
</svg>
