<svg width="105" height="66" viewBox="0 0 105 66" fill="none" xmlns="http://www.w3.org/2000/svg">
<g clip-path="url(#clip0_441_842)">
<rect width="105" height="66" fill="white"/>
<g clip-path="url(#clip1_441_842)">
<path d="M59.7712 44.5235H9.45C7.58093 44.5235 6.07129 43.0226 6.07129 41.1645V5.07333C6.07129 3.21518 7.58093 1.71436 9.45 1.71436H59.7712C61.6403 1.71436 63.1499 3.21518 63.1499 5.07333V41.1645C63.1499 43.0048 61.6403 44.5235 59.7712 44.5235Z" fill="#E7F3F9"/>
<path d="M60.0409 1.71436H9.19849C7.47319 1.71436 6.08936 3.10797 6.08936 4.80533V8.41445H63.168V4.80533C63.15 3.09011 61.7662 1.71436 60.0409 1.71436Z" fill="#338ECD"/>
<path d="M10.2049 5.28781C10.2049 5.82382 9.77355 6.25262 9.2344 6.25262C8.69524 6.25262 8.26392 5.82382 8.26392 5.28781C8.26392 4.7518 8.69524 4.323 9.2344 4.323C9.77355 4.323 10.2049 4.7518 10.2049 5.28781Z" fill="#83C441"/>
<path d="M13.6734 5.28781C13.6734 5.82382 13.2421 6.25262 12.7029 6.25262C12.1637 6.25262 11.7324 5.82382 11.7324 5.28781C11.7324 4.7518 12.1637 4.323 12.7029 4.323C13.2421 4.323 13.6734 4.7518 13.6734 5.28781Z" fill="#DD6C2F"/>
<path d="M17.16 5.28781C17.16 5.82382 16.7286 6.25262 16.1895 6.25262C15.6503 6.25262 15.219 5.82382 15.219 5.28781C15.219 4.7518 15.6503 4.323 16.1895 4.323C16.7286 4.323 17.16 4.7518 17.16 5.28781Z" fill="#E3F8FF"/>
<path d="M9.58214 8.5H8.86572V44.5714H9.58214V8.5Z" fill="white"/>
<path d="M16.7462 8.65991H16.0298V46.1599H16.7462V8.65991Z" fill="white"/>
<path d="M23.9105 8.65991H23.1941V45.8028H23.9105V8.65991Z" fill="white"/>
<path d="M31.0746 8.65991H30.3582V44.3742H31.0746V8.65991Z" fill="white"/>
<path d="M38.2389 8.5H37.5225V44.2143H38.2389V8.5Z" fill="white"/>
<path d="M45.4029 8.5H44.6865V44.5714H45.4029V8.5Z" fill="white"/>
<path d="M64.0298 38.8571V38.1428L5.99994 38.1428V38.8571L64.0298 38.8571Z" fill="white"/>
<path d="M52.5672 8.5H51.8508V37.0714H52.5672V8.5Z" fill="white"/>
<path d="M59.7313 8.5H59.0149V44.5714H59.7313V8.5Z" fill="white"/>
<path d="M63.3135 41.8742L63.3135 41.1599L6.00004 41.1599L6.00004 41.8742L63.3135 41.8742Z" fill="white"/>
<path d="M63.3135 11.517L63.3135 10.8027L6.00004 10.8027L6.00004 11.517L63.3135 11.517Z" fill="white"/>
<path d="M63.3135 15.4455L63.3135 14.7312L6.00004 14.7312L6.00004 15.4455L63.3135 15.4455Z" fill="white"/>
<path d="M63.3135 19.3742L63.3135 18.6599L6.00004 18.6599L6.00004 19.3742L63.3135 19.3742Z" fill="white"/>
<path d="M63.3135 23.3027L63.3135 22.5884L6.00004 22.5884L6.00004 23.3027L63.3135 23.3027Z" fill="white"/>
<path d="M63.3135 27.2311L63.3135 26.5168L6.00004 26.5168L6.00004 27.2311L63.3135 27.2311Z" fill="white"/>
<path d="M63.3135 31.1598L63.3135 30.4456L6.00004 30.4456L6.00004 31.1598L63.3135 31.1598Z" fill="white"/>
<path d="M63.3135 35.0883L63.3135 34.374L6.00004 34.374L6.00004 35.0883L63.3135 35.0883Z" fill="white"/>
<rect x="16.7463" y="11.5168" width="6.44776" height="3.21429" fill="#83C441"/>
<rect x="23.9104" y="11.5168" width="6.44776" height="3.21429" fill="#83C441"/>
<rect x="31.0747" y="11.5168" width="6.44776" height="3.21429" fill="#83C441"/>
<rect x="38.2388" y="11.5168" width="6.44776" height="3.21429" fill="#83C441"/>
<rect x="45.4031" y="11.5168" width="6.44776" height="3.21429" fill="#83C441"/>
<rect x="16.7463" y="15.4456" width="6.44776" height="3.21429" fill="#B6D894"/>
<rect x="23.9104" y="15.4456" width="6.44776" height="3.21429" fill="#B6D894"/>
<rect x="31.0747" y="15.4456" width="6.44776" height="3.21429" fill="#B6D894"/>
<rect x="38.2388" y="15.4456" width="6.44776" height="3.21429" fill="#B6D894"/>
<rect x="45.4031" y="15.4456" width="6.44776" height="3.21429" fill="#B6D894"/>
<rect x="16.7463" y="19.374" width="6.44776" height="3.21429" fill="#B6D894"/>
<rect x="23.9104" y="19.374" width="6.44776" height="3.21429" fill="#B6D894"/>
<rect x="31.0747" y="19.374" width="6.44776" height="3.21429" fill="#B6D894"/>
<rect x="38.2388" y="19.374" width="6.44776" height="3.21429" fill="#B6D894"/>
<rect x="45.4031" y="19.374" width="6.44776" height="3.21429" fill="#B6D894"/>
<rect x="16.7463" y="23.3027" width="6.44776" height="3.21429" fill="#B6D894"/>
<rect x="23.9104" y="23.3027" width="6.44776" height="3.21429" fill="#B6D894"/>
<rect x="31.0747" y="23.3027" width="6.44776" height="3.21429" fill="#B6D894"/>
<rect x="38.2388" y="23.3027" width="6.44776" height="3.21429" fill="#B6D894"/>
<rect x="45.4031" y="23.3027" width="6.44776" height="3.21429" fill="#B6D894"/>
<rect x="16.7463" y="27.2312" width="6.44776" height="3.21429" fill="#B6D894"/>
<rect x="23.9104" y="27.2312" width="6.44776" height="3.21429" fill="#B6D894"/>
<rect x="31.0747" y="27.2312" width="6.44776" height="3.21429" fill="#B6D894"/>
<rect x="38.2388" y="27.2312" width="6.44776" height="3.21429" fill="#B6D894"/>
<rect x="45.4031" y="27.2312" width="6.44776" height="3.21429" fill="#B6D894"/>
<rect x="16.7463" y="31.1599" width="6.44776" height="3.21429" fill="#B6D894"/>
<rect x="23.9104" y="31.1599" width="6.44776" height="3.21429" fill="#B6D894"/>
<rect x="31.0747" y="31.1599" width="6.44776" height="3.21429" fill="#B6D894"/>
<rect x="38.2388" y="31.1599" width="6.44776" height="3.21429" fill="#B6D894"/>
<rect x="45.4031" y="31.1599" width="6.44776" height="3.21429" fill="#B6D894"/>
<path d="M28.8681 27.3469H22.1401L6 65.2858H12.7279L28.8681 27.3469Z" fill="#DD6C2F"/>
<path d="M28.8681 27.3469H22.1401L40.0058 65.1011H46.7338L28.8681 27.3469Z" fill="#E57D45"/>
<path d="M61.4498 7.0376H54.7365L39.9653 65.2858H46.6786L61.4498 7.0376Z" fill="#DD6C2F"/>
<path d="M61.4934 7.0376H54.7969L75.288 38.4338H81.9845L61.4934 7.0376Z" fill="#E57D45"/>
<path d="M97.7417 9.60446L92.9507 6.21143L75.3315 38.4339H82.032L97.7417 9.60446Z" fill="#DD6C2F"/>
<path d="M100.118 16.0988L86.5071 6.1216L99.852 1.71425L100.118 16.0988Z" fill="#DD6C2F"/>
<path d="M82.8638 65.5534C91.4369 65.5534 98.3868 58.6355 98.3868 50.1019C98.3868 41.5683 91.4369 34.6504 82.8638 34.6504C74.2907 34.6504 67.3408 41.5683 67.3408 50.1019C67.3408 58.6355 74.2907 65.5534 82.8638 65.5534Z" fill="#356588"/>
<path d="M91.7439 58.9465C96.6482 54.0647 96.6482 46.1497 91.7438 41.2679C86.8394 36.3861 78.8879 36.3861 73.9835 41.2679C69.0791 46.1497 69.0791 54.0647 73.9835 58.9465C78.8879 63.8283 86.8395 63.8283 91.7439 58.9465Z" fill="#D9F0FF"/>
<path d="M82.8638 39.4153L82.9239 50.3011L92.5782 54.6674C93.2391 53.2917 93.5997 51.7366 93.5997 50.1017C93.6197 44.2003 88.8126 39.4153 82.8638 39.4153Z" fill="#77B3DE"/>
<path d="M90.7556 54.1691C90.7156 54.1691 90.6555 54.1691 90.6154 54.1292L82.7638 50.5206C82.6436 50.4608 82.5635 50.3411 82.5635 50.2215V41.3294C82.5635 41.15 82.7037 40.9905 82.904 40.9905C83.1043 40.9905 83.2445 41.13 83.2445 41.3294V50.0022L90.8958 53.5112C91.0561 53.5909 91.1362 53.7903 91.0561 53.9498C91.016 54.0894 90.8958 54.1691 90.7556 54.1691Z" fill="#356588"/>
<path d="M83.8653 50.1019C83.8653 50.6402 83.4246 51.0987 82.8638 51.0987C82.323 51.0987 81.8623 50.6601 81.8623 50.1019C81.8623 49.5436 82.303 49.105 82.8638 49.105C83.4246 49.1249 83.8653 49.5635 83.8653 50.1019Z" fill="#356588"/>
</g>
</g>
<defs>
<clipPath id="clip0_441_842">
<rect width="105" height="66" fill="white"/>
</clipPath>
<clipPath id="clip1_441_842">
<rect width="96" height="70" fill="white" transform="translate(6 -4)"/>
</clipPath>
</defs>
</svg>
