<svg width="19" height="29" viewBox="0 0 19 29" fill="none" xmlns="http://www.w3.org/2000/svg">
<path d="M11.6923 29H5.84615C5.45853 29 5.08678 28.8473 4.81269 28.5754C4.5386 28.3035 4.38462 27.9348 4.38462 27.5504V18.5625H1.46154C1.07391 18.5625 0.702167 18.4098 0.428075 18.1379C0.153983 17.8661 0 17.4973 0 17.1129V11.8941C0 11.5097 0.153983 11.1409 0.428075 10.8691C0.702167 10.5972 1.07391 10.4445 1.46154 10.4445H4.38462V7.98008C4.48706 5.77133 5.46706 3.69266 7.11034 2.19858C8.75363 0.704488 10.9265 -0.0834607 13.1538 0.00701243H17.5385C17.9261 0.00701243 18.2978 0.159743 18.5719 0.431605C18.846 0.703467 19 1.07219 19 1.45666V6.6754C19 7.05987 18.846 7.4286 18.5719 7.70046C18.2978 7.97232 17.9261 8.12505 17.5385 8.12505H13.1538V10.4445H17.5385C17.7641 10.4428 17.9871 10.493 18.19 10.591C18.3928 10.6891 18.57 10.8325 18.7077 11.0099C18.8438 11.1899 18.9358 11.3989 18.9764 11.6203C19.017 11.8417 19.0051 12.0695 18.9415 12.2855L17.48 17.5043C17.3916 17.8178 17.1993 18.0928 16.9342 18.2847C16.6691 18.4767 16.3465 18.5746 16.0185 18.5625H13.1538V27.5504C13.1538 27.9348 12.9999 28.3035 12.7258 28.5754C12.4517 28.8473 12.0799 29 11.6923 29Z" fill="#3A2A68"/>
</svg>
