<svg width="55" height="55" viewBox="0 0 55 55" fill="none" xmlns="http://www.w3.org/2000/svg">
<g clip-path="url(#clip0_136_179)">
<path d="M34.1747 25.2813L27.6484 18.758L27.6483 18.7579C27.2318 18.3414 26.9978 17.7765 26.9978 17.1875C26.9978 16.5985 27.2318 16.0336 27.6483 15.6171C28.0648 15.2006 28.6297 14.9666 29.2188 14.9666C29.8078 14.9666 30.3727 15.2006 30.7892 15.6171L41.1012 25.9291L34.1747 25.2813ZM34.1747 25.2813L15.4687 25.2813C14.8803 25.2813 14.316 25.515 13.8999 25.9311C13.4838 26.3472 13.25 26.9116 13.25 27.5C13.25 28.0885 13.4838 28.6528 13.8999 29.0689C14.316 29.485 14.8803 29.7188 15.4687 29.7188L34.1747 29.7188L27.6484 36.242L27.6483 36.2421C27.2318 36.6586 26.9978 37.2235 26.9978 37.8125C26.9978 38.4015 27.2318 38.9664 27.6483 39.3829C28.0648 39.7994 28.6297 40.0334 29.2188 40.0334C29.8078 40.0334 30.3727 39.7994 30.7892 39.3829L41.1012 29.0709C41.3079 28.8648 41.4718 28.6199 41.5836 28.3504L41.1218 28.1587L41.5836 28.3504C41.6955 28.0808 41.7531 27.7918 41.7531 27.5C41.7531 27.2082 41.6955 26.9192 41.5836 26.6496L41.1218 26.8413L41.5836 26.6496C41.4719 26.3803 41.3081 26.1356 41.1017 25.9296L34.1747 25.2813ZM27.5 0.500003C34.6608 0.500002 41.5284 3.34464 46.5919 8.40812C51.6554 13.4716 54.5 20.3392 54.5 27.5C54.5 34.6608 51.6554 41.5284 46.5919 46.5919C41.5284 51.6554 34.6609 54.5 27.5 54.5C20.3392 54.5 13.4716 51.6554 8.40812 46.5919C3.34463 41.5284 0.499999 34.6608 0.499999 27.5C0.499998 20.3392 3.34463 13.4716 8.40812 8.40812C13.4716 3.34464 20.3392 0.500003 27.5 0.500003Z" stroke="#4BA6B8"/>
<path d="M28.6934 38.7324L39.722 27.5L28.6934 16.2676M39.722 27.5L14.5137 27.5L39.722 27.5Z" stroke="#4BA6B8" stroke-width="5" stroke-linecap="round" stroke-linejoin="round"/>
<path d="M28.6934 38.7324L39.722 27.5L28.6934 16.2676M39.722 27.5L14.5137 27.5L39.722 27.5Z" stroke="#4BA6B8" stroke-width="5" stroke-linecap="round" stroke-linejoin="round"/>
<path d="M28.6934 38.7324L39.722 27.5L28.6934 16.2676M39.722 27.5L14.5137 27.5L39.722 27.5Z" stroke="#4BA6B8" stroke-width="5" stroke-linecap="round" stroke-linejoin="round"/>
</g>
<defs>
<clipPath id="clip0_136_179">
<rect width="55" height="55" fill="white" transform="translate(0 55) rotate(-90)"/>
</clipPath>
</defs>
</svg>
