<svg width="16" height="12" viewBox="0 0 16 12" fill="none" xmlns="http://www.w3.org/2000/svg">
<path d="M2.38776 1.671e-06L13.6122 2.65228e-06C14.0554 -0.000644854 14.4896 0.125402 14.8647 0.363555C15.2398 0.601707 15.5405 0.942227 15.7318 1.3457C15.9558 1.82442 16.0421 2.35704 15.9808 2.88285C15.9195 3.40866 15.7132 3.90652 15.3852 4.31969L9.77299 11.1827C9.55274 11.4393 9.28044 11.645 8.97454 11.786C8.66864 11.927 8.33628 12 8 12C7.66372 12 7.33136 11.927 7.02546 11.786C6.71956 11.645 6.44726 11.4393 6.22701 11.1827L0.614769 4.31969C0.286824 3.90652 0.0804537 3.40866 0.0191735 2.88285C-0.0421058 2.35703 0.0441722 1.82442 0.268171 1.3457C0.459523 0.942226 0.760154 0.601706 1.13526 0.363554C1.51038 0.125401 1.94463 -0.000645913 2.38776 1.671e-06Z" fill="#338ECD"/>
</svg>
