<svg width="51" height="51" viewBox="0 0 51 51" fill="none" xmlns="http://www.w3.org/2000/svg">
<g clip-path="url(#clip0_381_194)">
<path fill-rule="evenodd" clip-rule="evenodd" d="M47.8125 25.5C47.8125 19.5824 45.4617 13.9071 41.2773 9.72268C37.0929 5.53828 31.4176 3.1875 25.5 3.1875C19.5824 3.1875 13.9071 5.53828 9.72268 9.72268C5.53828 13.9071 3.1875 19.5824 3.1875 25.5C3.1875 31.4176 5.53827 37.0929 9.72268 41.2773C13.9071 45.4617 19.5824 47.8125 25.5 47.8125C31.4176 47.8125 37.0929 45.4617 41.2773 41.2773C45.4617 37.0929 47.8125 31.4176 47.8125 25.5ZM-1.58542e-06 25.5C-9.94175e-07 18.737 2.6866 12.251 7.46878 7.46878C12.251 2.6866 18.737 9.94174e-07 25.5 1.58542e-06C32.263 2.17666e-06 38.749 2.6866 43.5312 7.46878C48.3134 12.251 51 18.737 51 25.5C51 32.263 48.3134 38.749 43.5312 43.5312C38.749 48.3134 32.263 51 25.5 51C18.737 51 12.251 48.3134 7.46877 43.5312C2.6866 38.749 -2.17666e-06 32.263 -1.58542e-06 25.5ZM14.3437 27.0937C13.9211 27.0937 13.5157 26.9258 13.2168 26.6269C12.9179 26.3281 12.75 25.9227 12.75 25.5C12.75 25.0773 12.9179 24.6719 13.2168 24.373C13.5157 24.0742 13.9211 23.9062 14.3437 23.9062L32.8089 23.9063L25.9654 17.0659C25.8172 16.9177 25.6997 16.7418 25.6195 16.5482C25.5393 16.3546 25.498 16.1471 25.498 15.9375C25.498 15.7279 25.5393 15.5204 25.6195 15.3268C25.6997 15.1332 25.8172 14.9573 25.9654 14.8091C26.1136 14.6609 26.2895 14.5434 26.4831 14.4632C26.6767 14.383 26.8842 14.3417 27.0938 14.3417C27.3033 14.3417 27.5108 14.383 27.7044 14.4632C27.898 14.5434 28.0739 14.6609 28.2221 14.8091L37.7846 24.3716C37.933 24.5197 38.0508 24.6955 38.1311 24.8892C38.2115 25.0828 38.2528 25.2904 38.2528 25.5C38.2528 25.7096 38.2115 25.9172 38.1311 26.1108C38.0508 26.3045 37.933 26.4803 37.7846 26.6284L28.2221 36.1909C27.9229 36.4901 27.517 36.6583 27.0937 36.6583C26.6705 36.6583 26.2646 36.4901 25.9654 36.1909C25.6661 35.8916 25.498 35.4857 25.498 35.0625C25.498 34.6393 25.6661 34.2334 25.9654 33.9341L32.8089 27.0938L14.3437 27.0937Z" fill="#83C441"/>
</g>
<defs>
<clipPath id="clip0_381_194">
<rect width="51" height="51" fill="white" transform="translate(51 51) rotate(-180)"/>
</clipPath>
</defs>
</svg>
