<svg width="51" height="51" viewBox="0 0 51 51" fill="none" xmlns="http://www.w3.org/2000/svg">
<g clip-path="url(#clip0_593_484)">
<path fill-rule="evenodd" clip-rule="evenodd" d="M-1.58542e-06 25.5C-9.94175e-07 18.737 2.6866 12.251 7.46878 7.46878C12.251 2.6866 18.737 9.94174e-07 25.5 1.58542e-06C32.263 2.17666e-06 38.749 2.6866 43.5312 7.46878C48.3134 12.251 51 18.737 51 25.5C51 32.263 48.3134 38.749 43.5312 43.5312C38.749 48.3134 32.263 51 25.5 51C18.737 51 12.251 48.3134 7.46877 43.5312C2.6866 38.749 -2.17666e-06 32.263 -1.58542e-06 25.5Z" fill="#83C441"/>
<path d="M13.4978 27.2851C13.7966 27.584 14.202 27.7519 14.6247 27.7519L33.0899 27.7519L26.2463 34.5923C25.9471 34.8915 25.779 35.2974 25.779 35.7206C25.779 36.1439 25.9471 36.5498 26.2463 36.849C26.5456 37.1483 26.9515 37.3164 27.3747 37.3164C27.7979 37.3164 28.2038 37.1483 28.5031 36.849L38.0656 27.2865C38.214 27.1385 38.3318 26.9626 38.4121 26.769C38.4925 26.5753 38.5338 26.3678 38.5338 26.1581C38.5338 25.9485 38.4925 25.7409 38.4121 25.5473C38.3318 25.3537 38.214 25.1778 38.0656 25.0298L28.5031 15.4673C28.3549 15.3191 28.179 15.2015 27.9854 15.1214C27.7918 15.0412 27.5843 14.9999 27.3747 14.9999C27.1652 14.9999 26.9577 15.0412 26.764 15.1214C26.5704 15.2015 26.3945 15.3191 26.2463 15.4673C26.0982 15.6154 25.9806 15.7914 25.9004 15.985C25.8202 16.1786 25.779 16.3861 25.779 16.5956C25.779 16.8052 25.8202 17.0127 25.9004 17.2063C25.9806 17.3999 26.0982 17.5758 26.2463 17.724L33.0899 24.5644L14.6247 24.5644C14.202 24.5644 13.7966 24.7323 13.4978 25.0312C12.5962 25.8561 13.1221 26.8775 13.4978 27.2851Z" fill="white"/>
</g>
<defs>
<clipPath id="clip0_593_484">
<rect width="51" height="51" fill="white" transform="translate(51 51) rotate(-180)"/>
</clipPath>
</defs>
</svg>
