<svg width="24" height="17" viewBox="0 0 24 17" fill="none" xmlns="http://www.w3.org/2000/svg">
<path d="M3.93949 4.01139e-06L20.0747 5.42198e-06C20.7117 -0.000911957 21.3359 0.177654 21.8751 0.515037C22.4144 0.852421 22.8465 1.33482 23.1216 1.90641C23.4436 2.5846 23.5676 3.33914 23.4795 4.08403C23.3914 4.82893 23.0948 5.53424 22.6233 6.11956L14.5557 15.8422C14.2391 16.2056 13.8477 16.4971 13.408 16.6969C12.9682 16.8966 12.4905 17 12.0071 17C11.5237 17 11.0459 16.8966 10.6062 16.6969C10.1664 16.4971 9.77501 16.2056 9.45841 15.8422L1.39081 6.11956C0.919391 5.53423 0.622733 4.82893 0.534644 4.08403C0.446553 3.33913 0.570579 2.5846 0.892578 1.90641C1.16765 1.33482 1.5998 0.852419 2.13902 0.515036C2.67825 0.177652 3.30248 -0.000913479 3.93949 4.01139e-06Z" fill="#338ECD"/>
</svg>
