<svg width="72" height="71" viewBox="0 0 72 71" fill="none" xmlns="http://www.w3.org/2000/svg">
<g clip-path="url(#clip0_136_211)">
<path d="M36.045 46.5294L28.1206 38.7187L51.75 38.7187C52.6075 38.7187 53.4326 38.383 54.0431 37.7809C54.6541 37.1784 55 36.3582 55 35.5C55 34.6418 54.6541 33.8216 54.0431 33.2191C53.4326 32.617 52.6075 32.2812 51.75 32.2812L28.1206 32.2812L36.045 24.4706L36.0451 24.4704C36.6567 23.8674 37.0028 23.0465 37.0028 22.1875C37.0028 21.3285 36.6567 20.5076 36.0451 19.9046C35.4341 19.302 34.6082 18.9659 33.75 18.9659C32.8918 18.9659 32.0659 19.302 31.4549 19.9046L17.9557 33.2162C17.6524 33.5145 17.411 33.8697 17.2461 34.2618L18.1678 34.6496L17.2461 34.2618C17.0811 34.6538 16.996 35.0747 16.996 35.5C16.996 35.9253 17.0811 36.3462 17.2461 36.7382C17.411 37.1303 17.6524 37.4854 17.9557 37.7838L31.4549 51.0954C32.0659 51.698 32.8918 52.034 33.75 52.034C34.6082 52.034 35.4341 51.698 36.0451 51.0954C36.6567 50.4924 37.0028 49.6715 37.0028 48.8125C37.0028 47.9535 36.6567 47.1326 36.0451 46.5296L36.045 46.5294ZM36 70C26.7129 70 17.809 66.3618 11.2463 59.8903C4.68404 53.4191 0.999998 44.6454 0.999998 35.5C0.999999 26.3546 4.68404 17.5809 11.2463 11.1097C17.809 4.63816 26.7129 0.999998 36 0.999998C45.2871 0.999999 54.191 4.63816 60.7537 11.1097C67.316 17.5809 71 26.3546 71 35.5C71 44.6454 67.316 53.4191 60.7537 59.8903C54.191 66.3618 45.2871 70 36 70Z" stroke="white" stroke-width="2"/>
</g>
<defs>
<clipPath id="clip0_136_211">
<rect width="71" height="72" fill="white" transform="translate(72) rotate(90)"/>
</clipPath>
</defs>
</svg>
