<svg width="31" height="31" viewBox="0 0 31 31" fill="none" xmlns="http://www.w3.org/2000/svg">
<g clip-path="url(#clip0_381_255)">
<path d="M30.8459 2.04759L16.755 30.2294C16.5054 30.7431 16.0871 31 15.5 31C15.4266 31 15.3165 30.9853 15.1697 30.956C14.8468 30.8826 14.5863 30.7174 14.3881 30.4606C14.19 30.2037 14.0909 29.9138 14.0909 29.5909V16.9091H1.40909C1.08617 16.9091 0.79628 16.81 0.539415 16.6119C0.282549 16.4137 0.117421 16.1532 0.0440311 15.8303C-0.029359 15.5073 -2.97511e-06 15.1991 0.132099 14.9055C0.264202 14.612 0.477033 14.3918 0.770594 14.245L28.9524 0.154119C29.1432 0.0513731 29.3561 0 29.5909 0C29.9872 0 30.3175 0.139441 30.5817 0.418324C30.8018 0.623816 30.9376 0.877012 30.989 1.17791C31.0404 1.47881 30.9927 1.7687 30.8459 2.04759Z" fill="#83C441"/>
</g>
<defs>
<clipPath id="clip0_381_255">
<rect width="31" height="31" fill="white"/>
</clipPath>
</defs>
</svg>
