<svg width="72" height="71" viewBox="0 0 72 71" fill="none" xmlns="http://www.w3.org/2000/svg">
<g clip-path="url(#clip0_136_209)">
<path d="M35.955 24.4706L43.8794 32.2812L20.25 32.2812C19.3925 32.2812 18.5674 32.617 17.9569 33.2191C17.3459 33.8216 17 34.6418 17 35.5C17 36.3582 17.3459 37.1784 17.9569 37.7809C18.5674 38.383 19.3925 38.7187 20.25 38.7187L43.8794 38.7187L35.955 46.5294L35.9549 46.5296C35.3433 47.1326 34.9972 47.9535 34.9972 48.8125C34.9972 49.6715 35.3433 50.4924 35.9549 51.0954C36.5659 51.698 37.3918 52.0341 38.25 52.0341C39.1082 52.0341 39.9341 51.698 40.5451 51.0954L54.0442 37.7838C54.3476 37.4854 54.589 37.1303 54.7539 36.7382L53.8322 36.3504L54.7539 36.7382C54.9189 36.3462 55.004 35.9253 55.004 35.5C55.004 35.0747 54.9189 34.6538 54.7539 34.2618C54.589 33.8697 54.3476 33.5145 54.0442 33.2162L40.5451 19.9046C39.9341 19.302 39.1082 18.9659 38.25 18.9659C37.3918 18.9659 36.5659 19.302 35.9549 19.9046C35.3433 20.5076 34.9972 21.3285 34.9972 22.1875C34.9972 23.0465 35.3433 23.8674 35.9549 24.4704L35.955 24.4706ZM36 0.999998C45.2871 0.999998 54.191 4.63816 60.7537 11.1097C67.316 17.5809 71 26.3546 71 35.5C71 44.6454 67.316 53.4191 60.7537 59.8903C54.191 66.3618 45.2871 70 36 70C26.7129 70 17.809 66.3618 11.2463 59.8903C4.68404 53.4191 0.999999 44.6454 0.999998 35.5C0.999998 26.3546 4.68404 17.5809 11.2463 11.1097C17.809 4.63816 26.7129 0.999999 36 0.999998Z" stroke="white" stroke-width="2"/>
</g>
<defs>
<clipPath id="clip0_136_209">
<rect width="71" height="72" fill="white" transform="translate(0 71) rotate(-90)"/>
</clipPath>
</defs>
</svg>
