<svg width="55" height="55" viewBox="0 0 55 55" fill="none" xmlns="http://www.w3.org/2000/svg">
<g clip-path="url(#clip0_256_5)">
<path d="M27.3516 36.242L20.8253 29.7188L39.5312 29.7188C40.1197 29.7188 40.684 29.485 41.1001 29.0689C41.5162 28.6528 41.75 28.0885 41.75 27.5C41.75 26.9116 41.5162 26.3472 41.1001 25.9311C40.684 25.515 40.1197 25.2813 39.5312 25.2813L20.8253 25.2813L27.3516 18.758L27.3517 18.7579C27.7682 18.3414 28.0022 17.7765 28.0022 17.1875C28.0022 16.5985 27.7682 16.0336 27.3517 15.6171C26.9352 15.2006 26.3703 14.9666 25.7813 14.9666C25.1922 14.9666 24.6273 15.2006 24.2108 15.6171L13.8988 25.9291C13.6921 26.1352 13.5282 26.3801 13.4164 26.6496C13.3045 26.9192 13.2469 27.2082 13.2469 27.5C13.2469 27.7918 13.3045 28.0808 13.4164 28.3504C13.5282 28.6199 13.6921 28.8648 13.8988 29.0709L24.2108 39.3829C24.6273 39.7994 25.1922 40.0334 25.7813 40.0334C26.3703 40.0334 26.9352 39.7994 27.3517 39.3829C27.7682 38.9664 28.0022 38.4015 28.0022 37.8125C28.0022 37.2235 27.7682 36.6586 27.3517 36.2421L27.3516 36.242ZM27.5 54.5C20.3392 54.5 13.4716 51.6554 8.40812 46.5919C3.34464 41.5284 0.500002 34.6608 0.500003 27.5C0.500003 20.3392 3.34464 13.4716 8.40812 8.40812C13.4716 3.34463 20.3392 0.499998 27.5 0.499999C34.6608 0.499999 41.5284 3.34463 46.5919 8.40812C51.6554 13.4716 54.5 20.3392 54.5 27.5C54.5 34.6609 51.6554 41.5284 46.5919 46.5919C41.5284 51.6554 34.6608 54.5 27.5 54.5Z" stroke="#4BA6B8"/>
</g>
<path d="M25.9375 16L15 27.5L25.9375 39M15 27.5L40 27.5L15 27.5Z" stroke="#4BA6B8" stroke-width="5" stroke-linecap="round" stroke-linejoin="round"/>
<path d="M25.9375 16L15 27.5L25.9375 39M15 27.5L40 27.5L15 27.5Z" stroke="#4BA6B8" stroke-width="5" stroke-linecap="round" stroke-linejoin="round"/>
<path d="M25.9375 16L15 27.5L25.9375 39M15 27.5L40 27.5L15 27.5Z" stroke="#4BA6B8" stroke-width="5" stroke-linecap="round" stroke-linejoin="round"/>
<defs>
<clipPath id="clip0_256_5">
<rect width="55" height="55" fill="white" transform="translate(55) rotate(90)"/>
</clipPath>
</defs>
</svg>
