<svg width="22" height="22" viewBox="0 0 22 22" fill="none" xmlns="http://www.w3.org/2000/svg">
<g clip-path="url(#clip0_136_109)">
<path d="M11 1.42652e-06C13.9174 1.299e-06 16.7153 1.15893 18.7782 3.22183C20.8411 5.28473 22 8.08262 22 11C22 13.9174 20.8411 16.7153 18.7782 18.7782C16.7153 20.8411 13.9174 22 11 22C8.08262 22 5.28473 20.8411 3.22183 18.7782C1.15893 16.7153 -3.53302e-07 13.9174 -4.80825e-07 11C-6.08348e-07 8.08262 1.15892 5.28473 3.22183 3.22183C5.28473 1.15893 8.08262 1.55405e-06 11 1.42652e-06ZM6.1875 10.3125C6.00516 10.3125 5.8303 10.3849 5.70136 10.5139C5.57243 10.6428 5.5 10.8177 5.5 11C5.5 11.1823 5.57243 11.3572 5.70136 11.4861C5.8303 11.6151 6.00516 11.6875 6.1875 11.6875L14.1529 11.6875L11.2008 14.6382C11.0717 14.7673 10.9991 14.9424 10.9991 15.125C10.9991 15.3076 11.0717 15.4827 11.2008 15.6118C11.3298 15.7408 11.5049 15.8134 11.6875 15.8134C11.8701 15.8134 12.0452 15.7408 12.1743 15.6118L16.2993 11.4867C16.3633 11.4229 16.4141 11.347 16.4487 11.2635C16.4834 11.18 16.5012 11.0904 16.5012 11C16.5012 10.9096 16.4834 10.82 16.4487 10.7365C16.4141 10.653 16.3633 10.5771 16.2993 10.5133L12.1743 6.38825C12.0452 6.25916 11.8701 6.18663 11.6875 6.18663C11.5049 6.18663 11.3298 6.25916 11.2008 6.38825C11.0717 6.51734 10.9991 6.69243 10.9991 6.875C10.9991 7.05757 11.0717 7.23266 11.2008 7.36175L14.1529 10.3125L6.1875 10.3125Z" fill="#4DE7DB"/>
</g>
<defs>
<clipPath id="clip0_136_109">
<rect width="22" height="22" fill="white" transform="translate(0 22) rotate(-90)"/>
</clipPath>
</defs>
</svg>
