<svg width="1878" height="1078" viewBox="0 0 1878 1078" fill="none" xmlns="http://www.w3.org/2000/svg">
<g clip-path="url(#clip0_153_120)">
<path d="M331.315 539.356L331.139 539L639.822 0.355952L639.998 0H1257.72L1566.4 538.644L1566.58 539L1257.89 1077.64L1257.72 1078H639.998L331.315 539.356ZM1565.08 539L1256.92 1.33482H640.793L332.64 539L640.705 1076.67H1256.92L1565.08 539Z" fill="#3A2A68" fill-opacity="0.25"/>
<path d="M386.692 539.356L386.516 539L667.466 48.6763L667.642 48.3203H1229.98L1510.93 538.644L1511.11 539L1230.16 1029.32L1229.98 1029.68H667.731L386.692 539.356ZM1509.7 539L1229.28 49.6551H668.437L388.017 539L668.437 1028.34H1229.28L1509.7 539Z" fill="#3A2A68" fill-opacity="0.25"/>
<path d="M695.906 980.469L443.042 539.356L442.865 539L695.641 97.7978L695.817 97.4419H1201.81L1454.59 538.644L1454.76 539L1201.99 980.202L1201.81 980.558H1201.46L695.906 980.469ZM1201.1 98.8657H696.612L444.367 539L696.612 979.135H1201.1L1453.35 539L1201.1 98.8657Z" fill="#3A2A68" fill-opacity="0.25"/>
<path d="M723.816 931.704L499.038 539.356L498.861 539L723.727 146.652L723.904 146.296H1173.9L1398.77 538.644L1398.94 539L1174.08 931.348L1173.9 931.704H1173.55H723.816ZM1173.11 147.631H724.611L500.363 539L724.611 930.369H1173.11L1397.35 539L1173.11 147.631Z" fill="#3A2A68" fill-opacity="0.25"/>
</g>
<path d="M0.268516 537.041L0 536.5L469.231 -282.459L469.5 -283H1408.5L1877.73 535.959L1878 536.5L1408.77 1355.46L1408.5 1356H469.5L0.268516 537.041ZM1875.72 536.5L1407.29 -280.971H470.708L2.28238 536.5L470.574 1353.97H1407.29L1875.72 536.5Z" fill="#3A2A68" fill-opacity="0.25"/>
<path d="M84.4482 537.041L84.1797 536.5L511.254 -208.992L511.523 -209.533H1366.34L1793.42 535.959L1793.69 536.5L1366.61 1281.99L1366.34 1282.53H511.657L84.4482 537.041ZM1791.54 536.5L1365.27 -207.504H512.731L86.4621 536.5L512.731 1280.5H1365.27L1791.54 536.5Z" fill="#3A2A68" fill-opacity="0.25"/>
<path d="M554.487 1207.71L170.106 537.041L169.838 536.5L554.084 -134.307L554.353 -134.849H1323.52L1707.76 535.959L1708.03 536.5L1323.78 1207.31L1323.52 1207.85H1322.98L554.487 1207.71ZM1322.44 -132.684H555.561L172.12 536.5L555.561 1205.68H1322.44L1705.88 536.5L1322.44 -132.684Z" fill="#3A2A68" fill-opacity="0.25"/>
<path d="M596.91 1133.57L255.224 537.041L254.955 536.5L596.776 -60.0291L597.044 -60.5703H1281.09L1622.91 535.959L1623.18 536.5L1281.36 1133.03L1281.09 1133.57H1280.55H596.91ZM1279.88 -58.5408H598.118L257.237 536.5L598.118 1131.54H1279.88L1620.76 536.5L1279.88 -58.5408Z" fill="#3A2A68" fill-opacity="0.25"/>
<defs>
<clipPath id="clip0_153_120">
<rect width="1235.44" height="1078" fill="white" transform="translate(331.139)"/>
</clipPath>
</defs>
</svg>
