<svg width="1292" height="538" viewBox="0 0 1292 538" fill="none" xmlns="http://www.w3.org/2000/svg">
<g clip-path="url(#clip0_139_690)">
<path d="M0.818297 540.285L0.633789 539.929L323.061 1.02409L323.246 0.667969H968.47L1290.9 539.573L1291.08 539.929L968.655 1078.83L968.47 1079.19H323.246L0.818297 540.285ZM1289.51 539.929L967.64 2.00343H324.076L2.20211 539.929L323.984 1077.86H967.64L1289.51 539.929Z" fill="#3A2A68" fill-opacity="0.25"/>
<path d="M58.6611 540.285L58.4766 539.929L351.936 49.3678L352.121 49.0117H939.502L1232.96 539.573L1233.15 539.929L939.686 1030.49L939.502 1030.85H352.213L58.6611 540.285ZM1231.67 539.929L938.764 50.3472H352.951L60.0449 539.929L352.951 1029.51H938.764L1231.67 539.929Z" fill="#3A2A68" fill-opacity="0.25"/>
<path d="M381.643 981.613L117.519 540.286L117.335 539.93L381.366 98.5134L381.55 98.1572H910.073L1174.1 539.573L1174.29 539.93L910.258 981.346L910.073 981.702H909.704L381.643 981.613ZM909.335 99.5817H382.381L118.903 539.93L382.381 980.277H909.335L1172.81 539.93L909.335 99.5817Z" fill="#3A2A68" fill-opacity="0.25"/>
<path d="M410.794 932.823L176.008 540.285L175.823 539.929L410.702 147.391L410.886 147.035H880.92L1115.8 539.573L1115.98 539.929L881.105 932.467L880.92 932.823H880.551H410.794ZM880.09 148.371H411.624L177.392 539.929L411.624 931.488H880.09L1114.32 539.929L880.09 148.371Z" fill="#3A2A68" fill-opacity="0.25"/>
</g>
<defs>
<clipPath id="clip0_139_690">
<rect width="1290.45" height="1078.52" fill="white" transform="translate(0.633789 0.667969)"/>
</clipPath>
</defs>
</svg>
