<?xml version="1.0" encoding="UTF-8"?>
<svg xmlns="http://www.w3.org/2000/svg" xmlns:xlink="http://www.w3.org/1999/xlink" width="120px" height="120px" viewBox="0 0 120 120" version="1.1">
<g id="surface1">
<path style="fill:none;stroke-width:1;stroke-linecap:butt;stroke-linejoin:miter;stroke:rgb(22.745098%,16.470588%,40.784314%);stroke-opacity:1;stroke-miterlimit:4;" d="M 61.500456 8.576823 L 115.501432 39.283854 L 115.501432 100.697917 L 61.500456 131.423177 L 7.499479 100.697917 L 7.499479 39.283854 Z M 61.500456 8.576823 " transform="matrix(0.991736,0,0,0.857143,0,0)"/>
<path style=" stroke:none;fill-rule:nonzero;fill:rgb(22.745098%,16.470588%,40.784314%);fill-opacity:1;" d="M 108.546875 83.652344 L 108.546875 36.449219 L 60.71875 12.855469 L 12.890625 36.449219 L 12.890625 83.652344 L 60.71875 107.261719 Z M 108.546875 83.652344 "/>
<path style="fill:none;stroke-width:1;stroke-linecap:butt;stroke-linejoin:miter;stroke:rgb(22.745098%,16.470588%,40.784314%);stroke-opacity:1;stroke-miterlimit:4;" d="M 60.5 0.578776 L 120.499772 35.277995 L 120.499772 104.699219 L 60.5 139.421224 L 0.500228 104.699219 L 0.500228 35.277995 Z M 60.5 0.578776 " transform="matrix(0.991736,0,0,0.857143,0,0)"/>
<path style=" stroke:none;fill-rule:nonzero;fill:rgb(30.196078%,93.72549%,87.45098%);fill-opacity:1;" d="M 93.96875 56.058594 L 88.5625 56.058594 C 88.3125 56.058594 88.164062 55.929688 88.164062 55.714844 L 88.164062 51.042969 C 88.164062 50.527344 87.816406 50.230469 87.222656 50.230469 L 81.171875 50.230469 C 80.578125 50.230469 80.230469 50.527344 80.230469 51.042969 L 80.230469 55.714844 C 80.230469 55.929688 80.082031 56.058594 79.835938 56.058594 L 74.429688 56.058594 C 73.835938 56.058594 73.488281 56.355469 73.488281 56.871094 L 73.488281 62.101562 C 73.488281 62.613281 73.835938 62.914062 74.429688 62.914062 L 79.835938 62.914062 C 80.082031 62.914062 80.230469 63.042969 80.230469 63.257812 L 80.230469 67.929688 C 80.230469 68.441406 80.578125 68.742188 81.171875 68.742188 L 87.222656 68.742188 C 87.816406 68.742188 88.164062 68.441406 88.164062 67.929688 L 88.164062 63.257812 C 88.164062 63.042969 88.3125 62.914062 88.5625 62.914062 L 93.96875 62.914062 C 94.5625 62.914062 94.910156 62.613281 94.910156 62.101562 L 94.910156 56.871094 C 94.910156 56.355469 94.5625 56.058594 93.96875 56.058594 Z M 93.96875 56.058594 "/>
<path style=" stroke:none;fill-rule:nonzero;fill:rgb(30.196078%,93.72549%,87.45098%);fill-opacity:1;" d="M 27.273438 54.015625 L 31.023438 54.015625 L 34.550781 61.988281 L 38.082031 54.015625 L 41.8125 54.015625 L 36.277344 66 L 32.828125 66 Z M 43.203125 54.015625 L 53.042969 54.015625 L 53.042969 56.570312 L 46.714844 56.570312 L 46.714844 58.816406 L 51.335938 58.816406 L 51.335938 61.199219 L 46.714844 61.199219 L 46.714844 63.445312 L 53.042969 63.445312 L 53.042969 66 L 43.203125 66 Z M 54.4375 54.015625 L 60.667969 54.015625 C 62.292969 54.015625 63.5625 54.371094 64.476562 55.078125 C 65.402344 55.789062 65.863281 56.804688 65.863281 58.132812 C 65.863281 59.023438 65.636719 59.78125 65.1875 60.410156 C 64.738281 61.039062 64.105469 61.507812 63.285156 61.816406 L 65.746094 66 L 62.132812 66 L 59.933594 62.246094 L 57.949219 62.246094 L 57.949219 66 L 54.4375 66 Z M 60.050781 59.691406 C 60.753906 59.691406 61.292969 59.578125 61.679688 59.347656 C 62.0625 59.109375 62.253906 58.703125 62.253906 58.132812 C 62.253906 57.539062 62.0625 57.132812 61.679688 56.914062 C 61.308594 56.6875 60.765625 56.570312 60.050781 56.570312 L 57.949219 56.570312 L 57.949219 59.691406 Z M 60.050781 59.691406 "/>
</g>
</svg>
