<svg width="29" height="29" viewBox="0 0 29 29" fill="none" xmlns="http://www.w3.org/2000/svg">
<path d="M14.5003 9.68349C11.8481 9.68349 9.68379 11.8478 9.68379 14.5C9.68379 17.1521 11.8481 19.3165 14.5003 19.3165C17.1524 19.3165 19.3168 17.1521 19.3168 14.5C19.3168 11.8478 17.1524 9.68349 14.5003 9.68349ZM28.9462 14.5C28.9462 12.5055 28.9643 10.529 28.8523 8.53808C28.7402 6.22558 28.2127 4.17324 26.5217 2.48223C24.8271 0.787598 22.7783 0.263672 20.4658 0.151661C18.4713 0.0396489 16.4948 0.0577154 14.5039 0.0577154C12.5094 0.0577154 10.5329 0.0396489 8.54199 0.151661C6.22949 0.263672 4.17715 0.791211 2.48613 2.48223C0.791505 4.17685 0.267579 6.22558 0.155567 8.53808C0.0435552 10.5326 0.0616216 12.5091 0.0616216 14.5C0.0616216 16.4909 0.0435552 18.471 0.155567 20.4619C0.267579 22.7744 0.795118 24.8267 2.48613 26.5178C4.18076 28.2124 6.22949 28.7363 8.54199 28.8483C10.5365 28.9603 12.513 28.9423 14.5039 28.9423C16.4984 28.9423 18.4749 28.9603 20.4658 28.8483C22.7783 28.7363 24.8307 28.2088 26.5217 26.5178C28.2163 24.8231 28.7402 22.7744 28.8523 20.4619C28.9679 18.471 28.9462 16.4945 28.9462 14.5ZM14.5003 21.9108C10.3992 21.9108 7.08945 18.6011 7.08945 14.5C7.08945 10.3989 10.3992 7.08916 14.5003 7.08916C18.6014 7.08916 21.9111 10.3989 21.9111 14.5C21.9111 18.6011 18.6014 21.9108 14.5003 21.9108ZM22.2147 8.5164C21.2571 8.5164 20.4839 7.74316 20.4839 6.78564C20.4839 5.82812 21.2571 5.05488 22.2147 5.05488C23.1722 5.05488 23.9454 5.82812 23.9454 6.78564C23.9457 7.01301 23.9011 7.2382 23.8142 7.44831C23.7274 7.65843 23.5999 7.84934 23.4391 8.01011C23.2783 8.17088 23.0874 8.29836 22.8773 8.38524C22.6672 8.47212 22.442 8.51669 22.2147 8.5164Z" fill="#3A2A68"/>
</svg>
