<svg width="42" height="43" viewBox="0 0 42 43" fill="none" xmlns="http://www.w3.org/2000/svg">
<path fill-rule="evenodd" clip-rule="evenodd" d="M5.19387e-07 3.59246C5.19387e-07 2.63968 0.369688 1.72593 1.02774 1.05221C1.68578 0.378494 2.57829 4.78925e-06 3.50891 4.78925e-06H38.4873C38.9485 -0.00076638 39.4053 0.0916005 39.8315 0.271817C40.2578 0.452033 40.6452 0.71656 40.9715 1.05025C41.2978 1.38395 41.5566 1.78025 41.733 2.21648C41.9095 2.65271 42.0002 3.12029 42 3.59246V39.4036C42.0005 39.8759 41.91 40.3436 41.7338 40.7801C41.5576 41.2165 41.299 41.6131 40.9729 41.9471C40.6469 42.2811 40.2596 42.5461 39.8334 42.7267C39.4073 42.9074 38.9505 43.0003 38.4892 43H3.50891C3.04795 43 2.59151 42.907 2.16567 42.7264C1.73982 42.5457 1.35292 42.2809 1.02706 41.9471C0.701204 41.6133 0.442779 41.217 0.266552 40.781C0.0903253 40.3449 -0.000250273 39.8775 5.19387e-07 39.4056V3.59246ZM16.6244 16.3947H22.3115V19.3187C23.1325 17.6378 25.2325 16.125 28.3882 16.125C34.4381 16.125 35.8718 19.4731 35.8718 25.6163V36.9956H29.7494V27.0157C29.7494 23.5171 28.9285 21.543 26.8437 21.543C23.9515 21.543 22.7487 23.6715 22.7487 27.0157V36.9956H16.6244V16.3947ZM6.12436 36.7279H12.2487V16.125H6.12436V36.7259V36.7279ZM13.125 9.40528C13.1365 9.94214 13.0432 10.476 12.8505 10.9754C12.6579 11.4748 12.3697 11.9298 12.0029 12.3137C11.6361 12.6976 11.1982 13.0026 10.7147 13.2108C10.2312 13.419 9.712 13.5263 9.1875 13.5263C8.663 13.5263 8.14378 13.419 7.66031 13.2108C7.17685 13.0026 6.73888 12.6976 6.3721 12.3137C6.00533 11.9298 5.71714 11.4748 5.52445 10.9754C5.33176 10.476 5.23845 9.94214 5.25 9.40528C5.27267 8.35149 5.69746 7.34869 6.43342 6.61162C7.16937 5.87455 8.15797 5.46182 9.1875 5.46182C10.217 5.46182 11.2056 5.87455 11.9416 6.61162C12.6775 7.34869 13.1023 8.35149 13.125 9.40528Z" fill="#83C441"/>
</svg>
