<svg width="51" height="52" viewBox="0 0 51 52" fill="none" xmlns="http://www.w3.org/2000/svg">
<path fill-rule="evenodd" clip-rule="evenodd" d="M6.30684e-07 4.34437C6.30684e-07 3.19217 0.448907 2.08717 1.24797 1.27244C2.04702 0.457714 3.13078 5.79165e-06 4.26082 5.79165e-06H46.7345C47.2946 -0.000926785 47.8492 0.110773 48.3669 0.328709C48.8845 0.546645 49.3549 0.866538 49.7511 1.27007C50.1473 1.67361 50.4615 2.15286 50.6758 2.68039C50.8901 3.20792 51.0003 3.77337 51 4.34437V47.6509C51.0006 48.222 50.8908 48.7876 50.6768 49.3154C50.4628 49.8432 50.1488 50.3228 49.7528 50.7267C49.3569 51.1307 48.8867 51.4511 48.3692 51.6695C47.8517 51.888 47.297 52.0003 46.7369 52H4.26082C3.70108 52 3.14684 51.8876 2.62974 51.6691C2.11264 51.4506 1.64283 51.1304 1.24715 50.7267C0.851461 50.3231 0.53766 49.8439 0.323671 49.3165C0.109681 48.7892 -0.000303903 48.224 6.30684e-07 47.6533V4.34437ZM20.1867 19.8262H27.0926V23.3622C28.0894 21.3295 30.6394 19.5 34.4714 19.5C41.8177 19.5 43.5586 23.5489 43.5586 30.9778V44.7389H36.1242V32.6702C36.1242 28.4393 35.1274 26.052 32.596 26.052C29.0839 26.052 27.6235 28.626 27.6235 32.6702V44.7389H20.1867V19.8262ZM7.43673 44.4151H14.8735V19.5H7.43673V44.4127V44.4151ZM15.9375 11.3738C15.9515 12.023 15.8382 12.6686 15.6042 13.2726C15.3703 13.8765 15.0203 14.4268 14.5749 14.891C14.1296 15.3552 13.5978 15.724 13.0107 15.9758C12.4236 16.2276 11.7931 16.3574 11.1562 16.3574C10.5194 16.3574 9.88887 16.2276 9.30181 15.9758C8.71474 15.724 8.18292 15.3552 7.73755 14.891C7.29219 14.4268 6.94224 13.8765 6.70826 13.2726C6.47428 12.6686 6.36098 12.023 6.375 11.3738C6.40252 10.0995 6.91835 8.88678 7.81201 7.99545C8.70567 7.10411 9.90611 6.60499 11.1562 6.60499C12.4064 6.60499 13.6068 7.10411 14.5005 7.99545C15.3942 8.88678 15.91 10.0995 15.9375 11.3738Z" fill="#338ECD"/>
</svg>
