<svg width="74" height="16" viewBox="0 0 74 16" fill="#338ecd" xmlns="http://www.w3.org/2000/svg">
<path d="M11.7364 8.0427H11.6184L8.12629 0.643155C8.02247 0.421358 7.79596 0.279785 7.55057 0.279785H1.00518C0.651248 0.279785 0.368103 0.562931 0.368103 0.916863V14.824C0.368103 15.178 0.651248 15.4611 1.00518 15.4611H5.71012C6.06405 15.4611 6.3472 15.178 6.3472 14.824V7.63213H6.46517L10.2074 15.1119C10.316 15.329 10.5378 15.4658 10.7784 15.4658H17.0784C17.4323 15.4658 17.7155 15.1827 17.7155 14.8288V0.916863C17.7155 0.562931 17.4323 0.279785 17.0784 0.279785H12.3735C12.0195 0.279785 11.7364 0.562931 11.7364 0.916863V8.0427Z" fill="#338ecd"/>
<path d="M26.1484 8.80524H34.5484C34.7513 8.80524 34.9212 8.64007 34.9212 8.43243V7.30456C34.9212 7.10164 34.756 6.93176 34.5484 6.93176H26.1484V4.78929H34.9306C35.2846 4.78929 35.5677 4.50614 35.5677 4.15221V0.91491C35.5677 0.560978 35.2846 0.277832 34.9306 0.277832H20.3203C19.9664 0.277832 19.6833 0.560978 19.6833 0.91491V14.8315C19.6833 15.176 19.9664 15.4592 20.3109 15.4592H35.0297C35.3837 15.4592 35.6668 15.176 35.6668 14.8221V11.783C35.6668 11.4291 35.3837 11.1459 35.0297 11.1459H26.1484V8.80524Z" fill="#338ecd"/>
<path d="M54.9774 6.28524C54.9774 1.01401 51.9572 0.277832 47.9601 0.277832H38.2671C37.9132 0.277832 37.63 0.560978 37.63 0.91491V14.8221C37.63 15.176 37.9132 15.4592 38.2671 15.4592H43.4581C43.812 15.4592 44.0952 15.176 44.0952 14.8221V12.1416H45.19C45.5345 13.8122 46.8794 15.1052 48.5736 15.3884C48.7765 15.4308 48.9889 15.4592 49.2201 15.4592H54.3403C54.6943 15.4592 54.9774 15.176 54.9774 14.8221V12.1416C54.9774 11.7877 54.6943 11.5046 54.3403 11.5046H52.2498C54.0194 10.7825 54.9774 9.2913 54.9774 6.28524ZM44.0999 4.74682H47.0163C47.7336 4.74682 48.3329 5.30367 48.3895 6.01625C48.5217 7.67737 48.0026 8.23423 46.568 8.28142H44.0999V4.74682Z" fill="#338ecd"/>
<path d="M73.9999 7.78119C73.9999 2.26929 71.3336 0.277832 66.1615 0.277832H57.5869C57.233 0.277832 56.9498 0.560978 56.9498 0.91491V14.7371C56.9498 15.1383 57.2754 15.4592 57.6719 15.4592H66.1615C71.3336 15.4592 73.9999 13.463 73.9999 7.9558C73.9999 7.92748 73.9952 7.89917 73.9952 7.87086C73.9952 7.83782 73.9999 7.81423 73.9999 7.78119ZM65.0572 10.7967H63.3112V9.08838V4.9403H65.0572C66.9826 4.9403 67.497 5.99266 67.5206 7.87086C67.497 9.74434 66.9873 10.7967 65.0572 10.7967Z" fill="#338ecd"/>
</svg>
