<svg width="195" height="86" viewBox="0 0 195 86" fill="none" xmlns="http://www.w3.org/2000/svg">
<g clip-path="url(#clip0_381_202)">
<path d="M83.2666 41.8605H71.0923V29.8062H83.1467L83.2666 41.8605Z" fill="#338ECD"/>
<path d="M83.3266 47.0179H71.0923V73.9453H83.3266V47.0179Z" fill="#338ECD"/>
<path d="M139.28 41.8005H121.529V73.9455H109.474V41.8005H91.7227L91.6028 29.8062H139.161L139.28 41.8005Z" fill="#338ECD"/>
<path d="M171.785 41.8005H164.649C161.23 41.8005 159.131 42.94 158.831 45.9986V56.6736C158.831 58.5327 159.491 60.092 160.451 61.0515C161.41 62.0111 162.61 62.0111 164.469 62.0111H182.22V44.6792H194.275V73.9455H162.49C160.151 73.9455 158.052 73.6456 156.133 72.9859C154.213 72.3862 152.534 71.4267 151.155 70.2272C149.776 69.0278 148.696 67.4685 147.916 65.6694C147.137 63.8702 146.777 61.7712 146.777 59.4922V44.2594C146.777 41.9205 147.137 39.8814 147.916 38.0823C148.696 36.2831 149.776 34.7838 151.155 33.5844C152.534 32.3849 154.034 31.4254 155.953 30.7657C157.872 30.106 159.971 29.8062 162.31 29.8062H171.485" fill="#338ECD"/>
<path d="M43.2054 28.2468C41.946 27.827 40.5667 28.5466 40.2068 29.806C39.907 30.8256 40.3268 31.965 41.1664 32.5048V39.4015H9.38128C8.72159 39.4015 8.0619 39.9413 8.0619 40.601C8.0619 41.2607 7.88199 41.8004 8.54168 41.8004H42.3658C43.0255 41.8004 43.5653 41.2607 43.5653 40.601V32.6847C44.105 32.3848 44.5848 31.905 44.8247 31.2454C45.1845 29.9859 44.4648 28.6666 43.2054 28.2468Z" fill="#DD6C2F"/>
<path d="M56.0994 69.7473C55.7995 69.6274 55.4997 69.6274 55.1998 69.6873L51.9013 66.3889C51.6015 66.089 51.1217 66.0291 50.462 66.0291H3.26413C2.60444 66.0291 2.9043 66.5688 2.9043 67.2285C2.9043 67.8882 2.72438 68.4279 3.38407 68.4279H50.522H50.582L53.4606 71.3066C53.1608 72.3861 53.8204 73.5855 54.8999 73.8854C56.0394 74.2452 57.2388 73.5855 57.5987 72.446C57.8985 71.3066 57.2388 70.1071 56.0994 69.7473Z" fill="#EB3A26"/>
<path d="M60.5973 51.4559C59.5778 51.156 58.4983 51.5758 57.9585 52.4754H8.06189V54.8743H58.0185C58.3183 55.354 58.7382 55.7139 59.2779 55.8338C60.4773 56.1936 61.7967 55.5339 62.1566 54.3345C62.5164 53.1351 61.8567 51.8757 60.5973 51.4559Z" fill="#83C441"/>
<path d="M183.54 44.6791H174.664V55.3541H183.54V44.6791Z" fill="#338ECD"/>
<path d="M147.197 82.0416C132.264 81.8017 115.651 81.6817 97.8398 81.6817C58.4983 81.6817 25.6936 82.2215 19.5165 82.3414H19.3366C10.7006 82.4014 3.62396 75.3247 3.62396 66.6288C3.62396 62.0709 5.60303 57.753 9.02143 54.7544L9.7411 54.1546L9.50121 53.2551C8.96146 51.156 8.72157 49.057 8.72157 47.018C8.72157 33.0445 20.1162 21.6499 34.0897 21.6499C39.6671 21.6499 44.9446 23.449 49.4425 26.8074L51.0018 28.0069L51.7214 26.2077C57.3588 12.1143 70.8525 2.9986 86.0853 2.9986C96.2206 2.9986 105.756 7.07669 112.833 14.4532L113.852 15.5327L114.932 14.5132C121.529 8.21615 130.165 4.73778 139.28 4.73778C149.476 4.73778 159.191 7.13666 166.568 11.5146C174.664 16.3124 178.442 23.3291 179.102 31.3053H182.1C181.261 20.2105 174.904 13.1938 168.907 9.47556C160.93 4.49789 150.435 1.73919 139.28 1.73919C130.465 1.73919 122.188 4.67781 115.352 10.1353L113.972 11.2747L112.653 10.0753C105.276 3.59831 95.8607 0 86.0853 0C71.1523 0 57.5987 8.21615 50.6419 21.35L49.6224 23.2691L47.7633 22.1896C43.5653 19.8507 38.9474 18.6513 34.0897 18.6513C18.437 18.6513 5.72298 31.3653 5.72298 47.018C5.72298 48.6372 5.90289 50.3164 6.20275 52.0556L6.38267 53.0751L5.66301 53.8548C2.42452 57.3931 0.625366 61.891 0.625366 66.6288C0.625366 76.944 9.02143 85.34 19.3966 85.34C20.1162 85.34 55.1998 84.6803 97.7199 84.6803C114.872 84.6803 130.944 84.8003 145.398 85.0402H169.926L194.215 85.2201V82.2815L147.197 82.0416Z" fill="#338ECD"/>
<path d="M178.982 30.2258L179.102 37.9622H182.04L182.1 31.3053L178.982 30.2258Z" fill="#338ECD"/>
</g>
<defs>
<clipPath id="clip0_381_202">
<rect width="193.649" height="85.4" fill="white" transform="translate(0.625366)"/>
</clipPath>
</defs>
</svg>
