<svg width="290" height="42" viewBox="0 0 290 42" fill="none" xmlns="http://www.w3.org/2000/svg">
<path d="M66.017 0H54.0031L47.9961 10.515L54.0031 21.03H66.017L72.024 10.515L66.017 0Z" fill="#48337B"/>
<path d="M59.9506 0H47.9367L41.9297 10.515L47.9367 21.03H59.9506L65.9576 10.515L59.9506 0Z" fill="#484483"/>
<path d="M54.0034 0H42.049L36.042 10.515L42.049 21.03H54.0034L60.0104 10.515L54.0034 0Z" fill="#49558C"/>
<path d="M50.0776 6.96973H38.0636L32.0566 17.4247L38.0636 27.9397H50.0776L56.0845 17.4247L50.0776 6.96973Z" fill="#496796"/>
<path d="M46.0932 13.7598H34.0792L28.0723 24.2748L34.0792 34.7297H46.0932L52.1002 24.2748L46.0932 13.7598Z" fill="#4A789F"/>
<path d="M42.0492 20.9697H30.0353L24.0283 31.4847L30.0353 41.9998H42.0492L47.9967 31.4847L42.0492 20.9697Z" fill="#4A88A8"/>
<path d="M37.9447 13.7598H25.9308L19.9238 24.2748L25.9308 34.7297H37.9447L43.9517 24.2748L37.9447 13.7598Z" fill="#4B99B1"/>
<path d="M33.9008 6.78955H21.8869L15.8799 17.3046L21.8869 27.8196H33.9008L39.9078 17.3046L33.9008 6.78955Z" fill="#4BAABA"/>
<path d="M30.0346 0H18.0206L12.0137 10.515L18.0206 21.03H30.0346L36.0416 10.515L30.0346 0Z" fill="#4CBBC3"/>
<path d="M26.0502 7.03027H14.0363L8.0293 17.4852L14.0363 28.0002H26.0502L32.0572 17.4852L26.0502 7.03027Z" fill="#4CCDCD"/>
<path d="M22.184 13.7598H10.1701L4.16309 24.2748L10.1701 34.7297H22.184L28.191 24.2748L22.184 13.7598Z" fill="#4DDED6"/>
<path d="M18.0209 20.9697H6.00697L0 31.4847L6.00697 41.9998H18.0209L24.0279 31.4847L18.0209 20.9697Z" fill="#4DEFDF"/>
<path d="M106.4 31.7853C106.163 32.0256 105.925 32.0857 105.568 32.0857H102.654C102.356 32.0857 102.059 32.0256 101.821 31.9055C101.583 31.7853 101.345 31.5449 101.107 31.1243L94.3865 19.4076C94.2676 19.2273 94.2081 19.1673 94.1486 19.1673C94.0297 19.1673 94.0297 19.2273 94.0297 19.4076V31.4849C94.0297 31.6651 93.9702 31.7853 93.8512 31.9055C93.7323 32.0256 93.6134 32.0857 93.4349 32.0857H89.9854C89.8069 32.0857 89.688 32.0256 89.5691 31.9055C89.4501 31.7853 89.3906 31.6651 89.3906 31.4849V11.1158C89.3906 10.8153 89.5096 10.5149 89.688 10.3346C89.9259 10.0943 90.1638 10.0342 90.4612 10.0342H93.4349C93.7323 10.0342 93.9702 10.0943 94.1486 10.2746C94.327 10.3947 94.5055 10.6351 94.6839 10.9956L101.702 23.193C101.821 23.3733 101.88 23.4333 101.94 23.4333C102.059 23.4333 102.059 23.3733 102.059 23.193V10.575C102.059 10.3947 102.118 10.2745 102.237 10.1544C102.356 10.0342 102.475 9.97412 102.654 9.97412H106.103C106.282 9.97412 106.4 10.0342 106.519 10.1544C106.638 10.2745 106.698 10.3947 106.698 10.575V31.0042C106.757 31.3046 106.638 31.5449 106.4 31.7853Z" fill="white"/>
<path d="M123.648 31.9656C123.113 32.0257 122.459 32.1459 121.626 32.206C120.793 32.266 119.544 32.3261 117.939 32.3261C116.987 32.3261 116.095 32.266 115.203 32.0858C114.311 31.9055 113.597 31.6051 112.883 31.1244C112.229 30.6437 111.694 29.9828 111.277 29.2017C110.861 28.3605 110.683 27.2789 110.683 25.957V16.103C110.683 14.7811 110.861 13.6394 111.277 12.8583C111.694 12.0171 112.229 11.3562 112.883 10.9356C113.537 10.4549 114.311 10.1545 115.203 10.0343C116.095 9.85403 116.987 9.79395 117.939 9.79395C118.771 9.79395 119.425 9.79395 120.02 9.85403C120.615 9.85403 121.15 9.91412 121.567 9.9742C122.042 10.0343 122.399 10.0343 122.756 10.0944C123.053 10.1545 123.351 10.1545 123.648 10.2145C124.064 10.2746 124.243 10.4549 124.243 10.8154V13.5794C124.243 13.7596 124.183 13.8798 124.064 14C123.946 14.1201 123.827 14.1802 123.648 14.1802H117.641C116.927 14.1802 116.452 14.3004 116.154 14.6008C115.857 14.9012 115.738 15.442 115.738 16.163V18.8669H123.351C123.529 18.8669 123.648 18.927 123.767 19.0472C123.886 19.1673 123.946 19.2875 123.946 19.4678V22.2317C123.946 22.412 123.886 22.5321 123.767 22.6523C123.648 22.7725 123.529 22.8326 123.351 22.8326H115.738V25.957C115.738 26.7382 115.857 27.2789 116.154 27.5193C116.452 27.8197 116.927 27.9399 117.641 27.9399H123.648C123.827 27.9399 123.946 28 124.064 28.1201C124.183 28.2403 124.243 28.3605 124.243 28.5407V31.3047C124.243 31.7253 124.064 31.9055 123.648 31.9656Z" fill="white"/>
<path d="M144.168 27.2189C143.692 28.4206 143.097 29.442 142.324 30.1631C141.551 30.9442 140.599 31.485 139.529 31.8455C138.458 32.206 137.328 32.3862 136.138 32.3862C134.949 32.3862 133.759 32.206 132.748 31.8455C131.678 31.485 130.786 30.9442 129.953 30.1631C129.18 29.382 128.526 28.4206 128.109 27.2189C127.633 26.0171 127.455 24.515 127.455 22.8326V19.2875C127.455 17.545 127.693 16.103 128.109 14.9013C128.585 13.6996 129.18 12.6781 129.953 11.9571C130.726 11.1759 131.678 10.6352 132.748 10.2747C133.819 9.91414 134.949 9.73389 136.138 9.73389C137.328 9.73389 138.517 9.91414 139.529 10.2747C140.599 10.6352 141.491 11.1759 142.324 11.9571C143.097 12.7382 143.751 13.6996 144.168 14.9013C144.643 16.103 144.822 17.6051 144.822 19.2875V22.8326C144.881 24.515 144.643 26.0171 144.168 27.2189ZM139.826 19.2875C139.826 17.485 139.529 16.1631 138.934 15.382C138.339 14.6008 137.387 14.1802 136.198 14.1802C134.949 14.1802 134.057 14.6008 133.462 15.382C132.867 16.1631 132.57 17.485 132.57 19.2875V22.8326C132.57 24.6352 132.867 25.9571 133.462 26.7382C134.057 27.5193 134.949 27.9399 136.198 27.9399C137.447 27.9399 138.339 27.5193 138.934 26.7382C139.529 25.9571 139.826 24.6352 139.826 22.8326V19.2875Z" fill="white"/>
<path d="M171.525 20.6094C171.049 21.5107 170.336 22.2918 169.563 22.8326C168.73 23.3734 167.778 23.794 166.767 24.0343C165.697 24.2747 164.626 24.3948 163.556 24.3948C163.199 24.3948 162.782 24.3948 162.366 24.3948C161.95 24.3948 161.533 24.3347 161.177 24.3347V31.545C161.177 31.7253 161.117 31.8455 160.998 31.9656C160.879 32.0858 160.76 32.1459 160.582 32.1459H156.775C156.597 32.1459 156.478 32.0858 156.359 31.9656C156.24 31.8455 156.181 31.7253 156.181 31.545V11.5365C156.181 10.9957 156.3 10.6953 156.478 10.515C156.716 10.3347 157.013 10.2146 157.489 10.1545C158.262 10.0343 159.154 9.91414 160.225 9.85406C161.296 9.79397 162.366 9.73389 163.437 9.73389C164.567 9.73389 165.637 9.85406 166.708 10.0343C167.778 10.2747 168.73 10.6352 169.563 11.1759C170.395 11.7167 171.049 12.4377 171.525 13.3991C172.001 14.3004 172.298 15.5021 172.298 16.8841V17.1244C172.298 18.5665 172.06 19.7081 171.525 20.6094ZM167.243 16.8841C167.243 15.8026 166.946 15.0815 166.291 14.6008C165.637 14.1802 164.745 13.9399 163.496 13.9399C163.377 13.9399 163.258 13.9399 163.02 13.9399C162.782 13.9399 162.544 13.9399 162.307 13.9399C162.069 13.9399 161.831 13.9399 161.593 13.9399C161.355 13.9399 161.236 13.9399 161.117 13.9399V20.0086C161.177 20.0086 161.355 20.0086 161.593 20.0086C161.831 20.0086 162.069 20.0086 162.307 20.0086C162.544 20.0086 162.842 20.0086 163.02 20.0086C163.258 20.0086 163.377 20.0086 163.496 20.0086C164.805 20.0086 165.756 19.7682 166.351 19.2875C166.946 18.8068 167.243 18.0257 167.243 17.0043V16.8841Z" fill="white"/>
<path d="M192.223 31.7253C192.223 31.9656 192.104 32.0858 191.807 32.0858H187.286C187.108 32.0858 186.989 32.0257 186.93 31.9055C186.87 31.7853 186.751 31.6652 186.692 31.4849L182.766 23.9742H182.469C182.172 23.9742 181.815 23.9742 181.398 23.9742C180.982 23.9742 180.685 23.9141 180.387 23.9141V31.4849C180.387 31.6652 180.328 31.7853 180.209 31.9055C180.09 32.0257 179.971 32.0858 179.793 32.0858H175.927C175.748 32.0858 175.629 32.0257 175.51 31.9055C175.392 31.7853 175.332 31.6652 175.332 31.4849V11.5364C175.332 10.9956 175.451 10.6952 175.629 10.5149C175.867 10.3347 176.165 10.2145 176.64 10.1544C176.997 10.0943 177.354 10.0343 177.83 10.0343C178.306 9.97418 178.782 9.97418 179.317 9.91409C179.852 9.854 180.387 9.854 180.923 9.854C181.458 9.854 182.053 9.854 182.529 9.854C183.777 9.854 184.967 9.97418 186.038 10.2145C187.108 10.4549 188.06 10.8154 188.833 11.3562C189.606 11.8969 190.26 12.618 190.677 13.5192C191.152 14.4205 191.331 15.5021 191.331 16.824V17.1845C191.331 18.7467 190.974 20.0686 190.26 21.03C189.547 21.9913 188.595 22.7124 187.524 23.133L191.985 31.545C192.223 31.545 192.223 31.6652 192.223 31.7253ZM186.454 16.7038C186.454 15.8025 186.097 15.1416 185.443 14.721C184.789 14.3004 183.837 14.06 182.588 14.06C182.469 14.06 182.35 14.06 182.112 14.06C181.874 14.06 181.636 14.06 181.398 14.06C181.161 14.06 180.923 14.06 180.744 14.06C180.566 14.06 180.387 14.06 180.268 14.06V19.8283C180.328 19.8283 180.506 19.8283 180.685 19.8283C180.863 19.8283 181.101 19.8283 181.339 19.8283C181.577 19.8283 181.755 19.8283 181.993 19.8283C182.172 19.8283 182.35 19.8283 182.41 19.8283C183.183 19.8283 183.777 19.7682 184.313 19.648C184.848 19.5278 185.264 19.3476 185.562 19.1673C185.859 18.927 186.097 18.6866 186.216 18.266C186.335 17.9055 186.394 17.4849 186.394 16.9441V16.7038H186.454Z" fill="white"/>
<path d="M211.612 27.2189C211.136 28.4206 210.541 29.442 209.768 30.1631C208.995 30.9442 208.043 31.485 206.973 31.8455C205.902 32.206 204.772 32.3862 203.583 32.3862C202.393 32.3862 201.204 32.206 200.193 31.8455C199.122 31.485 198.23 30.9442 197.397 30.1631C196.624 29.382 195.97 28.4206 195.554 27.2189C195.078 26.0171 194.899 24.515 194.899 22.8326V19.2875C194.899 17.545 195.137 16.103 195.554 14.9013C196.029 13.6996 196.624 12.6781 197.397 11.9571C198.171 11.1759 199.122 10.6352 200.193 10.2747C201.263 9.91414 202.393 9.73389 203.583 9.73389C204.772 9.73389 205.962 9.91414 206.973 10.2747C208.043 10.6352 208.936 11.1759 209.768 11.9571C210.541 12.7382 211.196 13.6996 211.612 14.9013C212.088 16.103 212.266 17.6051 212.266 19.2875V22.8326C212.266 24.515 212.088 26.0171 211.612 27.2189ZM207.27 19.2875C207.27 17.485 206.973 16.1631 206.378 15.382C205.783 14.6008 204.832 14.1802 203.642 14.1802C202.393 14.1802 201.501 14.6008 200.906 15.382C200.312 16.1631 200.014 17.485 200.014 19.2875V22.8326C200.014 24.6352 200.312 25.9571 200.906 26.7382C201.501 27.5193 202.393 27.9399 203.642 27.9399C204.891 27.9399 205.783 27.5193 206.378 26.7382C206.973 25.9571 207.27 24.6352 207.27 22.8326V19.2875Z" fill="white"/>
<path d="M220.533 34.7896C220.236 35.4505 219.879 35.9913 219.403 36.3518C218.928 36.7123 218.392 37.0127 217.738 37.193C217.084 37.3733 216.43 37.4333 215.656 37.4333C215.3 37.4333 215.002 37.4333 214.764 37.4333C214.526 37.4333 214.17 37.3733 213.753 37.3733C213.456 37.3132 213.337 37.193 213.337 36.8926V33.8282C213.337 33.708 213.396 33.6479 213.396 33.5278C213.456 33.4677 213.515 33.4076 213.634 33.4076H215.121C215.478 33.4076 215.656 33.3475 215.775 33.1673C215.835 32.987 215.894 32.7467 215.894 32.326V10.575C215.894 10.3947 215.954 10.2745 216.073 10.1544C216.192 10.0342 216.311 9.97412 216.489 9.97412H220.355C220.533 9.97412 220.652 10.0342 220.771 10.1544C220.89 10.2745 220.95 10.3947 220.95 10.575V32.326C220.95 33.2874 220.831 34.1286 220.533 34.7896Z" fill="white"/>
<path d="M237.9 31.9656C237.365 32.0257 236.711 32.1459 235.878 32.206C235.045 32.266 233.796 32.3261 232.191 32.3261C231.239 32.3261 230.347 32.266 229.455 32.0858C228.563 31.9055 227.849 31.6051 227.135 31.1244C226.481 30.6437 225.946 29.9828 225.529 29.2017C225.113 28.3605 224.935 27.2789 224.935 25.957V16.103C224.935 14.7811 225.113 13.6394 225.529 12.8583C225.946 12.0171 226.481 11.3562 227.135 10.9356C227.789 10.4549 228.563 10.1545 229.455 10.0343C230.347 9.85403 231.239 9.79395 232.191 9.79395C233.023 9.79395 233.677 9.79395 234.272 9.85403C234.867 9.85403 235.402 9.91412 235.818 9.9742C236.294 10.0343 236.651 10.0343 237.008 10.0944C237.305 10.1545 237.603 10.1545 237.9 10.2145C238.316 10.2746 238.495 10.4549 238.495 10.8154V13.5794C238.495 13.7596 238.435 13.8798 238.316 14C238.197 14.1201 238.079 14.1802 237.9 14.1802H231.893C231.179 14.1802 230.704 14.3004 230.406 14.6008C230.109 14.9012 229.99 15.442 229.99 16.163V18.8669H237.603C237.781 18.8669 237.9 18.927 238.019 19.0472C238.138 19.1673 238.197 19.2875 238.197 19.4678V22.2317C238.197 22.412 238.138 22.5321 238.019 22.6523C237.9 22.7725 237.781 22.8326 237.603 22.8326H229.99V25.957C229.99 26.7382 230.109 27.2789 230.406 27.5193C230.704 27.8197 231.179 27.9399 231.893 27.9399H237.9C238.079 27.9399 238.197 28 238.316 28.1201C238.435 28.2403 238.495 28.3605 238.495 28.5407V31.3047C238.495 31.7253 238.257 31.9055 237.9 31.9656Z" fill="white"/>
<path d="M255.266 31.6652C255.147 31.7253 254.969 31.8454 254.79 31.9055C254.493 32.0257 253.898 32.0858 253.125 32.206C252.352 32.3261 251.4 32.3862 250.389 32.3862C249.259 32.3862 248.189 32.206 247.118 31.9055C246.048 31.6051 245.156 31.0643 244.323 30.3433C243.49 29.6223 242.895 28.6008 242.36 27.3991C241.884 26.1974 241.646 24.6952 241.646 22.9527V19.2274C241.646 17.4849 241.884 15.9828 242.36 14.7811C242.836 13.5794 243.49 12.618 244.323 11.8369C245.156 11.1158 246.048 10.5751 247.118 10.2746C248.189 9.9742 249.259 9.79395 250.389 9.79395C251.4 9.79395 252.352 9.85403 253.125 9.9742C253.898 10.0944 254.434 10.2145 254.79 10.2746C255.028 10.3347 255.147 10.3948 255.266 10.4549C255.385 10.515 255.445 10.6952 255.445 10.8755V13.8197C255.445 14.2403 255.266 14.4206 254.909 14.4206H254.85C254.255 14.3605 253.601 14.3605 252.887 14.3004C252.114 14.2403 251.341 14.2403 250.508 14.2403C249.973 14.2403 249.497 14.3004 249.081 14.4806C248.665 14.6008 248.248 14.9012 247.891 15.2618C247.535 15.6223 247.297 16.163 247.118 16.824C246.94 17.4849 246.821 18.266 246.821 19.2875V23.0128C246.821 23.9742 246.94 24.8154 247.118 25.4764C247.297 26.1373 247.594 26.618 247.891 27.0386C248.248 27.3991 248.605 27.6995 249.081 27.8197C249.497 27.9399 249.973 28.06 250.508 28.06C251.341 28.06 252.114 28.06 252.887 28C253.66 27.9399 254.315 27.8798 254.85 27.8798H254.909C255.266 27.8798 255.445 28.06 255.445 28.4806V31.3648C255.385 31.4248 255.326 31.545 255.266 31.6652Z" fill="white"/>
<path d="M272.99 13.9999C272.871 14.1201 272.692 14.1802 272.573 14.1802H267.815V31.4849C267.815 31.6651 267.756 31.7853 267.637 31.9055C267.518 32.0257 267.399 32.0857 267.22 32.0857H263.355C263.176 32.0857 263.057 32.0257 262.938 31.9055C262.819 31.7853 262.76 31.6651 262.76 31.4849V14.1802H257.942C257.764 14.1802 257.645 14.1201 257.526 13.9999C257.407 13.8797 257.348 13.7596 257.348 13.5793V10.5149C257.348 10.3347 257.407 10.2145 257.526 10.0943C257.645 9.97415 257.764 9.91406 257.942 9.91406H272.573C272.752 9.91406 272.871 9.97415 272.99 10.0943C273.109 10.2145 273.168 10.3347 273.168 10.5149V13.5793C273.168 13.7596 273.109 13.9398 272.99 13.9999Z" fill="white"/>
<path d="M290 25.8369C290 26.618 289.881 27.3991 289.583 28.1802C289.286 28.9613 288.87 29.6223 288.215 30.2832C287.561 30.8841 286.728 31.4248 285.717 31.7854C284.706 32.1459 283.457 32.3862 281.97 32.3862C280.781 32.3862 279.77 32.3261 278.878 32.206C277.986 32.0858 277.153 31.9055 276.439 31.7253C276.261 31.6652 276.142 31.6051 276.023 31.545C275.904 31.4248 275.845 31.3047 275.845 31.1845V28.2403C275.845 28 275.904 27.8798 275.964 27.8197C276.082 27.7596 276.201 27.6995 276.32 27.6995H276.38C276.677 27.6995 277.094 27.7596 277.629 27.8197C278.164 27.8798 278.699 27.8798 279.235 27.9399C279.77 28 280.305 28 280.781 28C281.257 28 281.673 28.06 281.97 28.06C282.982 28.06 283.695 27.8798 284.052 27.5794C284.409 27.2188 284.587 26.7382 284.587 26.0171C284.587 25.5965 284.468 25.236 284.171 24.8755C283.933 24.5751 283.398 24.2145 282.625 23.7339L278.58 21.2703C277.867 20.8497 277.331 20.4291 276.915 20.0085C276.499 19.5879 276.142 19.1073 275.845 18.6266C275.607 18.1459 275.369 17.6652 275.309 17.1244C275.19 16.6437 275.131 16.103 275.131 15.5622C275.131 14.721 275.25 14 275.488 13.2789C275.726 12.5579 276.142 11.957 276.737 11.4163C277.331 10.8755 278.105 10.515 279.056 10.2145C280.008 9.91412 281.197 9.79395 282.625 9.79395C283.16 9.79395 283.755 9.79395 284.349 9.85403C284.944 9.91412 285.539 9.91412 286.134 9.9742C286.729 10.0343 287.204 10.0944 287.74 10.1545C288.215 10.2145 288.632 10.3347 288.87 10.3948C288.989 10.4549 289.108 10.515 289.167 10.5751C289.226 10.6351 289.286 10.7553 289.286 10.9356V13.9399C289.286 14.06 289.226 14.1802 289.167 14.3004C289.108 14.4206 288.989 14.4206 288.751 14.4206H288.691C288.513 14.4206 288.156 14.3605 287.68 14.3605C287.204 14.3605 286.669 14.3004 286.015 14.2403C285.42 14.1802 284.766 14.1802 284.171 14.1201C283.517 14.1201 282.982 14.06 282.446 14.06C281.614 14.06 281.019 14.1802 280.662 14.4206C280.305 14.6609 280.127 15.0815 280.127 15.6223C280.127 16.0429 280.246 16.4034 280.543 16.6437C280.781 16.8841 281.316 17.2446 282.089 17.7253L285.836 19.7682C287.383 20.6094 288.394 21.5107 288.989 22.5321C289.702 23.5536 290 24.6351 290 25.8369Z" fill="white"/>
</svg>
