<svg width="105" height="66" viewBox="0 0 105 66" fill="none" xmlns="http://www.w3.org/2000/svg">
<g clip-path="url(#clip0_441_976)">
<rect width="105" height="66" fill="white"/>
<path d="M77.605 53.413H32.9773C30.1958 53.413 27.9312 51.1566 27.9312 48.385V6.81239C27.9312 4.04087 30.1958 1.78442 32.9773 1.78442H77.5804C80.3619 1.78442 82.6265 4.04087 82.6265 6.81239V48.385C82.6511 51.1566 80.3865 53.413 77.605 53.413Z" fill="#E7F3F9"/>
<path d="M78.4419 1.76001H32.1404C29.8265 1.76001 27.9312 3.62403 27.9312 5.95406V9.97643H82.6511V5.95406C82.6511 3.64856 80.7804 1.76001 78.4419 1.76001Z" fill="#338ECD"/>
<path d="M72.3901 31.094H37.2161C36.133 31.094 35.2468 30.211 35.2468 29.1318V16.5742C35.2468 15.495 36.133 14.6121 37.2161 14.6121H72.3901C73.4732 14.6121 74.3593 15.495 74.3593 16.5742V29.1318C74.3593 30.2355 73.4732 31.094 72.3901 31.094Z" fill="white"/>
<path d="M45.7579 19.2229H37.4132C37.0686 19.2229 36.7979 18.9531 36.7979 18.6097V17.923C36.7979 17.5796 37.0686 17.3098 37.4132 17.3098H45.7579C46.1025 17.3098 46.3732 17.5796 46.3732 17.923V18.6097C46.3486 18.9531 46.0779 19.2229 45.7579 19.2229Z" fill="#338ECD"/>
<path d="M72.1807 23.0981H37.4132C37.0686 23.0981 36.7979 22.8283 36.7979 22.485V21.7982C36.7979 21.4549 37.0686 21.1851 37.4132 21.1851H72.1807C72.5253 21.1851 72.7961 21.4549 72.7961 21.7982V22.485C72.7961 22.8283 72.5253 23.0981 72.1807 23.0981Z" fill="#338ECD"/>
<path d="M72.1807 27.2502H37.4132C37.0686 27.2502 36.7979 26.9804 36.7979 26.6371V25.9503C36.7979 25.607 37.0686 25.3372 37.4132 25.3372H72.1807C72.5253 25.3372 72.7961 25.607 72.7961 25.9503V26.6371C72.7961 26.9804 72.5253 27.2502 72.1807 27.2502Z" fill="#338ECD"/>
<path d="M43.7026 46.7172H37.4011C36.4411 46.7172 35.678 45.9323 35.678 45.0003V38.7215C35.678 37.765 36.4657 37.0046 37.4011 37.0046H43.7026C44.6626 37.0046 45.4257 37.7895 45.4257 38.7215V45.0003C45.4257 45.9569 44.6626 46.7172 43.7026 46.7172Z" fill="#83C441"/>
<path d="M58.2258 46.7172H51.9242C50.9642 46.7172 50.2012 45.9323 50.2012 45.0003V38.7215C50.2012 37.765 50.9889 37.0046 51.9242 37.0046H58.2258C59.1858 37.0046 59.9489 37.7895 59.9489 38.7215V45.0003C59.9489 45.9569 59.1858 46.7172 58.2258 46.7172Z" fill="#B6D894"/>
<path d="M72.7241 46.7172H66.4225C65.4625 46.7172 64.6995 45.9323 64.6995 45.0003V38.7215C64.6995 37.765 65.4872 37.0046 66.4225 37.0046H72.7241C73.6841 37.0046 74.4472 37.7895 74.4472 38.7215V45.0003C74.4718 45.9569 73.6841 46.7172 72.7241 46.7172Z" fill="#83C441"/>
<path d="M42.3931 5.37353C42.3931 5.91312 41.9747 6.33007 41.4331 6.33007C40.8916 6.33007 40.4731 5.91312 40.4731 5.37353C40.4731 4.83394 40.8916 4.41699 41.4331 4.41699C41.9501 4.41699 42.3931 4.83394 42.3931 5.37353Z" fill="#E7F3F9"/>
<path d="M38.0855 5.37353C38.0855 5.91312 37.6671 6.33007 37.1255 6.33007C36.584 6.33007 36.1655 5.91312 36.1655 5.37353C36.1655 4.83395 36.584 4.41699 37.1255 4.41699C37.6671 4.41699 38.0855 4.83395 38.0855 5.37353Z" fill="#DD6C2F"/>
<path d="M33.8023 5.37353C33.8023 5.91312 33.3839 6.33007 32.8423 6.33007C32.3008 6.33007 31.8823 5.91312 31.8823 5.37353C31.8823 4.83394 32.3008 4.41699 32.8423 4.41699C33.3592 4.41699 33.8023 4.83394 33.8023 5.37353Z" fill="#83C441"/>
<path d="M38.5259 52.395V50.0343C38.5259 49.3945 38.0166 48.8871 37.3745 48.8871H35.9575C35.4482 48.8871 35.0054 48.5562 34.8725 48.0708C34.6289 47.2986 34.319 46.5706 33.9425 45.8867C33.699 45.4454 33.7654 44.8718 34.1197 44.5188L35.0718 43.5702C35.5146 43.1289 35.5146 42.4009 35.0718 41.9596L33.4111 40.305C32.9683 39.8637 32.2376 39.8637 31.7948 40.305L30.8205 41.2757C30.4663 41.6287 29.9127 41.7169 29.4699 41.4743C28.7614 41.0992 28.0085 40.7903 27.2336 40.5477C26.7464 40.4153 26.4143 39.952 26.4143 39.4446V38.187C26.4143 37.5472 25.9051 37.0398 25.2629 37.0398H22.8495C22.2074 37.0398 21.6981 37.5472 21.6981 38.187V39.4446C21.6981 39.952 21.366 40.3932 20.8789 40.5477C20.0596 40.7903 19.2846 41.0992 18.554 41.4963C18.1111 41.739 17.5576 41.6728 17.1812 41.2978L16.3619 40.4815C15.9191 40.0402 15.1884 40.0402 14.7456 40.4815L13.0849 42.1361C12.6421 42.5774 12.6421 43.3054 13.0849 43.7466L13.9042 44.5629C14.2584 44.9159 14.347 45.4675 14.1035 45.9087C13.6828 46.6588 13.3506 47.4531 13.1292 48.2914C12.9964 48.7768 12.5314 49.1298 12.0221 49.1298H10.9815C10.3393 49.1298 9.83008 49.6372 9.83008 50.277V52.6376C9.83008 53.2774 10.3393 53.7849 10.9815 53.7849H12.0885C12.5978 53.7849 13.0406 54.1158 13.1735 54.6012C13.4171 55.4395 13.7713 56.2338 14.192 56.9839C14.4577 57.4251 14.3692 57.9987 14.0149 58.3517L13.2842 59.0798C12.8414 59.521 12.8414 60.249 13.2842 60.6903L14.9448 62.3449C15.3877 62.7862 16.1184 62.7862 16.5612 62.3449L17.3804 61.5286C17.7347 61.1756 18.2883 61.0874 18.7311 61.3301C19.4839 61.7272 20.281 62.0361 21.1224 62.2567C21.6317 62.3891 21.9638 62.8524 21.9638 63.3598V64.4629C21.9638 65.1027 22.4731 65.6101 23.1152 65.6101H25.4844C26.1265 65.6101 26.6357 65.1027 26.6357 64.4629V63.2054C26.6357 62.6979 26.9679 62.2787 27.4328 62.1243C28.23 61.8816 29.0049 61.5286 29.7135 61.1315C30.1563 60.8668 30.732 60.933 31.1084 61.308L31.9719 62.1684C32.4148 62.6097 33.1454 62.6097 33.5883 62.1684L35.2489 60.5138C35.6918 60.0725 35.6918 59.3445 35.2489 58.9033L34.2747 57.9325C33.9204 57.5795 33.8318 57.05 34.0754 56.6088C34.4518 55.9028 34.7397 55.1527 34.9611 54.3805C35.0939 53.8731 35.5589 53.5422 36.0682 53.5422H37.3745C38.0166 53.5422 38.5259 53.0127 38.5259 52.395ZM24.4216 55.3071C21.9417 55.5498 19.8603 53.476 20.1039 51.0051C20.281 49.1739 21.7645 47.6957 23.6244 47.4972C26.1043 47.2545 28.1857 49.3283 27.9421 51.7993C27.765 53.6304 26.2815 55.1306 24.4216 55.3071Z" fill="#DD6C2F"/>
<g clip-path="url(#clip1_441_976)">
<path d="M95.0607 11.0987C94.9437 10.965 94.8004 10.857 94.6397 10.7813C94.479 10.7057 94.3045 10.6639 94.127 10.6588C91.369 10.5867 87.8791 7.63765 85.5718 6.48037C84.1465 5.76774 83.2055 5.29785 82.4989 5.17408C82.3554 5.15317 82.2096 5.15357 82.0663 5.17528C81.3596 5.29906 80.4187 5.76894 78.9946 6.48157C76.6873 7.63765 73.1974 10.5867 70.4394 10.6588C70.2618 10.6642 70.0871 10.706 69.9263 10.7817C69.7655 10.8574 69.6219 10.9652 69.5045 11.0987C69.2611 11.374 69.1355 11.7339 69.1548 12.1009C69.7472 24.146 74.0675 31.6004 81.6481 35.9327C81.8452 36.0444 82.0639 36.1021 82.2814 36.1021C82.4989 36.1021 82.7176 36.0444 82.9159 35.9327C90.4965 31.6004 94.8156 24.146 95.4092 12.1009C95.4296 11.734 95.3043 11.3738 95.0607 11.0987Z" fill="#DD6C2F"/>
<path d="M84.7274 17.7739C84.7274 16.3997 83.6059 15.2822 82.2267 15.2822C80.8476 15.2822 79.7261 16.3997 79.7261 17.7739C79.7261 18.7554 80.2868 19.6011 81.1204 19.9937V26.2606H83.3179V19.9937C84.1515 19.6011 84.7274 18.7554 84.7274 17.7739Z" fill="#E49062"/>
</g>
</g>
<defs>
<clipPath id="clip0_441_976">
<rect width="105" height="66" fill="white"/>
</clipPath>
<clipPath id="clip1_441_976">
<rect width="31.2453" height="31.2453" fill="white" transform="translate(66.6599 5.0564)"/>
</clipPath>
</defs>
</svg>
