<svg width="105" height="66" viewBox="0 0 105 66" fill="none" xmlns="http://www.w3.org/2000/svg">
<rect width="105" height="66" fill="white"/>
<path d="M94.2529 26.7824L79.1892 19.0076" stroke="#70BDF1" stroke-width="0.5" stroke-linecap="round"/>
<path d="M13.1033 6.37329L26.8364 14.3676L14.057 28.2624L30.8419 47.677L55.2562 30.9271L74.3337 28.2624" stroke="#70BDF1" stroke-width="0.5"/>
<path d="M69.8015 3.45776L38.3718 18.1886L61.4203 27.7541L85.9926 19.1451L69.4209 3.63616" stroke="#70BDF1" stroke-width="0.5"/>
<path d="M13.577 6.37329L2.89893 13.565L33.0264 21.5137L5.9498 44.6029L29.9755 56.3367L23.4924 60.3111" stroke="#70BDF1" stroke-width="0.5"/>
<path d="M5.81445 44.2755L14.54 27.9912L36.5437 3.9436L61.203 13.4112L84.5345 19.6598" stroke="#70BDF1" stroke-width="0.5"/>
<path d="M64.1259 60.7972L33.0266 33.6384L58.9745 27.9407L62.7903 6.85938" stroke="#70BDF1" stroke-width="0.5"/>
<path d="M28.6531 55.4519L67.5101 46.1633L36.0486 3.45776" stroke="#70BDF1" stroke-width="0.5"/>
<circle cx="12.9804" cy="6.19158" r="0.971853" fill="#70BDF1"/>
<circle cx="32.9972" cy="33.4872" r="0.971853" fill="#70BDF1"/>
<circle cx="41.186" cy="40.7663" r="0.971853" fill="#70BDF1"/>
<circle cx="26.7096" cy="14.6342" r="0.971853" fill="#70BDF1"/>
<circle cx="36.0041" cy="3.94378" r="0.971853" fill="#70BDF1"/>
<circle cx="62.6677" cy="6.8593" r="0.971853" fill="#70BDF1"/>
<circle cx="69.4709" cy="3.45794" r="0.971853" fill="#70BDF1"/>
<circle cx="92.3093" cy="2.97185" r="0.971853" fill="#70BDF1"/>
<circle cx="78.7035" cy="12.2045" r="0.971853" fill="#70BDF1"/>
<circle cx="99.5983" cy="11.7187" r="0.971853" fill="#70BDF1"/>
<circle cx="94.2533" cy="27.2682" r="0.971853" fill="#70BDF1"/>
<circle cx="74.8158" cy="8.80291" r="0.971853" fill="#70BDF1"/>
<circle cx="102.028" cy="41.36" r="0.971853" fill="#70BDF1"/>
<circle cx="61.6962" cy="13.1762" r="0.971853" fill="#70BDF1"/>
<circle cx="2.97185" cy="13.4704" r="0.971853" fill="#70BDF1"/>
<circle cx="6.30022" cy="44.2756" r="0.971853" fill="#70BDF1"/>
<circle cx="45.1747" cy="15.12" r="0.971853" fill="#70BDF1"/>
<circle cx="38.3715" cy="18.0353" r="0.971853" fill="#70BDF1"/>
<circle cx="22.8217" cy="19.0075" r="0.971853" fill="#70BDF1"/>
<circle cx="53.9213" cy="10.7468" r="0.971853" fill="#70BDF1"/>
<circle cx="32.5407" cy="21.4369" r="0.971853" fill="#70BDF1"/>
<circle cx="14.5612" cy="28.2402" r="0.971853" fill="#70BDF1"/>
<path d="M14.5612 28.2401L2.89893 13.6624" stroke="#70BDF1" stroke-width="0.5"/>
<path d="M38.3717 17.6992L32.9168 21.4371L26.7095 14.1482L38.3717 17.6992Z" stroke="#70BDF1" stroke-width="0.5"/>
<path d="M32.8498 21.9231L33.5124 33.2235L31.0828 48.1631" stroke="#70BDF1" stroke-width="0.5" stroke-linecap="round"/>
<path d="M61.6958 13.0273L92.5443 2.97192L99.504 11.5095L94.2372 26.8772L102.514 41.2962L84.8322 50.5927" stroke="#70BDF1" stroke-width="0.5" stroke-linecap="round"/>
<path d="M61.6958 13.1763L99.598 11.7185" stroke="#70BDF1" stroke-width="0.5" stroke-linecap="round"/>
<circle cx="32.0546" cy="48.6489" r="0.971853" fill="#70BDF1"/>
<path d="M94.2531 26.7822L85.0205 51.0785" stroke="#70BDF1" stroke-width="0.5" stroke-linecap="round"/>
<path d="M54.1956 28.0278H48.4885V30.4999H54.1956V28.0278Z" fill="#1E4058"/>
<path d="M87.8162 28.0278H82.1091V30.4999H87.8162V28.0278Z" fill="#1E4058"/>
<path d="M88.4944 13.063H47.9047C47.1325 13.063 46.5298 13.6857 46.5298 14.4406V27.5936C46.5298 28.3673 47.1513 28.9712 47.9047 28.9712H88.4944C89.2667 28.9712 89.8694 28.3484 89.8694 27.5936V14.4406C89.8694 13.6857 89.2667 13.063 88.4944 13.063Z" fill="#356588"/>
<path d="M61.2774 21.0265H87.8915C88.2682 21.0265 88.5695 20.7246 88.5695 20.3472V14.9501C88.5695 14.5727 88.2682 14.2708 87.8915 14.2708H61.2774C60.9007 14.2708 60.5994 14.5727 60.5994 14.9501V20.3283C60.5994 20.7246 60.9007 21.0265 61.2774 21.0265Z" fill="#338ECD"/>
<path d="M48.0932 21.0265H59.3754C59.6203 21.0265 59.8274 20.819 59.8274 20.5736V14.7237C59.8274 14.4783 59.6203 14.2708 59.3754 14.2708H48.0932C47.8483 14.2708 47.6411 14.4783 47.6411 14.7237V20.5736C47.6411 20.819 47.8483 21.0265 48.0932 21.0265Z" fill="#338ECD"/>
<path d="M85.3864 23.876H82.241C81.8831 23.876 81.6006 23.5929 81.6006 23.2344C81.6006 22.8758 81.8831 22.5928 82.241 22.5928H85.3864C85.7443 22.5928 86.0268 22.8758 86.0268 23.2344C86.0268 23.5929 85.7443 23.876 85.3864 23.876Z" fill="#DD6C2F"/>
<path d="M78.2668 23.876H75.1213C74.7635 23.876 74.481 23.5929 74.481 23.2344C74.481 22.8758 74.7635 22.5928 75.1213 22.5928H78.2668C78.6247 22.5928 78.9072 22.8758 78.9072 23.2344C78.9072 23.5929 78.6247 23.876 78.2668 23.876Z" fill="#DD6C2F"/>
<path d="M70.8269 23.876H67.6814C67.3235 23.876 67.041 23.5929 67.041 23.2344C67.041 22.8758 67.3235 22.5928 67.6814 22.5928H70.8269C71.1847 22.5928 71.4673 22.8758 71.4673 23.2344C71.4861 23.5929 71.1847 23.876 70.8269 23.876Z" fill="#DD6C2F"/>
<path d="M86.1965 17.4599C86.1965 16.9693 85.801 16.573 85.3113 16.573C84.8216 16.573 84.426 16.9693 84.426 17.4599C84.426 17.9506 84.8216 18.3469 85.3113 18.3469C85.801 18.3469 86.1965 17.9506 86.1965 17.4599Z" fill="#83C441"/>
<path d="M82.0527 17.4599C82.0527 16.9693 81.6572 16.573 81.1675 16.573C80.6778 16.573 80.2822 16.9693 80.2822 17.4599C80.2822 17.9506 80.6778 18.3469 81.1675 18.3469C81.6572 18.3469 82.0527 17.9506 82.0527 17.4599Z" fill="#83C441"/>
<path d="M77.2688 17.4599C77.2688 16.9693 76.8733 16.573 76.3835 16.573C75.8938 16.573 75.4983 16.9693 75.4983 17.4599C75.4983 17.9506 75.8938 18.3469 76.3835 18.3469C76.8733 18.3469 77.2688 17.9506 77.2688 17.4599Z" fill="#83C441"/>
<path d="M73.1248 17.4599C73.1248 16.9693 72.7292 16.573 72.2395 16.573C71.7498 16.573 71.3542 16.9693 71.3542 17.4599C71.3542 17.9506 71.7498 18.3469 72.2395 18.3469C72.7292 18.3469 73.1248 17.9506 73.1248 17.4599Z" fill="#83C441"/>
<path d="M55.1562 16.0637C55.1562 15.573 54.7607 15.1768 54.271 15.1768C53.7813 15.1768 53.3857 15.573 53.3857 16.0637C53.3857 16.5543 53.7813 16.9506 54.271 16.9506C54.7607 16.9506 55.1562 16.5543 55.1562 16.0637Z" fill="white"/>
<path d="M51.5398 16.0637C51.5398 15.573 51.1442 15.1768 50.6545 15.1768C50.1648 15.1768 49.7693 15.573 49.7693 16.0637C49.7693 16.5543 50.1648 16.9506 50.6545 16.9506C51.1254 16.9506 51.5398 16.5543 51.5398 16.0637Z" fill="white"/>
<path d="M55.1562 19.0261C55.1562 18.5354 54.7607 18.1392 54.271 18.1392C53.7813 18.1392 53.3857 18.5354 53.3857 19.0261C53.3857 19.5167 53.7813 19.913 54.271 19.913C54.7607 19.913 55.1562 19.5167 55.1562 19.0261Z" fill="#1E4058"/>
<path d="M51.5398 19.0261C51.5398 18.5354 51.1442 18.1392 50.6545 18.1392C50.1648 18.1392 49.7693 18.5354 49.7693 19.0261C49.7693 19.5167 50.1648 19.913 50.6545 19.913C51.1254 19.913 51.5398 19.5167 51.5398 19.0261Z" fill="#1E4058"/>
<path d="M54.1956 45.4268H48.4885V47.8989H54.1956V45.4268Z" fill="#1E4058"/>
<path d="M87.8162 45.4268H82.1091V47.8989H87.8162V45.4268Z" fill="#1E4058"/>
<path d="M88.4944 30.4619H47.9047C47.1325 30.4619 46.5298 31.0847 46.5298 31.8395V44.9925C46.5298 45.7662 47.1513 46.3701 47.9047 46.3701H88.4944C89.2667 46.3701 89.8694 45.7474 89.8694 44.9925V31.8395C89.8694 31.0658 89.2667 30.4619 88.4944 30.4619Z" fill="#356588"/>
<path d="M61.2774 38.4066H87.8915C88.2682 38.4066 88.5695 38.1047 88.5695 37.7272V32.349C88.5695 31.9716 88.2682 31.6697 87.8915 31.6697H61.2774C60.9007 31.6697 60.5994 31.9716 60.5994 32.349V37.7272C60.5994 38.1047 60.9007 38.4066 61.2774 38.4066Z" fill="#338ECD"/>
<path d="M48.0932 38.4067H59.3754C59.6203 38.4067 59.8274 38.1991 59.8274 37.9538V32.1038C59.8274 31.8585 59.6203 31.6509 59.3754 31.6509H48.0932C47.8483 31.6509 47.6411 31.8585 47.6411 32.1038V37.9538C47.6411 38.218 47.8483 38.4067 48.0932 38.4067Z" fill="#338ECD"/>
<path d="M85.3864 41.2749H82.241C81.8831 41.2749 81.6006 40.9919 81.6006 40.6333C81.6006 40.2748 81.8831 39.9917 82.241 39.9917H85.3864C85.7443 39.9917 86.0268 40.2748 86.0268 40.6333C86.0268 40.973 85.7443 41.2749 85.3864 41.2749Z" fill="#DD6C2F"/>
<path d="M78.2668 41.2749H75.1213C74.7635 41.2749 74.481 40.9919 74.481 40.6333C74.481 40.2748 74.7635 39.9917 75.1213 39.9917H78.2668C78.6247 39.9917 78.9072 40.2748 78.9072 40.6333C78.9072 40.973 78.6247 41.2749 78.2668 41.2749Z" fill="#DD6C2F"/>
<path d="M70.8269 41.2749H67.6814C67.3235 41.2749 67.041 40.9919 67.041 40.6333C67.041 40.2748 67.3235 39.9917 67.6814 39.9917H70.8269C71.1847 39.9917 71.4673 40.2748 71.4673 40.6333C71.4861 40.973 71.1847 41.2749 70.8269 41.2749Z" fill="#DD6C2F"/>
<path d="M86.1965 34.8398C86.1965 34.3492 85.801 33.9529 85.3113 33.9529C84.8216 33.9529 84.426 34.3492 84.426 34.8398C84.426 35.3305 84.8216 35.7267 85.3113 35.7267C85.801 35.7267 86.1965 35.3305 86.1965 34.8398Z" fill="#83C441"/>
<path d="M82.0527 34.8398C82.0527 34.3492 81.6572 33.9529 81.1675 33.9529C80.6778 33.9529 80.2822 34.3492 80.2822 34.8398C80.2822 35.3305 80.6778 35.7267 81.1675 35.7267C81.6572 35.7267 82.0527 35.3305 82.0527 34.8398Z" fill="#83C441"/>
<path d="M77.2688 34.8398C77.2688 34.3492 76.8733 33.9529 76.3835 33.9529C75.8938 33.9529 75.4983 34.3492 75.4983 34.8398C75.4983 35.3305 75.8938 35.7267 76.3835 35.7267C76.8733 35.7267 77.2688 35.3305 77.2688 34.8398Z" fill="#83C441"/>
<path d="M73.1248 34.8398C73.1248 34.3492 72.7292 33.9529 72.2395 33.9529C71.7498 33.9529 71.3542 34.3492 71.3542 34.8398C71.3542 35.3305 71.7498 35.7267 72.2395 35.7267C72.7292 35.7267 73.1248 35.3305 73.1248 34.8398Z" fill="#83C441"/>
<path d="M55.1562 33.4624C55.1562 32.9717 54.7607 32.5754 54.271 32.5754C53.7813 32.5754 53.3857 32.9717 53.3857 33.4624C53.3857 33.953 53.7813 34.3493 54.271 34.3493C54.7607 34.3493 55.1562 33.953 55.1562 33.4624Z" fill="white"/>
<path d="M51.5398 33.4624C51.5398 32.9717 51.1442 32.5754 50.6545 32.5754C50.1648 32.5754 49.7693 32.9717 49.7693 33.4624C49.7693 33.953 50.1648 34.3493 50.6545 34.3493C51.1254 34.3493 51.5398 33.953 51.5398 33.4624Z" fill="white"/>
<path d="M55.1562 36.425C55.1562 35.9344 54.7607 35.5381 54.271 35.5381C53.7813 35.5381 53.3857 35.9344 53.3857 36.425C53.3857 36.9157 53.7813 37.312 54.271 37.312C54.7607 37.312 55.1562 36.9157 55.1562 36.425Z" fill="#1E4058"/>
<path d="M51.5398 36.425C51.5398 35.9344 51.1442 35.5381 50.6545 35.5381C50.1648 35.5381 49.7693 35.9344 49.7693 36.425C49.7693 36.9157 50.1648 37.312 50.6545 37.312C51.1254 37.312 51.5398 36.9157 51.5398 36.425Z" fill="#1E4058"/>
<path d="M54.1956 62.6934H48.4885V65.1655H54.1956V62.6934Z" fill="#1E4058"/>
<path d="M87.8162 62.6934H82.1091V65.1655H87.8162V62.6934Z" fill="#1E4058"/>
<path d="M88.4944 47.71H47.9047C47.1325 47.71 46.5298 48.3327 46.5298 49.0875V62.2406C46.5298 63.0143 47.1513 63.6181 47.9047 63.6181H88.4944C89.2667 63.6181 89.8694 62.9954 89.8694 62.2406V49.1064C89.8694 48.3327 89.2667 47.71 88.4944 47.71Z" fill="#356588"/>
<path d="M61.2774 55.6734H87.8915C88.2682 55.6734 88.5695 55.3715 88.5695 54.9941V49.6159C88.5695 49.2385 88.2682 48.9365 87.8915 48.9365H61.2774C60.9007 48.9365 60.5994 49.2385 60.5994 49.6159V54.9941C60.5994 55.3715 60.9007 55.6734 61.2774 55.6734Z" fill="#338ECD"/>
<path d="M48.0932 55.6735H59.3754C59.6203 55.6735 59.8274 55.4659 59.8274 55.2206V49.3706C59.8274 49.1253 59.6203 48.9177 59.3754 48.9177H48.0932C47.8483 48.9177 47.6411 49.1253 47.6411 49.3706V55.2206C47.6411 55.4848 47.8483 55.6735 48.0932 55.6735Z" fill="#338ECD"/>
<path d="M85.3864 58.5418H82.241C81.8831 58.5418 81.6006 58.2587 81.6006 57.9002C81.6006 57.5416 81.8831 57.2585 82.241 57.2585H85.3864C85.7443 57.2585 86.0268 57.5416 86.0268 57.9002C86.0268 58.2398 85.7443 58.5418 85.3864 58.5418Z" fill="#DD6C2F"/>
<path d="M78.2668 58.5418H75.1213C74.7635 58.5418 74.481 58.2587 74.481 57.9002C74.481 57.5416 74.7635 57.2585 75.1213 57.2585H78.2668C78.6247 57.2585 78.9072 57.5416 78.9072 57.9002C78.9072 58.2398 78.6247 58.5418 78.2668 58.5418Z" fill="#DD6C2F"/>
<path d="M70.8269 58.5418H67.6814C67.3235 58.5418 67.041 58.2587 67.041 57.9002C67.041 57.5416 67.3235 57.2585 67.6814 57.2585H70.8269C71.1847 57.2585 71.4673 57.5416 71.4673 57.9002C71.4861 58.2398 71.1847 58.5418 70.8269 58.5418Z" fill="#DD6C2F"/>
<path d="M86.1965 52.1069C86.1965 51.6163 85.801 51.22 85.3113 51.22C84.8216 51.22 84.426 51.6163 84.426 52.1069C84.426 52.5975 84.8216 52.9938 85.3113 52.9938C85.801 52.9938 86.1965 52.5975 86.1965 52.1069Z" fill="#83C441"/>
<path d="M82.0527 52.1069C82.0527 51.6163 81.6572 51.22 81.1675 51.22C80.6778 51.22 80.2822 51.6163 80.2822 52.1069C80.2822 52.5975 80.6778 52.9938 81.1675 52.9938C81.6572 52.9938 82.0527 52.5975 82.0527 52.1069Z" fill="#83C441"/>
<path d="M77.2688 52.1069C77.2688 51.6163 76.8733 51.22 76.3835 51.22C75.8938 51.22 75.4983 51.6163 75.4983 52.1069C75.4983 52.5975 75.8938 52.9938 76.3835 52.9938C76.8733 52.9938 77.2688 52.5975 77.2688 52.1069Z" fill="#83C441"/>
<path d="M73.1248 52.1069C73.1248 51.6163 72.7292 51.22 72.2395 51.22C71.7498 51.22 71.3542 51.6163 71.3542 52.1069C71.3542 52.5975 71.7498 52.9938 72.2395 52.9938C72.7292 52.9938 73.1248 52.5975 73.1248 52.1069Z" fill="#83C441"/>
<path d="M55.1562 50.7295C55.1562 50.2388 54.7607 49.8425 54.271 49.8425C53.7813 49.8425 53.3857 50.2388 53.3857 50.7295C53.3857 51.2201 53.7813 51.6164 54.271 51.6164C54.7607 51.6164 55.1562 51.2201 55.1562 50.7295Z" fill="white"/>
<path d="M51.5398 50.7295C51.5398 50.2388 51.1442 49.8425 50.6545 49.8425C50.1648 49.8425 49.7693 50.2388 49.7693 50.7295C49.7693 51.2201 50.1648 51.6164 50.6545 51.6164C51.1254 51.6164 51.5398 51.2201 51.5398 50.7295Z" fill="white"/>
<path d="M55.1562 53.6921C55.1562 53.2015 54.7607 52.8052 54.271 52.8052C53.7813 52.8052 53.3857 53.2015 53.3857 53.6921C53.3857 54.1828 53.7813 54.579 54.271 54.579C54.7607 54.579 55.1562 54.1828 55.1562 53.6921Z" fill="#1E4058"/>
<path d="M51.5398 53.6921C51.5398 53.2015 51.1442 52.8052 50.6545 52.8052C50.1648 52.8052 49.7693 53.2015 49.7693 53.6921C49.7693 54.1828 50.1648 54.579 50.6545 54.579C51.1254 54.579 51.5398 54.1828 51.5398 53.6921Z" fill="#1E4058"/>
<path d="M23.9888 58.0849C29.5228 58.0849 34.0091 57.2992 34.0091 56.3299C34.0091 55.3607 29.5228 54.575 23.9888 54.575C18.4547 54.575 13.9685 55.3607 13.9685 56.3299C13.9685 57.2992 18.4547 58.0849 23.9888 58.0849Z" fill="#356588"/>
<path d="M23.9888 64.8408C29.5228 64.8408 34.0091 63.9114 34.0091 62.765C34.0091 61.6186 29.5228 60.6892 23.9888 60.6892C18.4547 60.6892 13.9685 61.6186 13.9685 62.765C13.9685 63.9114 18.4547 64.8408 23.9888 64.8408Z" fill="#356588"/>
<path d="M34.0091 56.2922H13.9685V62.8782H34.0091V56.2922Z" fill="#356588"/>
<path d="M23.9888 57.8774C29.3252 57.8774 33.6513 57.193 33.6513 56.3489C33.6513 55.5047 29.3252 54.8203 23.9888 54.8203C18.6524 54.8203 14.3264 55.5047 14.3264 56.3489C14.3264 57.193 18.6524 57.8774 23.9888 57.8774Z" fill="#338ECD"/>
<path d="M33.6513 54.6128H14.3264V56.4244H33.6513V54.6128Z" fill="#338ECD"/>
<path d="M23.9888 50.3103C29.5228 50.3103 34.0091 49.5245 34.0091 48.5553C34.0091 47.586 29.5228 46.8003 23.9888 46.8003C18.4547 46.8003 13.9685 47.586 13.9685 48.5553C13.9685 49.5245 18.4547 50.3103 23.9888 50.3103Z" fill="#356588"/>
<path d="M23.9888 57.0662C29.5228 57.0662 34.0091 56.1368 34.0091 54.9904C34.0091 53.8439 29.5228 52.9146 23.9888 52.9146C18.4547 52.9146 13.9685 53.8439 13.9685 54.9904C13.9685 56.1368 18.4547 57.0662 23.9888 57.0662Z" fill="#356588"/>
<path d="M34.0091 48.5176H13.9685V55.1035H34.0091V48.5176Z" fill="#356588"/>
<path d="M23.9888 50.1027C29.3252 50.1027 33.6513 49.4184 33.6513 48.5742C33.6513 47.73 29.3252 47.0457 23.9888 47.0457C18.6524 47.0457 14.3264 47.73 14.3264 48.5742C14.3264 49.4184 18.6524 50.1027 23.9888 50.1027Z" fill="#338ECD"/>
<path d="M33.6513 46.8381H14.3264V48.6497H33.6513V46.8381Z" fill="#338ECD"/>
<path d="M23.9888 42.2336C29.5228 42.2336 34.0091 41.4479 34.0091 40.4786C34.0091 39.5094 29.5228 38.7236 23.9888 38.7236C18.4547 38.7236 13.9685 39.5094 13.9685 40.4786C13.9685 41.4479 18.4547 42.2336 23.9888 42.2336Z" fill="#356588"/>
<path d="M23.9888 48.9705C29.5228 48.9705 34.0091 48.0411 34.0091 46.8946C34.0091 45.7482 29.5228 44.8188 23.9888 44.8188C18.4547 44.8188 13.9685 45.7482 13.9685 46.8946C13.9685 48.0411 18.4547 48.9705 23.9888 48.9705Z" fill="#356588"/>
<path d="M34.0091 40.4219H13.9685V46.989H34.0091V40.4219Z" fill="#356588"/>
<path d="M23.9888 42.007C29.3252 42.007 33.6513 41.3227 33.6513 40.4785C33.6513 39.6343 29.3252 38.95 23.9888 38.95C18.6524 38.95 14.3264 39.6343 14.3264 40.4785C14.3264 41.3227 18.6524 42.007 23.9888 42.007Z" fill="#338ECD"/>
<path d="M27.2473 47.0454C27.2473 46.8001 27.0402 46.5925 26.7953 46.5925C26.5504 46.5925 26.3433 46.8001 26.3433 47.0454C26.3433 47.2908 26.5504 47.4983 26.7953 47.4983C27.0402 47.4983 27.2473 47.2908 27.2473 47.0454Z" fill="#DD6C2F"/>
<path d="M25.2508 47.0454C25.2508 46.8001 25.0436 46.5925 24.7987 46.5925C24.5539 46.5925 24.3467 46.8001 24.3467 47.0454C24.3467 47.2908 24.5539 47.4983 24.7987 47.4983C25.0436 47.4983 25.2508 47.2908 25.2508 47.0454Z" fill="#83C441"/>
<path d="M23.3863 47.0454C23.3863 46.8001 23.1791 46.5925 22.9342 46.5925C22.6894 46.5925 22.4822 46.8001 22.4822 47.0454C22.4822 47.2908 22.6894 47.4983 22.9342 47.4983C23.1979 47.4983 23.3863 47.2908 23.3863 47.0454Z" fill="white"/>
<path d="M27.2473 55.4431C27.2473 55.1978 27.0402 54.9902 26.7953 54.9902C26.5504 54.9902 26.3433 55.1978 26.3433 55.4431C26.3433 55.6885 26.5504 55.896 26.7953 55.896C27.0402 55.896 27.2473 55.6885 27.2473 55.4431Z" fill="#DD6C2F"/>
<path d="M25.2508 55.4431C25.2508 55.1978 25.0436 54.9902 24.7987 54.9902C24.5539 54.9902 24.3467 55.1978 24.3467 55.4431C24.3467 55.6885 24.5539 55.896 24.7987 55.896C25.0436 55.896 25.2508 55.6885 25.2508 55.4431Z" fill="#83C441"/>
<path d="M23.3863 55.4431C23.3863 55.1978 23.1791 54.9902 22.9342 54.9902C22.6894 54.9902 22.4822 55.1978 22.4822 55.4431C22.4822 55.6885 22.6894 55.896 22.9342 55.896C23.1979 55.896 23.3863 55.6885 23.3863 55.4431Z" fill="white"/>
<path d="M27.2473 63.3125C27.2473 63.0672 27.0402 62.8596 26.7953 62.8596C26.5504 62.8596 26.3433 63.0672 26.3433 63.3125C26.3433 63.5578 26.5504 63.7654 26.7953 63.7654C27.0402 63.7466 27.2473 63.5578 27.2473 63.3125Z" fill="#DD6C2F"/>
<path d="M25.2508 63.3125C25.2508 63.0672 25.0436 62.8596 24.7987 62.8596C24.5539 62.8596 24.3467 63.0672 24.3467 63.3125C24.3467 63.5578 24.5539 63.7654 24.7987 63.7654C25.0436 63.7466 25.2508 63.5578 25.2508 63.3125Z" fill="#83C441"/>
<path d="M23.3863 63.3125C23.3863 63.0672 23.1791 62.8596 22.9342 62.8596C22.6894 62.8596 22.4822 63.0672 22.4822 63.3125C22.4822 63.5578 22.6894 63.7654 22.9342 63.7654C23.1979 63.7466 23.3863 63.5578 23.3863 63.3125Z" fill="white"/>
</svg>
