<svg width="105" height="66" viewBox="0 0 105 66" fill="none" xmlns="http://www.w3.org/2000/svg">
<rect width="105" height="66" fill="white"/>
<path d="M25.2096 33.3964L13.5908 18.1392" stroke="#338ECD" stroke-dasharray="2 2"/>
<path d="M42.4105 33.6095L37.0798 15.1877" stroke="#338ECD" stroke-dasharray="2 2"/>
<path d="M72.9655 35.3206L83.6934 19.4243" stroke="#338ECD" stroke-dasharray="2 2"/>
<path d="M58.6264 29.7846L59.186 10.6152" stroke="#338ECD" stroke-dasharray="2 2"/>
<circle cx="16.1498" cy="20.2711" r="6.92867" transform="rotate(1.85857 16.1498 20.2711)" fill="#338ECD"/>
<circle cx="58.1658" cy="8.88483" r="6.88483" fill="#338ECD"/>
<ellipse cx="36.9815" cy="13.6512" rx="6.88483" ry="7.06136" fill="#338ECD"/>
<circle cx="83.2335" cy="19.8299" r="6.88483" fill="#338ECD"/>
<ellipse cx="81.1103" cy="49.838" rx="15.1151" ry="15.0084" fill="#E7F3F9"/>
<ellipse cx="25.6879" cy="49.838" rx="15.1151" ry="15.0084" fill="#E7F3F9"/>
<ellipse cx="57.3878" cy="36.8042" rx="18.684" ry="18.563" fill="#E7F3F9"/>
<ellipse cx="38.4938" cy="43.1236" rx="18.684" ry="18.563" fill="#E7F3F9"/>
<rect x="23.1687" y="49.4429" width="59.2009" height="15.4033" fill="#E7F3F9"/>
<path d="M54.3423 48.0924V46.1496C54.3423 45.6231 53.9232 45.2055 53.3947 45.2055H52.2285C51.8094 45.2055 51.445 44.9332 51.3357 44.5337C51.1352 43.8983 50.8801 43.2991 50.5703 42.7363C50.3699 42.3731 50.4246 41.9011 50.7161 41.6106L51.4997 40.8298C51.8641 40.4667 51.8641 39.8675 51.4997 39.5044L50.133 38.1427C49.7686 37.7796 49.1672 37.7796 48.8028 38.1427L48.001 38.9416C47.7095 39.2321 47.2539 39.3047 46.8895 39.105C46.3064 38.7963 45.6868 38.5421 45.0491 38.3424C44.6482 38.2335 44.3748 37.8522 44.3748 37.4346V36.3997C44.3748 35.8732 43.9557 35.4556 43.4273 35.4556H41.4411C40.9127 35.4556 40.4936 35.8732 40.4936 36.3997V37.4346C40.4936 37.8522 40.2202 38.2153 39.8193 38.3424C39.1451 38.5421 38.5074 38.7963 37.906 39.1231C37.5416 39.3229 37.086 39.2684 36.7763 38.9597L36.1021 38.288C35.7376 37.9248 35.1363 37.9248 34.7718 38.288L33.4052 39.6497C33.0408 40.0128 33.0408 40.612 33.4052 40.9751L34.0794 41.6469C34.371 41.9374 34.4439 42.3913 34.2434 42.7544C33.8972 43.3717 33.6239 44.0253 33.4416 44.7153C33.3323 45.1147 32.9496 45.4052 32.5305 45.4052H31.6741C31.1457 45.4052 30.7266 45.8228 30.7266 46.3494V48.2921C30.7266 48.8186 31.1457 49.2362 31.6741 49.2362H32.5852C33.0043 49.2362 33.3688 49.5086 33.4781 49.908C33.6785 50.5979 33.9701 51.2516 34.3163 51.8689C34.535 52.232 34.4621 52.7041 34.1705 52.9946L33.5692 53.5937C33.2048 53.9569 33.2048 54.556 33.5692 54.9191L34.9358 56.2809C35.3003 56.644 35.9016 56.644 36.2661 56.2809L36.9403 55.6091C37.2318 55.3186 37.6874 55.246 38.0518 55.4457C38.6714 55.7725 39.3274 56.0267 40.0198 56.2082C40.4389 56.3172 40.7122 56.6985 40.7122 57.1161V58.0239C40.7122 58.5504 41.1313 58.968 41.6598 58.968H43.6095C44.138 58.968 44.5571 58.5504 44.5571 58.0239V56.989C44.5571 56.5714 44.8304 56.2264 45.2131 56.0993C45.8691 55.8996 46.5068 55.6091 47.0899 55.2823C47.4544 55.0644 47.9281 55.1189 48.2379 55.4275L48.9486 56.1356C49.313 56.4987 49.9143 56.4987 50.2788 56.1356L51.6454 54.7739C52.0099 54.4108 52.0099 53.8116 51.6454 53.4485L50.8437 52.6496C50.5521 52.3591 50.4792 51.9234 50.6797 51.5602C50.9894 50.9792 51.2263 50.3619 51.4085 49.7264C51.5179 49.3088 51.9005 49.0365 52.3196 49.0365H53.3947C53.9232 49.0365 54.3423 48.6007 54.3423 48.0924ZM42.7349 50.489C40.694 50.6887 38.9811 48.982 39.1816 46.9485C39.3274 45.4415 40.5482 44.2251 42.0789 44.0617C44.1197 43.8619 45.8326 45.5686 45.6322 47.6021C45.4864 49.1091 44.2655 50.3437 42.7349 50.489Z" fill="#DD6C2F"/>
<path d="M66.4945 38.8664V37.8256C66.4945 37.5436 66.27 37.3199 65.9869 37.3199H65.3622C65.1377 37.3199 64.9424 37.174 64.8838 36.96C64.7765 36.6195 64.6398 36.2986 64.4739 35.997C64.3665 35.8025 64.3958 35.5496 64.5519 35.394L64.9717 34.9758C65.1669 34.7812 65.1669 34.4602 64.9717 34.2657L64.2396 33.5362C64.0443 33.3417 63.7222 33.3417 63.527 33.5362L63.0974 33.9642C62.9413 34.1198 62.6972 34.1587 62.502 34.0517C62.1896 33.8864 61.8577 33.7502 61.516 33.6432C61.3013 33.5848 61.1548 33.3806 61.1548 33.1569V32.6025C61.1548 32.3204 60.9303 32.0967 60.6472 32.0967H59.5832C59.3001 32.0967 59.0756 32.3204 59.0756 32.6025V33.1569C59.0756 33.3806 58.9292 33.5751 58.7144 33.6432C58.3532 33.7502 58.0115 33.8864 57.6894 34.0615C57.4942 34.1684 57.2501 34.1393 57.0842 33.9739L56.723 33.614C56.5278 33.4195 56.2056 33.4195 56.0104 33.614L55.2782 34.3435C55.083 34.5381 55.083 34.859 55.2782 35.0536L55.6394 35.4135C55.7956 35.5691 55.8347 35.8122 55.7273 36.0068C55.5418 36.3375 55.3954 36.6876 55.2978 37.0572C55.2392 37.2712 55.0342 37.4269 54.8097 37.4269H54.3509C54.0678 37.4269 53.8433 37.6506 53.8433 37.9326V38.9734C53.8433 39.2555 54.0678 39.4792 54.3509 39.4792H54.839C55.0635 39.4792 55.2587 39.6251 55.3173 39.8391C55.4247 40.2087 55.5809 40.5588 55.7663 40.8895C55.8835 41.0841 55.8444 41.3369 55.6882 41.4926L55.3661 41.8136C55.1709 42.0081 55.1709 42.3291 55.3661 42.5236L56.0982 43.2531C56.2935 43.4476 56.6156 43.4476 56.8108 43.2531L57.172 42.8932C57.3282 42.7376 57.5723 42.6987 57.7675 42.8057C58.0994 42.9807 58.4508 43.1169 58.8218 43.2142C59.0463 43.2725 59.1927 43.4768 59.1927 43.7005V44.1868C59.1927 44.4689 59.4172 44.6926 59.7003 44.6926H60.7448C61.0279 44.6926 61.2525 44.4689 61.2525 44.1868V43.6324C61.2525 43.4087 61.3989 43.2239 61.6039 43.1558C61.9553 43.0488 62.297 42.8932 62.6094 42.7181C62.8046 42.6014 63.0584 42.6306 63.2243 42.7959L63.6051 43.1753C63.8003 43.3698 64.1224 43.3698 64.3177 43.1753L65.0498 42.4458C65.245 42.2512 65.245 41.9303 65.0498 41.7357L64.6203 41.3078C64.4641 41.1521 64.425 40.9187 64.5324 40.7242C64.6984 40.4129 64.8253 40.0822 64.9229 39.7418C64.9815 39.5181 65.1865 39.3722 65.411 39.3722H65.9869C66.27 39.3722 66.4945 39.1387 66.4945 38.8664ZM60.2763 40.1503C59.183 40.2573 58.2654 39.343 58.3727 38.2536C58.4508 37.4463 59.1049 36.7946 59.9249 36.7071C61.0182 36.6001 61.9358 37.5144 61.8284 38.6038C61.7503 39.4111 61.0963 40.0725 60.2763 40.1503Z" fill="#E57D45"/>
<g clip-path="url(#clip0_441_841)">
<path d="M19.9004 22.5592L12.2586 22.3112C12.2338 22.3104 12.1849 22.2851 12.1864 22.2378L12.3363 17.6189C12.3371 17.5952 12.3882 17.5495 12.4131 17.5503L20.03 17.7974C20.0797 17.799 20.1029 17.8472 20.1022 17.8709L19.9531 22.4661C19.9756 22.5379 19.9252 22.56 19.9004 22.5592ZM12.3632 22.1486L19.8313 22.391L19.975 17.9616L12.5069 17.7193L12.3632 22.1486Z" fill="white"/>
<mask id="path-17-inside-1_441_841" fill="white">
<path d="M16.1594 19.9718C16.1346 19.971 16.1346 19.971 16.1098 19.9702L12.3829 17.7153C12.3348 17.6663 12.3355 17.6426 12.3371 17.5952C12.3627 17.5723 12.3882 17.5495 12.4131 17.5503L20.03 17.7974C20.0797 17.799 20.1037 17.8235 20.1029 17.8472C20.1022 17.8709 20.1006 17.9183 20.0502 17.9404L16.1602 19.9481C16.1842 19.9726 16.1594 19.9718 16.1594 19.9718ZM12.7302 17.7265L16.1648 19.806L19.7517 17.9544L12.7302 17.7265V17.7265Z"/>
</mask>
<path d="M16.1594 19.9718C16.1346 19.971 16.1346 19.971 16.1098 19.9702L12.3829 17.7153C12.3348 17.6663 12.3355 17.6426 12.3371 17.5952C12.3627 17.5723 12.3882 17.5495 12.4131 17.5503L20.03 17.7974C20.0797 17.799 20.1037 17.8235 20.1029 17.8472C20.1022 17.8709 20.1006 17.9183 20.0502 17.9404L16.1602 19.9481C16.1842 19.9726 16.1594 19.9718 16.1594 19.9718ZM12.7302 17.7265L16.1648 19.806L19.7517 17.9544L12.7302 17.7265V17.7265Z" fill="white"/>
<path d="M16.1594 19.9718L16.5487 7.97815L16.5486 7.97814L16.1594 19.9718ZM16.1098 19.9702L9.89777 30.2372L12.5833 31.8621L15.7206 31.9639L16.1098 19.9702ZM12.3829 17.7153L3.81944 26.1217L4.87801 27.2L6.17086 27.9823L12.3829 17.7153ZM12.3371 17.5952L4.33667 8.65132L0.509918 12.0744L0.343399 17.206L12.3371 17.5952ZM20.0502 17.9404L15.2349 6.94889L14.8855 7.10196L14.5465 7.27692L20.0502 17.9404ZM16.1602 19.9481L10.6564 9.2847L-3.79924 16.7457L7.59674 28.3546L16.1602 19.9481ZM16.1648 19.806L9.94967 30.0711L15.698 33.5515L21.6692 30.4691L16.1648 19.806ZM19.7517 17.9544L25.2562 28.6175L66.248 7.45685L20.1409 5.9607L19.7517 17.9544ZM16.5486 7.97814C16.5485 7.97814 16.5485 7.97814 16.5484 7.97814C16.5484 7.97814 16.5483 7.97814 16.5483 7.97813C16.5482 7.97813 16.5482 7.97813 16.5482 7.97813C16.5481 7.97813 16.5481 7.97813 16.548 7.97812C16.548 7.97812 16.5479 7.97812 16.5479 7.97812C16.5478 7.97812 16.5478 7.97812 16.5477 7.97812C16.5477 7.97811 16.5476 7.97811 16.5476 7.97811C16.5475 7.97811 16.5475 7.97811 16.5474 7.97811C16.5474 7.9781 16.5473 7.9781 16.5473 7.9781C16.5473 7.9781 16.5472 7.9781 16.5472 7.9781C16.5471 7.9781 16.5471 7.97809 16.547 7.97809C16.547 7.97809 16.5469 7.97809 16.5469 7.97809C16.5468 7.97809 16.5468 7.97808 16.5467 7.97808C16.5467 7.97808 16.5467 7.97808 16.5466 7.97808C16.5466 7.97808 16.5465 7.97808 16.5465 7.97807C16.5464 7.97807 16.5464 7.97807 16.5463 7.97807C16.5463 7.97807 16.5462 7.97807 16.5462 7.97807C16.5462 7.97806 16.5461 7.97806 16.5461 7.97806C16.546 7.97806 16.546 7.97806 16.5459 7.97806C16.5459 7.97806 16.5458 7.97805 16.5458 7.97805C16.5457 7.97805 16.5457 7.97805 16.5457 7.97805C16.5456 7.97805 16.5456 7.97805 16.5455 7.97804C16.5455 7.97804 16.5454 7.97804 16.5454 7.97804C16.5453 7.97804 16.5453 7.97804 16.5453 7.97804C16.5452 7.97803 16.5452 7.97803 16.5451 7.97803C16.5451 7.97803 16.545 7.97803 16.545 7.97803C16.5449 7.97803 16.5449 7.97802 16.5449 7.97802C16.5448 7.97802 16.5448 7.97802 16.5447 7.97802C16.5447 7.97802 16.5446 7.97802 16.5446 7.97801C16.5446 7.97801 16.5445 7.97801 16.5445 7.97801C16.5444 7.97801 16.5444 7.97801 16.5443 7.97801C16.5443 7.978 16.5443 7.978 16.5442 7.978C16.5442 7.978 16.5441 7.978 16.5441 7.978C16.544 7.978 16.544 7.97799 16.544 7.97799C16.5439 7.97799 16.5439 7.97799 16.5438 7.97799C16.5438 7.97799 16.5437 7.97799 16.5437 7.97798C16.5437 7.97798 16.5436 7.97798 16.5436 7.97798C16.5435 7.97798 16.5435 7.97798 16.5435 7.97798C16.5434 7.97798 16.5434 7.97797 16.5433 7.97797C16.5433 7.97797 16.5432 7.97797 16.5432 7.97797C16.5432 7.97797 16.5431 7.97797 16.5431 7.97796C16.543 7.97796 16.543 7.97796 16.543 7.97796C16.5429 7.97796 16.5429 7.97796 16.5428 7.97796C16.5428 7.97796 16.5428 7.97795 16.5427 7.97795C16.5427 7.97795 16.5426 7.97795 16.5426 7.97795C16.5425 7.97795 16.5425 7.97795 16.5425 7.97794C16.5424 7.97794 16.5424 7.97794 16.5423 7.97794C16.5423 7.97794 16.5423 7.97794 16.5422 7.97794C16.5422 7.97794 16.5421 7.97793 16.5421 7.97793C16.5421 7.97793 16.542 7.97793 16.542 7.97793C16.5419 7.97793 16.5419 7.97793 16.5419 7.97792C16.5418 7.97792 16.5418 7.97792 16.5417 7.97792C16.5417 7.97792 16.5417 7.97792 16.5416 7.97792C16.5416 7.97792 16.5415 7.97791 16.5415 7.97791C16.5415 7.97791 16.5414 7.97791 16.5414 7.97791C16.5414 7.97791 16.5413 7.97791 16.5413 7.97791C16.5412 7.9779 16.5412 7.9779 16.5412 7.9779C16.5411 7.9779 16.5411 7.9779 16.541 7.9779C16.541 7.9779 16.541 7.9779 16.5409 7.97789C16.5409 7.97789 16.5408 7.97789 16.5408 7.97789C16.5408 7.97789 16.5407 7.97789 16.5407 7.97789C16.5407 7.97789 16.5406 7.97788 16.5406 7.97788C16.5405 7.97788 16.5405 7.97788 16.5405 7.97788C16.5404 7.97788 16.5404 7.97788 16.5403 7.97788C16.5403 7.97787 16.5403 7.97787 16.5402 7.97787C16.5402 7.97787 16.5402 7.97787 16.5401 7.97787C16.5401 7.97787 16.54 7.97787 16.54 7.97786C16.54 7.97786 16.5399 7.97786 16.5399 7.97786C16.5399 7.97786 16.5398 7.97786 16.5398 7.97786C16.5397 7.97786 16.5397 7.97786 16.5397 7.97785C16.5396 7.97785 16.5396 7.97785 16.5396 7.97785C16.5395 7.97785 16.5395 7.97785 16.5395 7.97785C16.5394 7.97785 16.5394 7.97784 16.5393 7.97784C16.5393 7.97784 16.5393 7.97784 16.5392 7.97784C16.5392 7.97784 16.5392 7.97784 16.5391 7.97784C16.5391 7.97783 16.5391 7.97783 16.539 7.97783C16.539 7.97783 16.5389 7.97783 16.5389 7.97783C16.5389 7.97783 16.5388 7.97783 16.5388 7.97783C16.5388 7.97782 16.5387 7.97782 16.5387 7.97782C16.5387 7.97782 16.5386 7.97782 16.5386 7.97782C16.5385 7.97782 16.5385 7.97782 16.5385 7.97782C16.5384 7.97781 16.5384 7.97781 16.5384 7.97781C16.5383 7.97781 16.5383 7.97781 16.5383 7.97781C16.5382 7.97781 16.5382 7.97781 16.5382 7.9778C16.5381 7.9778 16.5381 7.9778 16.5381 7.9778C16.538 7.9778 16.538 7.9778 16.5379 7.9778C16.5379 7.9778 16.5379 7.9778 16.5378 7.97779C16.5378 7.97779 16.5378 7.97779 16.5377 7.97779C16.5377 7.97779 16.5377 7.97779 16.5376 7.97779C16.5376 7.97779 16.5376 7.97779 16.5375 7.97778C16.5375 7.97778 16.5375 7.97778 16.5374 7.97778C16.5374 7.97778 16.5374 7.97778 16.5373 7.97778C16.5373 7.97778 16.5373 7.97778 16.5372 7.97777C16.5372 7.97777 16.5372 7.97777 16.5371 7.97777C16.5371 7.97777 16.5371 7.97777 16.537 7.97777C16.537 7.97777 16.537 7.97777 16.5369 7.97776C16.5369 7.97776 16.5369 7.97776 16.5368 7.97776C16.5368 7.97776 16.5368 7.97776 16.5367 7.97776C16.5367 7.97776 16.5367 7.97776 16.5366 7.97775C16.5366 7.97775 16.5366 7.97775 16.5365 7.97775C16.5365 7.97775 16.5365 7.97775 16.5364 7.97775C16.5364 7.97775 16.5364 7.97775 16.5363 7.97775C16.5363 7.97774 16.5363 7.97774 16.5362 7.97774C16.5362 7.97774 16.5362 7.97774 16.5361 7.97774C16.5361 7.97774 16.5361 7.97774 16.536 7.97774C16.536 7.97773 16.536 7.97773 16.5359 7.97773C16.5359 7.97773 16.5359 7.97773 16.5358 7.97773C16.5358 7.97773 16.5358 7.97773 16.5357 7.97773C16.5357 7.97772 16.5357 7.97772 16.5356 7.97772C16.5356 7.97772 16.5356 7.97772 16.5355 7.97772C16.5355 7.97772 16.5355 7.97772 16.5354 7.97772C16.5354 7.97772 16.5354 7.97771 16.5353 7.97771C16.5353 7.97771 16.5353 7.97771 16.5353 7.97771C16.5352 7.97771 16.5352 7.97771 16.5352 7.97771C16.5351 7.97771 16.5351 7.97771 16.5351 7.9777C16.535 7.9777 16.535 7.9777 16.535 7.9777C16.5349 7.9777 16.5349 7.9777 16.5349 7.9777C16.5348 7.9777 16.5348 7.9777 16.5348 7.9777C16.5347 7.97769 16.5347 7.97769 16.5347 7.97769C16.5347 7.97769 16.5346 7.97769 16.5346 7.97769C16.5346 7.97769 16.5345 7.97769 16.5345 7.97769C16.5345 7.97768 16.5344 7.97768 16.5344 7.97768C16.5344 7.97768 16.5343 7.97768 16.5343 7.97768C16.5343 7.97768 16.5343 7.97768 16.5342 7.97768C16.5342 7.97768 16.5342 7.97768 16.5341 7.97767C16.5341 7.97767 16.5341 7.97767 16.534 7.97767C16.534 7.97767 16.534 7.97767 16.5339 7.97767C16.5339 7.97767 16.5339 7.97767 16.5339 7.97767C16.5338 7.97766 16.5338 7.97766 16.5338 7.97766C16.5337 7.97766 16.5337 7.97766 16.5337 7.97766C16.5336 7.97766 16.5336 7.97766 16.5336 7.97766C16.5336 7.97766 16.5335 7.97765 16.5335 7.97765C16.5335 7.97765 16.5334 7.97765 16.5334 7.97765C16.5334 7.97765 16.5333 7.97765 16.5333 7.97765C16.5333 7.97765 16.5333 7.97765 16.5332 7.97764C16.5332 7.97764 16.5332 7.97764 16.5331 7.97764C16.5331 7.97764 16.5331 7.97764 16.533 7.97764C16.533 7.97764 16.533 7.97764 16.533 7.97764C16.5329 7.97764 16.5329 7.97763 16.5329 7.97763C16.5328 7.97763 16.5328 7.97763 16.5328 7.97763C16.5328 7.97763 16.5327 7.97763 16.5327 7.97763C16.5327 7.97763 16.5326 7.97763 16.5326 7.97762C16.5326 7.97762 16.5326 7.97762 16.5325 7.97762C16.5325 7.97762 16.5325 7.97762 16.5324 7.97762C16.5324 7.97762 16.5324 7.97762 16.5324 7.97762C16.5323 7.97762 16.5323 7.97761 16.5323 7.97761C16.5322 7.97761 16.5322 7.97761 16.5322 7.97761C16.5321 7.97761 16.5321 7.97761 16.5321 7.97761C16.5321 7.97761 16.532 7.97761 16.532 7.97761C16.532 7.9776 16.532 7.9776 16.5319 7.9776C16.5319 7.9776 16.5319 7.9776 16.5318 7.9776C16.5318 7.9776 16.5318 7.9776 16.5318 7.9776C16.5317 7.9776 16.5317 7.9776 16.5317 7.97759C16.5316 7.97759 16.5316 7.97759 16.5316 7.97759C16.5316 7.97759 16.5315 7.97759 16.5315 7.97759C16.5315 7.97759 16.5314 7.97759 16.5314 7.97759C16.5314 7.97759 16.5314 7.97758 16.5313 7.97758C16.5313 7.97758 16.5313 7.97758 16.5312 7.97758C16.5312 7.97758 16.5312 7.97758 16.5312 7.97758C16.5311 7.97758 16.5311 7.97758 16.5311 7.97758C16.5311 7.97757 16.531 7.97757 16.531 7.97757C16.531 7.97757 16.5309 7.97757 16.5309 7.97757C16.5309 7.97757 16.5309 7.97757 16.5308 7.97757C16.5308 7.97757 16.5308 7.97757 16.5308 7.97756C16.5307 7.97756 16.5307 7.97756 16.5307 7.97756C16.5306 7.97756 16.5306 7.97756 16.5306 7.97756C16.5306 7.97756 16.5305 7.97756 16.5305 7.97756C16.5305 7.97756 16.5305 7.97755 16.5304 7.97755C16.5304 7.97755 16.5304 7.97755 16.5303 7.97755C16.5303 7.97755 16.5303 7.97755 16.5303 7.97755C16.5302 7.97755 16.5302 7.97755 16.5302 7.97755C16.5302 7.97755 16.5301 7.97754 16.5301 7.97754C16.5301 7.97754 16.53 7.97754 16.53 7.97754C16.53 7.97754 16.53 7.97754 16.5299 7.97754C16.5299 7.97754 16.5299 7.97754 16.5299 7.97754C16.5298 7.97753 16.5298 7.97753 16.5298 7.97753C16.5298 7.97753 16.5297 7.97753 16.5297 7.97753C16.5297 7.97753 16.5296 7.97753 16.5296 7.97753C16.5296 7.97753 16.5296 7.97753 16.5295 7.97753C16.5295 7.97752 16.5295 7.97752 16.5295 7.97752C16.5294 7.97752 16.5294 7.97752 16.5294 7.97752C16.5294 7.97752 16.5293 7.97752 16.5293 7.97752C16.5293 7.97752 16.5293 7.97752 16.5292 7.97751C16.5292 7.97751 16.5292 7.97751 16.5291 7.97751C16.5291 7.97751 16.5291 7.97751 16.5291 7.97751C16.529 7.97751 16.529 7.97751 16.529 7.97751C16.529 7.97751 16.5289 7.97751 16.5289 7.9775C16.5289 7.9775 16.5289 7.9775 16.5288 7.9775C16.5288 7.9775 16.5288 7.9775 16.5288 7.9775C16.5287 7.9775 16.5287 7.9775 16.5287 7.9775C16.5287 7.9775 16.5286 7.9775 16.5286 7.97749C16.5286 7.97749 16.5286 7.97749 16.5285 7.97749C16.5285 7.97749 16.5285 7.97749 16.5284 7.97749C16.5284 7.97749 16.5284 7.97749 16.5284 7.97749C16.5283 7.97749 16.5283 7.97749 16.5283 7.97748C16.5283 7.97748 16.5282 7.97748 16.5282 7.97748C16.5282 7.97748 16.5282 7.97748 16.5281 7.97748C16.5281 7.97748 16.5281 7.97748 16.5281 7.97748C16.528 7.97748 16.528 7.97748 16.528 7.97747C16.528 7.97747 16.5279 7.97747 16.5279 7.97747C16.5279 7.97747 16.5279 7.97747 16.5278 7.97747C16.5278 7.97747 16.5278 7.97747 16.5278 7.97747C16.5277 7.97747 16.5277 7.97747 16.5277 7.97746C16.5277 7.97746 16.5276 7.97746 16.5276 7.97746C16.5276 7.97746 16.5276 7.97746 16.5275 7.97746C16.5275 7.97746 16.5275 7.97746 16.5275 7.97746C16.5274 7.97746 16.5274 7.97746 16.5274 7.97746C16.5274 7.97745 16.5273 7.97745 16.5273 7.97745C16.5273 7.97745 16.5273 7.97745 16.5272 7.97745C16.5272 7.97745 16.5272 7.97745 16.5272 7.97745C16.5271 7.97745 16.5271 7.97745 16.5271 7.97745C16.5271 7.97744 16.527 7.97744 16.527 7.97744C16.527 7.97744 16.527 7.97744 16.5269 7.97744C16.5269 7.97744 16.5269 7.97744 16.5269 7.97744C16.5268 7.97744 16.5268 7.97744 16.5268 7.97744C16.5268 7.97743 16.5267 7.97743 16.5267 7.97743C16.5267 7.97743 16.5267 7.97743 16.5266 7.97743C16.5266 7.97743 16.5266 7.97743 16.5266 7.97743C16.5265 7.97743 16.5265 7.97743 16.5265 7.97743C16.5265 7.97743 16.5264 7.97742 16.5264 7.97742C16.5264 7.97742 16.5264 7.97742 16.5263 7.97742C16.5263 7.97742 16.5263 7.97742 16.5263 7.97742C16.5262 7.97742 16.5262 7.97742 16.5262 7.97742C16.5262 7.97742 16.5261 7.97741 16.5261 7.97741C16.5261 7.97741 16.5261 7.97741 16.526 7.97741C16.526 7.97741 16.526 7.97741 16.526 7.97741C16.5259 7.97741 16.5259 7.97741 16.5259 7.97741C16.5259 7.97741 16.5258 7.97741 16.5258 7.9774C16.5258 7.9774 16.5258 7.9774 16.5257 7.9774C16.5257 7.9774 16.5257 7.9774 16.5257 7.9774C16.5256 7.9774 16.5256 7.9774 16.5256 7.9774C16.5256 7.9774 16.5256 7.9774 16.5255 7.97739C16.5255 7.97739 16.5255 7.97739 16.5255 7.97739C16.5254 7.97739 16.5254 7.97739 16.5254 7.97739C16.5254 7.97739 16.5253 7.97739 16.5253 7.97739C16.5253 7.97739 16.5253 7.97739 16.5252 7.97739C16.5252 7.97738 16.5252 7.97738 16.5252 7.97738C16.5251 7.97738 16.5251 7.97738 16.5251 7.97738C16.5251 7.97738 16.525 7.97738 16.525 7.97738C16.525 7.97738 16.525 7.97738 16.5249 7.97738C16.5249 7.97738 16.5249 7.97737 16.5249 7.97737C16.5248 7.97737 16.5248 7.97737 16.5248 7.97737C16.5248 7.97737 16.5247 7.97737 16.5247 7.97737C16.5247 7.97737 16.5247 7.97737 16.5246 7.97737C16.5246 7.97737 16.5246 7.97736 16.5246 7.97736C16.5246 7.97736 16.5245 7.97736 16.5245 7.97736C16.5245 7.97736 16.5245 7.97736 16.5244 7.97736C16.5244 7.97736 16.5244 7.97736 16.5244 7.97736C16.5243 7.97736 16.5243 7.97736 16.5243 7.97735C16.5243 7.97735 16.5242 7.97735 16.5242 7.97735C16.5242 7.97735 16.5242 7.97735 16.5241 7.97735C16.5241 7.97735 16.5241 7.97735 16.5241 7.97735C16.524 7.97735 16.524 7.97735 16.524 7.97735C16.524 7.97734 16.5239 7.97734 16.5239 7.97734C16.5239 7.97734 16.5239 7.97734 16.5238 7.97734C16.5238 7.97734 16.5238 7.97734 16.5238 7.97734C16.5238 7.97734 16.5237 7.97734 16.5237 7.97734C16.5237 7.97733 16.5237 7.97733 16.5236 7.97733C16.5236 7.97733 16.5236 7.97733 16.5236 7.97733C16.5235 7.97733 16.5235 7.97733 16.5235 7.97733C16.5235 7.97733 16.5234 7.97733 16.5234 7.97733C16.5234 7.97733 16.5234 7.97732 16.5233 7.97732C16.5233 7.97732 16.5233 7.97732 16.5233 7.97732C16.5232 7.97732 16.5232 7.97732 16.5232 7.97732C16.5232 7.97732 16.5231 7.97732 16.5231 7.97732C16.5231 7.97732 16.5231 7.97732 16.523 7.97731C16.523 7.97731 16.523 7.97731 16.523 7.97731C16.523 7.97731 16.5229 7.97731 16.5229 7.97731C16.5229 7.97731 16.5229 7.97731 16.5228 7.97731C16.5228 7.97731 16.5228 7.97731 16.5228 7.9773C16.5227 7.9773 16.5227 7.9773 16.5227 7.9773C16.5227 7.9773 16.5226 7.9773 16.5226 7.9773C16.5226 7.9773 16.5226 7.9773 16.5225 7.9773C16.5225 7.9773 16.5225 7.9773 16.5225 7.9773C16.5224 7.97729 16.5224 7.97729 16.5224 7.97729C16.5224 7.97729 16.5223 7.97729 16.5223 7.97729C16.5223 7.97729 16.5223 7.97729 16.5222 7.97729C16.5222 7.97729 16.5222 7.97729 16.5222 7.97729C16.5221 7.97729 16.5221 7.97728 16.5221 7.97728C16.5221 7.97728 16.5221 7.97728 16.522 7.97728C16.522 7.97728 16.522 7.97728 16.522 7.97728C16.5219 7.97728 16.5219 7.97728 16.5219 7.97728C16.5219 7.97728 16.5218 7.97727 16.5218 7.97727C16.5218 7.97727 16.5218 7.97727 16.5217 7.97727C16.5217 7.97727 16.5217 7.97727 16.5217 7.97727C16.5216 7.97727 16.5216 7.97727 16.5216 7.97727C16.5216 7.97727 16.5215 7.97727 16.5215 7.97726C16.5215 7.97726 16.5215 7.97726 16.5214 7.97726C16.5214 7.97726 16.5214 7.97726 16.5214 7.97726C16.5213 7.97726 16.5213 7.97726 16.5213 7.97726C16.5213 7.97726 16.5212 7.97726 16.5212 7.97725C16.5212 7.97725 16.5212 7.97725 16.5211 7.97725C16.5211 7.97725 16.5211 7.97725 16.5211 7.97725C16.521 7.97725 16.521 7.97725 16.521 7.97725C16.521 7.97725 16.5209 7.97725 16.5209 7.97725C16.5209 7.97724 16.5209 7.97724 16.5208 7.97724C16.5208 7.97724 16.5208 7.97724 16.5208 7.97724C16.5207 7.97724 16.5207 7.97724 16.5207 7.97724C16.5207 7.97724 16.5206 7.97724 16.5206 7.97724C16.5206 7.97723 16.5206 7.97723 16.5205 7.97723C16.5205 7.97723 16.5205 7.97723 16.5205 7.97723C16.5204 7.97723 16.5204 7.97723 16.5204 7.97723C16.5204 7.97723 16.5203 7.97723 16.5203 7.97723C16.5203 7.97723 16.5203 7.97722 16.5202 7.97722C16.5202 7.97722 16.5202 7.97722 16.5202 7.97722C16.5201 7.97722 16.5201 7.97722 16.5201 7.97722C16.5201 7.97722 16.52 7.97722 16.52 7.97722C16.52 7.97722 16.52 7.97721 16.5199 7.97721C16.5199 7.97721 16.5199 7.97721 16.5199 7.97721C16.5198 7.97721 16.5198 7.97721 16.5198 7.97721C16.5198 7.97721 16.5197 7.97721 16.5197 7.97721C16.5197 7.97721 16.5197 7.9772 16.5196 7.9772C16.5196 7.9772 16.5196 7.9772 16.5196 7.9772C16.5195 7.9772 16.5195 7.9772 16.5195 7.9772C16.5195 7.9772 16.5194 7.9772 16.5194 7.9772C16.5194 7.9772 16.5194 7.97719 16.5193 7.97719C16.5193 7.97719 16.5193 7.97719 16.5193 7.97719C16.5192 7.97719 16.5192 7.97719 16.5192 7.97719C16.5192 7.97719 16.5191 7.97719 16.5191 7.97719C16.5191 7.97719 16.5191 7.97718 16.519 7.97718C16.519 7.97718 16.519 7.97718 16.519 7.97718C16.5189 7.97718 16.5189 7.97718 16.5189 7.97718C16.5188 7.97718 16.5188 7.97718 16.5188 7.97718C16.5188 7.97718 16.5187 7.97717 16.5187 7.97717C16.5187 7.97717 16.5187 7.97717 16.5186 7.97717C16.5186 7.97717 16.5186 7.97717 16.5186 7.97717C16.5185 7.97717 16.5185 7.97717 16.5185 7.97717C16.5185 7.97717 16.5184 7.97716 16.5184 7.97716C16.5184 7.97716 16.5184 7.97716 16.5183 7.97716C16.5183 7.97716 16.5183 7.97716 16.5182 7.97716C16.5182 7.97716 16.5182 7.97716 16.5182 7.97716C16.5181 7.97716 16.5181 7.97715 16.5181 7.97715C16.5181 7.97715 16.518 7.97715 16.518 7.97715C16.518 7.97715 16.518 7.97715 16.5179 7.97715C16.5179 7.97715 16.5179 7.97715 16.5179 7.97715C16.5178 7.97714 16.5178 7.97714 16.5178 7.97714C16.5177 7.97714 16.5177 7.97714 16.5177 7.97714C16.5177 7.97714 16.5176 7.97714 16.5176 7.97714C16.5176 7.97714 16.5176 7.97714 16.5175 7.97714C16.5175 7.97713 16.5175 7.97713 16.5175 7.97713C16.5174 7.97713 16.5174 7.97713 16.5174 7.97713C16.5173 7.97713 16.5173 7.97713 16.5173 7.97713C16.5173 7.97713 16.5172 7.97713 16.5172 7.97712C16.5172 7.97712 16.5172 7.97712 16.5171 7.97712C16.5171 7.97712 16.5171 7.97712 16.517 7.97712C16.517 7.97712 16.517 7.97712 16.517 7.97712C16.5169 7.97712 16.5169 7.97712 16.5169 7.97711C16.5169 7.97711 16.5168 7.97711 16.5168 7.97711C16.5168 7.97711 16.5167 7.97711 16.5167 7.97711C16.5167 7.97711 16.5167 7.97711 16.5166 7.97711C16.5166 7.97711 16.5166 7.9771 16.5166 7.9771C16.5165 7.9771 16.5165 7.9771 16.5165 7.9771C16.5164 7.9771 16.5164 7.9771 16.5164 7.9771C16.5164 7.9771 16.5163 7.9771 16.5163 7.9771C16.5163 7.97709 16.5162 7.97709 16.5162 7.97709C16.5162 7.97709 16.5162 7.97709 16.5161 7.97709C16.5161 7.97709 16.5161 7.97709 16.5161 7.97709C16.516 7.97709 16.516 7.97709 16.516 7.97708C16.5159 7.97708 16.5159 7.97708 16.5159 7.97708C16.5159 7.97708 16.5158 7.97708 16.5158 7.97708C16.5158 7.97708 16.5157 7.97708 16.5157 7.97708C16.5157 7.97708 16.5157 7.97707 16.5156 7.97707C16.5156 7.97707 16.5156 7.97707 16.5155 7.97707C16.5155 7.97707 16.5155 7.97707 16.5155 7.97707C16.5154 7.97707 16.5154 7.97707 16.5154 7.97707C16.5153 7.97706 16.5153 7.97706 16.5153 7.97706C16.5153 7.97706 16.5152 7.97706 16.5152 7.97706C16.5152 7.97706 16.5151 7.97706 16.5151 7.97706C16.5151 7.97706 16.5151 7.97706 16.515 7.97705C16.515 7.97705 16.515 7.97705 16.5149 7.97705C16.5149 7.97705 16.5149 7.97705 16.5149 7.97705C16.5148 7.97705 16.5148 7.97705 16.5148 7.97705C16.5147 7.97704 16.5147 7.97704 16.5147 7.97704C16.5147 7.97704 16.5146 7.97704 16.5146 7.97704C16.5146 7.97704 16.5145 7.97704 16.5145 7.97704C16.5145 7.97704 16.5144 7.97704 16.5144 7.97703C16.5144 7.97703 16.5144 7.97703 16.5143 7.97703C16.5143 7.97703 16.5143 7.97703 16.5142 7.97703C16.5142 7.97703 16.5142 7.97703 16.5141 7.97703C16.5141 7.97702 16.5141 7.97702 16.5141 7.97702C16.514 7.97702 16.514 7.97702 16.514 7.97702C16.5139 7.97702 16.5139 7.97702 16.5139 7.97702C16.5138 7.97702 16.5138 7.97701 16.5138 7.97701C16.5138 7.97701 16.5137 7.97701 16.5137 7.97701C16.5137 7.97701 16.5136 7.97701 16.5136 7.97701C16.5136 7.97701 16.5135 7.97701 16.5135 7.97701C16.5135 7.977 16.5135 7.977 16.5134 7.977C16.5134 7.977 16.5134 7.977 16.5133 7.977C16.5133 7.977 16.5133 7.977 16.5132 7.977C16.5132 7.977 16.5132 7.97699 16.5131 7.97699C16.5131 7.97699 16.5131 7.97699 16.5131 7.97699C16.513 7.97699 16.513 7.97699 16.513 7.97699C16.5129 7.97699 16.5129 7.97699 16.5129 7.97698C16.5128 7.97698 16.5128 7.97698 16.5128 7.97698C16.5127 7.97698 16.5127 7.97698 16.5127 7.97698C16.5126 7.97698 16.5126 7.97698 16.5126 7.97697C16.5126 7.97697 16.5125 7.97697 16.5125 7.97697C16.5125 7.97697 16.5124 7.97697 16.5124 7.97697C16.5124 7.97697 16.5123 7.97697 16.5123 7.97697C16.5123 7.97696 16.5122 7.97696 16.5122 7.97696C16.5122 7.97696 16.5121 7.97696 16.5121 7.97696C16.5121 7.97696 16.512 7.97696 16.512 7.97696C16.512 7.97696 16.5119 7.97695 16.5119 7.97695C16.5119 7.97695 16.5119 7.97695 16.5118 7.97695C16.5118 7.97695 16.5118 7.97695 16.5117 7.97695C16.5117 7.97695 16.5117 7.97694 16.5116 7.97694C16.5116 7.97694 16.5116 7.97694 16.5115 7.97694C16.5115 7.97694 16.5115 7.97694 16.5114 7.97694C16.5114 7.97694 16.5114 7.97694 16.5113 7.97693C16.5113 7.97693 16.5113 7.97693 16.5112 7.97693C16.5112 7.97693 16.5112 7.97693 16.5111 7.97693C16.5111 7.97693 16.5111 7.97693 16.511 7.97692C16.511 7.97692 16.511 7.97692 16.5109 7.97692C16.5109 7.97692 16.5109 7.97692 16.5108 7.97692C16.5108 7.97692 16.5108 7.97692 16.5107 7.97691C16.5107 7.97691 16.5107 7.97691 16.5106 7.97691C16.5106 7.97691 16.5106 7.97691 16.5105 7.97691C16.5105 7.97691 16.5105 7.97691 16.5104 7.9769C16.5104 7.9769 16.5104 7.9769 16.5103 7.9769C16.5103 7.9769 16.5103 7.9769 16.5102 7.9769C16.5102 7.9769 16.5102 7.9769 16.5101 7.97689C16.5101 7.97689 16.5101 7.97689 16.51 7.97689C16.51 7.97689 16.51 7.97689 16.5099 7.97689C16.5099 7.97689 16.5098 7.97689 16.5098 7.97688C16.5098 7.97688 16.5097 7.97688 16.5097 7.97688C16.5097 7.97688 16.5096 7.97688 16.5096 7.97688C16.5096 7.97688 16.5095 7.97688 16.5095 7.97687C16.5095 7.97687 16.5094 7.97687 16.5094 7.97687C16.5094 7.97687 16.5093 7.97687 16.5093 7.97687C16.5093 7.97687 16.5092 7.97687 16.5092 7.97686C16.5091 7.97686 16.5091 7.97686 16.5091 7.97686C16.509 7.97686 16.509 7.97686 16.509 7.97686C16.5089 7.97686 16.5089 7.97686 16.5089 7.97685C16.5088 7.97685 16.5088 7.97685 16.5088 7.97685C16.5087 7.97685 16.5087 7.97685 16.5086 7.97685C16.5086 7.97685 16.5086 7.97684 16.5085 7.97684C16.5085 7.97684 16.5085 7.97684 16.5084 7.97684C16.5084 7.97684 16.5084 7.97684 16.5083 7.97684C16.5083 7.97684 16.5082 7.97683 16.5082 7.97683C16.5082 7.97683 16.5081 7.97683 16.5081 7.97683C16.5081 7.97683 16.508 7.97683 16.508 7.97683C16.508 7.97682 16.5079 7.97682 16.5079 7.97682C16.5078 7.97682 16.5078 7.97682 16.5078 7.97682C16.5077 7.97682 16.5077 7.97682 16.5077 7.97681C16.5076 7.97681 16.5076 7.97681 16.5075 7.97681C16.5075 7.97681 16.5075 7.97681 16.5074 7.97681C16.5074 7.97681 16.5074 7.97681 16.5073 7.9768C16.5073 7.9768 16.5072 7.9768 16.5072 7.9768C16.5072 7.9768 16.5071 7.9768 16.5071 7.9768C16.5071 7.9768 16.507 7.97679 16.507 7.97679C16.5069 7.97679 16.5069 7.97679 16.5069 7.97679C16.5068 7.97679 16.5068 7.97679 16.5067 7.97679C16.5067 7.97678 16.5067 7.97678 16.5066 7.97678C16.5066 7.97678 16.5066 7.97678 16.5065 7.97678C16.5065 7.97678 16.5064 7.97678 16.5064 7.97677C16.5064 7.97677 16.5063 7.97677 16.5063 7.97677C16.5062 7.97677 16.5062 7.97677 16.5062 7.97677C16.5061 7.97677 16.5061 7.97676 16.506 7.97676C16.506 7.97676 16.506 7.97676 16.5059 7.97676C16.5059 7.97676 16.5058 7.97676 16.5058 7.97676C16.5058 7.97675 16.5057 7.97675 16.5057 7.97675C16.5057 7.97675 16.5056 7.97675 16.5056 7.97675C16.5055 7.97675 16.5055 7.97674 16.5055 7.97674C16.5054 7.97674 16.5054 7.97674 16.5053 7.97674C16.5053 7.97674 16.5052 7.97674 16.5052 7.97674C16.5052 7.97673 16.5051 7.97673 16.5051 7.97673C16.505 7.97673 16.505 7.97673 16.505 7.97673C16.5049 7.97673 16.5049 7.97673 16.5048 7.97672C16.5048 7.97672 16.5048 7.97672 16.5047 7.97672C16.5047 7.97672 16.5046 7.97672 16.5046 7.97672C16.5046 7.97671 16.5045 7.97671 16.5045 7.97671C16.5044 7.97671 16.5044 7.97671 16.5043 7.97671C16.5043 7.97671 16.5043 7.9767 16.5042 7.9767C16.5042 7.9767 16.5041 7.9767 16.5041 7.9767C16.5041 7.9767 16.504 7.9767 16.504 7.9767C16.5039 7.97669 16.5039 7.97669 16.5038 7.97669C16.5038 7.97669 16.5038 7.97669 16.5037 7.97669C16.5037 7.97669 16.5036 7.97668 16.5036 7.97668C16.5036 7.97668 16.5035 7.97668 16.5035 7.97668C16.5034 7.97668 16.5034 7.97668 16.5033 7.97667C16.5033 7.97667 16.5033 7.97667 16.5032 7.97667C16.5032 7.97667 16.5031 7.97667 16.5031 7.97667C16.503 7.97667 16.503 7.97666 16.503 7.97666C16.5029 7.97666 16.5029 7.97666 16.5028 7.97666C16.5028 7.97666 16.5027 7.97666 16.5027 7.97665C16.5026 7.97665 16.5026 7.97665 16.5026 7.97665C16.5025 7.97665 16.5025 7.97665 16.5024 7.97665C16.5024 7.97664 16.5023 7.97664 16.5023 7.97664C16.5023 7.97664 16.5022 7.97664 16.5022 7.97664C16.5021 7.97664 16.5021 7.97663 16.502 7.97663C16.502 7.97663 16.5019 7.97663 16.5019 7.97663C16.5019 7.97663 16.5018 7.97663 16.5018 7.97662C16.5017 7.97662 16.5017 7.97662 16.5016 7.97662C16.5016 7.97662 16.5015 7.97662 16.5015 7.97661C16.5014 7.97661 16.5014 7.97661 16.5014 7.97661C16.5013 7.97661 16.5013 7.97661 16.5012 7.97661C16.5012 7.9766 16.5011 7.9766 16.5011 7.9766C16.501 7.9766 16.501 7.9766 16.5009 7.9766C16.5009 7.9766 16.5009 7.97659 16.5008 7.97659C16.5008 7.97659 16.5007 7.97659 16.5007 7.97659C16.5006 7.97659 16.5006 7.97659 16.5005 7.97658C16.5005 7.97658 16.5004 7.97658 16.5004 7.97658C16.5003 7.97658 16.5003 7.97658 16.5003 7.97657C16.5002 7.97657 16.5002 7.97657 16.5001 7.97657C16.5001 7.97657 16.5 7.97657 16.5 7.97657C16.4999 7.97656 16.4999 7.97656 16.4998 7.97656C16.4998 7.97656 16.4997 7.97656 16.4997 7.97656C16.4996 7.97655 16.4996 7.97655 16.4995 7.97655C16.4995 7.97655 16.4994 7.97655 16.4994 7.97655C16.4994 7.97655 16.4993 7.97654 16.4993 7.97654C16.4992 7.97654 16.4992 7.97654 16.4991 7.97654C16.4991 7.97654 16.499 7.97653 16.499 7.97653L15.7206 31.9639C15.7206 31.9639 15.7207 31.9639 15.7207 31.9639C15.7208 31.9639 15.7208 31.9639 15.7209 31.9639C15.7209 31.9639 15.721 31.9639 15.721 31.9639C15.7211 31.9639 15.7211 31.9639 15.7212 31.9639C15.7212 31.9639 15.7213 31.9639 15.7213 31.9639C15.7214 31.9639 15.7214 31.9639 15.7214 31.9639C15.7215 31.9639 15.7215 31.9639 15.7216 31.9639C15.7216 31.9639 15.7217 31.9639 15.7217 31.9639C15.7218 31.9639 15.7218 31.9639 15.7219 31.9639C15.7219 31.964 15.722 31.964 15.722 31.964C15.7221 31.964 15.7221 31.964 15.7222 31.964C15.7222 31.964 15.7222 31.964 15.7223 31.964C15.7223 31.964 15.7224 31.964 15.7224 31.964C15.7225 31.964 15.7225 31.964 15.7226 31.964C15.7226 31.964 15.7227 31.964 15.7227 31.964C15.7227 31.964 15.7228 31.964 15.7228 31.964C15.7229 31.964 15.7229 31.964 15.723 31.964C15.723 31.964 15.7231 31.964 15.7231 31.964C15.7232 31.964 15.7232 31.964 15.7232 31.964C15.7233 31.964 15.7233 31.964 15.7234 31.964C15.7234 31.964 15.7235 31.964 15.7235 31.964C15.7236 31.964 15.7236 31.964 15.7236 31.964C15.7237 31.964 15.7237 31.964 15.7238 31.964C15.7238 31.964 15.7239 31.964 15.7239 31.964C15.724 31.964 15.724 31.964 15.724 31.964C15.7241 31.964 15.7241 31.964 15.7242 31.964C15.7242 31.964 15.7243 31.964 15.7243 31.964C15.7244 31.964 15.7244 31.964 15.7244 31.964C15.7245 31.964 15.7245 31.964 15.7246 31.964C15.7246 31.964 15.7247 31.964 15.7247 31.964C15.7247 31.964 15.7248 31.964 15.7248 31.964C15.7249 31.964 15.7249 31.964 15.725 31.964C15.725 31.9641 15.725 31.9641 15.7251 31.9641C15.7251 31.9641 15.7252 31.9641 15.7252 31.9641C15.7253 31.9641 15.7253 31.9641 15.7253 31.9641C15.7254 31.9641 15.7254 31.9641 15.7255 31.9641C15.7255 31.9641 15.7256 31.9641 15.7256 31.9641C15.7256 31.9641 15.7257 31.9641 15.7257 31.9641C15.7258 31.9641 15.7258 31.9641 15.7258 31.9641C15.7259 31.9641 15.7259 31.9641 15.726 31.9641C15.726 31.9641 15.7261 31.9641 15.7261 31.9641C15.7261 31.9641 15.7262 31.9641 15.7262 31.9641C15.7263 31.9641 15.7263 31.9641 15.7263 31.9641C15.7264 31.9641 15.7264 31.9641 15.7265 31.9641C15.7265 31.9641 15.7265 31.9641 15.7266 31.9641C15.7266 31.9641 15.7267 31.9641 15.7267 31.9641C15.7267 31.9641 15.7268 31.9641 15.7268 31.9641C15.7269 31.9641 15.7269 31.9641 15.7269 31.9641C15.727 31.9641 15.727 31.9641 15.7271 31.9641C15.7271 31.9641 15.7272 31.9641 15.7272 31.9641C15.7272 31.9641 15.7273 31.9641 15.7273 31.9641C15.7273 31.9641 15.7274 31.9641 15.7274 31.9641C15.7275 31.9641 15.7275 31.9641 15.7275 31.9641C15.7276 31.9641 15.7276 31.9641 15.7277 31.9641C15.7277 31.9641 15.7277 31.9641 15.7278 31.9641C15.7278 31.9641 15.7279 31.9641 15.7279 31.9641C15.7279 31.9641 15.728 31.9641 15.728 31.9641C15.7281 31.9641 15.7281 31.9642 15.7281 31.9642C15.7282 31.9642 15.7282 31.9642 15.7282 31.9642C15.7283 31.9642 15.7283 31.9642 15.7284 31.9642C15.7284 31.9642 15.7284 31.9642 15.7285 31.9642C15.7285 31.9642 15.7286 31.9642 15.7286 31.9642C15.7286 31.9642 15.7287 31.9642 15.7287 31.9642C15.7287 31.9642 15.7288 31.9642 15.7288 31.9642C15.7289 31.9642 15.7289 31.9642 15.7289 31.9642C15.729 31.9642 15.729 31.9642 15.729 31.9642C15.7291 31.9642 15.7291 31.9642 15.7292 31.9642C15.7292 31.9642 15.7292 31.9642 15.7293 31.9642C15.7293 31.9642 15.7293 31.9642 15.7294 31.9642C15.7294 31.9642 15.7295 31.9642 15.7295 31.9642C15.7295 31.9642 15.7296 31.9642 15.7296 31.9642C15.7296 31.9642 15.7297 31.9642 15.7297 31.9642C15.7298 31.9642 15.7298 31.9642 15.7298 31.9642C15.7299 31.9642 15.7299 31.9642 15.7299 31.9642C15.73 31.9642 15.73 31.9642 15.73 31.9642C15.7301 31.9642 15.7301 31.9642 15.7302 31.9642C15.7302 31.9642 15.7302 31.9642 15.7303 31.9642C15.7303 31.9642 15.7303 31.9642 15.7304 31.9642C15.7304 31.9642 15.7304 31.9642 15.7305 31.9642C15.7305 31.9642 15.7306 31.9642 15.7306 31.9642C15.7306 31.9642 15.7307 31.9642 15.7307 31.9642C15.7307 31.9642 15.7308 31.9642 15.7308 31.9642C15.7308 31.9642 15.7309 31.9642 15.7309 31.9642C15.7309 31.9642 15.731 31.9642 15.731 31.9642C15.731 31.9642 15.7311 31.9642 15.7311 31.9642C15.7312 31.9643 15.7312 31.9643 15.7312 31.9643C15.7313 31.9643 15.7313 31.9643 15.7313 31.9643C15.7314 31.9643 15.7314 31.9643 15.7314 31.9643C15.7315 31.9643 15.7315 31.9643 15.7315 31.9643C15.7316 31.9643 15.7316 31.9643 15.7316 31.9643C15.7317 31.9643 15.7317 31.9643 15.7317 31.9643C15.7318 31.9643 15.7318 31.9643 15.7318 31.9643C15.7319 31.9643 15.7319 31.9643 15.7319 31.9643C15.732 31.9643 15.732 31.9643 15.732 31.9643C15.7321 31.9643 15.7321 31.9643 15.7322 31.9643C15.7322 31.9643 15.7322 31.9643 15.7323 31.9643C15.7323 31.9643 15.7323 31.9643 15.7324 31.9643C15.7324 31.9643 15.7324 31.9643 15.7325 31.9643C15.7325 31.9643 15.7325 31.9643 15.7326 31.9643C15.7326 31.9643 15.7326 31.9643 15.7327 31.9643C15.7327 31.9643 15.7327 31.9643 15.7328 31.9643C15.7328 31.9643 15.7328 31.9643 15.7329 31.9643C15.7329 31.9643 15.7329 31.9643 15.733 31.9643C15.733 31.9643 15.733 31.9643 15.733 31.9643C15.7331 31.9643 15.7331 31.9643 15.7331 31.9643C15.7332 31.9643 15.7332 31.9643 15.7332 31.9643C15.7333 31.9643 15.7333 31.9643 15.7333 31.9643C15.7334 31.9643 15.7334 31.9643 15.7334 31.9643C15.7335 31.9643 15.7335 31.9643 15.7335 31.9643C15.7336 31.9643 15.7336 31.9643 15.7336 31.9643C15.7337 31.9643 15.7337 31.9643 15.7337 31.9643C15.7338 31.9643 15.7338 31.9643 15.7338 31.9643C15.7339 31.9643 15.7339 31.9643 15.7339 31.9643C15.734 31.9643 15.734 31.9643 15.734 31.9643C15.734 31.9643 15.7341 31.9643 15.7341 31.9643C15.7341 31.9643 15.7342 31.9643 15.7342 31.9643C15.7342 31.9644 15.7343 31.9644 15.7343 31.9644C15.7343 31.9644 15.7344 31.9644 15.7344 31.9644C15.7344 31.9644 15.7345 31.9644 15.7345 31.9644C15.7345 31.9644 15.7345 31.9644 15.7346 31.9644C15.7346 31.9644 15.7346 31.9644 15.7347 31.9644C15.7347 31.9644 15.7347 31.9644 15.7348 31.9644C15.7348 31.9644 15.7348 31.9644 15.7349 31.9644C15.7349 31.9644 15.7349 31.9644 15.735 31.9644C15.735 31.9644 15.735 31.9644 15.735 31.9644C15.7351 31.9644 15.7351 31.9644 15.7351 31.9644C15.7352 31.9644 15.7352 31.9644 15.7352 31.9644C15.7353 31.9644 15.7353 31.9644 15.7353 31.9644C15.7353 31.9644 15.7354 31.9644 15.7354 31.9644C15.7354 31.9644 15.7355 31.9644 15.7355 31.9644C15.7355 31.9644 15.7356 31.9644 15.7356 31.9644C15.7356 31.9644 15.7356 31.9644 15.7357 31.9644C15.7357 31.9644 15.7357 31.9644 15.7358 31.9644C15.7358 31.9644 15.7358 31.9644 15.7359 31.9644C15.7359 31.9644 15.7359 31.9644 15.7359 31.9644C15.736 31.9644 15.736 31.9644 15.736 31.9644C15.7361 31.9644 15.7361 31.9644 15.7361 31.9644C15.7362 31.9644 15.7362 31.9644 15.7362 31.9644C15.7362 31.9644 15.7363 31.9644 15.7363 31.9644C15.7363 31.9644 15.7364 31.9644 15.7364 31.9644C15.7364 31.9644 15.7364 31.9644 15.7365 31.9644C15.7365 31.9644 15.7365 31.9644 15.7366 31.9644C15.7366 31.9644 15.7366 31.9644 15.7366 31.9644C15.7367 31.9644 15.7367 31.9644 15.7367 31.9644C15.7368 31.9644 15.7368 31.9644 15.7368 31.9644C15.7369 31.9644 15.7369 31.9644 15.7369 31.9644C15.7369 31.9644 15.737 31.9644 15.737 31.9644C15.737 31.9644 15.7371 31.9644 15.7371 31.9644C15.7371 31.9644 15.7371 31.9644 15.7372 31.9644C15.7372 31.9644 15.7372 31.9644 15.7373 31.9644C15.7373 31.9644 15.7373 31.9644 15.7373 31.9645C15.7374 31.9645 15.7374 31.9645 15.7374 31.9645C15.7374 31.9645 15.7375 31.9645 15.7375 31.9645C15.7375 31.9645 15.7376 31.9645 15.7376 31.9645C15.7376 31.9645 15.7376 31.9645 15.7377 31.9645C15.7377 31.9645 15.7377 31.9645 15.7378 31.9645C15.7378 31.9645 15.7378 31.9645 15.7378 31.9645C15.7379 31.9645 15.7379 31.9645 15.7379 31.9645C15.738 31.9645 15.738 31.9645 15.738 31.9645C15.738 31.9645 15.7381 31.9645 15.7381 31.9645C15.7381 31.9645 15.7381 31.9645 15.7382 31.9645C15.7382 31.9645 15.7382 31.9645 15.7383 31.9645C15.7383 31.9645 15.7383 31.9645 15.7383 31.9645C15.7384 31.9645 15.7384 31.9645 15.7384 31.9645C15.7384 31.9645 15.7385 31.9645 15.7385 31.9645C15.7385 31.9645 15.7386 31.9645 15.7386 31.9645C15.7386 31.9645 15.7386 31.9645 15.7387 31.9645C15.7387 31.9645 15.7387 31.9645 15.7387 31.9645C15.7388 31.9645 15.7388 31.9645 15.7388 31.9645C15.7389 31.9645 15.7389 31.9645 15.7389 31.9645C15.7389 31.9645 15.739 31.9645 15.739 31.9645C15.739 31.9645 15.739 31.9645 15.7391 31.9645C15.7391 31.9645 15.7391 31.9645 15.7392 31.9645C15.7392 31.9645 15.7392 31.9645 15.7392 31.9645C15.7393 31.9645 15.7393 31.9645 15.7393 31.9645C15.7393 31.9645 15.7394 31.9645 15.7394 31.9645C15.7394 31.9645 15.7394 31.9645 15.7395 31.9645C15.7395 31.9645 15.7395 31.9645 15.7396 31.9645C15.7396 31.9645 15.7396 31.9645 15.7396 31.9645C15.7397 31.9645 15.7397 31.9645 15.7397 31.9645C15.7397 31.9645 15.7398 31.9645 15.7398 31.9645C15.7398 31.9645 15.7398 31.9645 15.7399 31.9645C15.7399 31.9645 15.7399 31.9645 15.7399 31.9645C15.74 31.9645 15.74 31.9645 15.74 31.9645C15.7401 31.9645 15.7401 31.9645 15.7401 31.9645C15.7401 31.9645 15.7402 31.9645 15.7402 31.9645C15.7402 31.9645 15.7402 31.9645 15.7403 31.9645C15.7403 31.9645 15.7403 31.9645 15.7403 31.9645C15.7404 31.9645 15.7404 31.9645 15.7404 31.9646C15.7404 31.9646 15.7405 31.9646 15.7405 31.9646C15.7405 31.9646 15.7405 31.9646 15.7406 31.9646C15.7406 31.9646 15.7406 31.9646 15.7406 31.9646C15.7407 31.9646 15.7407 31.9646 15.7407 31.9646C15.7408 31.9646 15.7408 31.9646 15.7408 31.9646C15.7408 31.9646 15.7409 31.9646 15.7409 31.9646C15.7409 31.9646 15.7409 31.9646 15.741 31.9646C15.741 31.9646 15.741 31.9646 15.741 31.9646C15.7411 31.9646 15.7411 31.9646 15.7411 31.9646C15.7411 31.9646 15.7412 31.9646 15.7412 31.9646C15.7412 31.9646 15.7412 31.9646 15.7413 31.9646C15.7413 31.9646 15.7413 31.9646 15.7413 31.9646C15.7414 31.9646 15.7414 31.9646 15.7414 31.9646C15.7414 31.9646 15.7415 31.9646 15.7415 31.9646C15.7415 31.9646 15.7415 31.9646 15.7416 31.9646C15.7416 31.9646 15.7416 31.9646 15.7416 31.9646C15.7417 31.9646 15.7417 31.9646 15.7417 31.9646C15.7417 31.9646 15.7418 31.9646 15.7418 31.9646C15.7418 31.9646 15.7418 31.9646 15.7419 31.9646C15.7419 31.9646 15.7419 31.9646 15.7419 31.9646C15.742 31.9646 15.742 31.9646 15.742 31.9646C15.742 31.9646 15.7421 31.9646 15.7421 31.9646C15.7421 31.9646 15.7421 31.9646 15.7422 31.9646C15.7422 31.9646 15.7422 31.9646 15.7422 31.9646C15.7423 31.9646 15.7423 31.9646 15.7423 31.9646C15.7423 31.9646 15.7424 31.9646 15.7424 31.9646C15.7424 31.9646 15.7424 31.9646 15.7425 31.9646C15.7425 31.9646 15.7425 31.9646 15.7425 31.9646C15.7426 31.9646 15.7426 31.9646 15.7426 31.9646C15.7426 31.9646 15.7427 31.9646 15.7427 31.9646C15.7427 31.9646 15.7427 31.9646 15.7428 31.9646C15.7428 31.9646 15.7428 31.9646 15.7428 31.9646C15.7429 31.9646 15.7429 31.9646 15.7429 31.9646C15.7429 31.9646 15.743 31.9646 15.743 31.9646C15.743 31.9646 15.743 31.9646 15.7431 31.9646C15.7431 31.9646 15.7431 31.9646 15.7431 31.9646C15.7432 31.9646 15.7432 31.9646 15.7432 31.9646C15.7432 31.9646 15.7433 31.9646 15.7433 31.9646C15.7433 31.9646 15.7433 31.9646 15.7434 31.9646C15.7434 31.9646 15.7434 31.9646 15.7434 31.9646C15.7435 31.9646 15.7435 31.9647 15.7435 31.9647C15.7435 31.9647 15.7435 31.9647 15.7436 31.9647C15.7436 31.9647 15.7436 31.9647 15.7436 31.9647C15.7437 31.9647 15.7437 31.9647 15.7437 31.9647C15.7437 31.9647 15.7438 31.9647 15.7438 31.9647C15.7438 31.9647 15.7438 31.9647 15.7439 31.9647C15.7439 31.9647 15.7439 31.9647 15.7439 31.9647C15.744 31.9647 15.744 31.9647 15.744 31.9647C15.744 31.9647 15.7441 31.9647 15.7441 31.9647C15.7441 31.9647 15.7441 31.9647 15.7442 31.9647C15.7442 31.9647 15.7442 31.9647 15.7442 31.9647C15.7443 31.9647 15.7443 31.9647 15.7443 31.9647C15.7443 31.9647 15.7444 31.9647 15.7444 31.9647C15.7444 31.9647 15.7444 31.9647 15.7445 31.9647C15.7445 31.9647 15.7445 31.9647 15.7445 31.9647C15.7445 31.9647 15.7446 31.9647 15.7446 31.9647C15.7446 31.9647 15.7446 31.9647 15.7447 31.9647C15.7447 31.9647 15.7447 31.9647 15.7447 31.9647C15.7448 31.9647 15.7448 31.9647 15.7448 31.9647C15.7448 31.9647 15.7449 31.9647 15.7449 31.9647C15.7449 31.9647 15.7449 31.9647 15.745 31.9647C15.745 31.9647 15.745 31.9647 15.745 31.9647C15.7451 31.9647 15.7451 31.9647 15.7451 31.9647C15.7451 31.9647 15.7452 31.9647 15.7452 31.9647C15.7452 31.9647 15.7452 31.9647 15.7453 31.9647C15.7453 31.9647 15.7453 31.9647 15.7453 31.9647C15.7453 31.9647 15.7454 31.9647 15.7454 31.9647C15.7454 31.9647 15.7454 31.9647 15.7455 31.9647C15.7455 31.9647 15.7455 31.9647 15.7455 31.9647C15.7456 31.9647 15.7456 31.9647 15.7456 31.9647C15.7456 31.9647 15.7457 31.9647 15.7457 31.9647C15.7457 31.9647 15.7457 31.9647 15.7458 31.9647C15.7458 31.9647 15.7458 31.9647 15.7458 31.9647C15.7459 31.9647 15.7459 31.9647 15.7459 31.9647C15.7459 31.9647 15.746 31.9647 15.746 31.9647C15.746 31.9647 15.746 31.9647 15.7461 31.9647C15.7461 31.9647 15.7461 31.9647 15.7461 31.9647C15.7461 31.9647 15.7462 31.9647 15.7462 31.9647C15.7462 31.9647 15.7462 31.9647 15.7463 31.9647C15.7463 31.9647 15.7463 31.9647 15.7463 31.9647C15.7464 31.9647 15.7464 31.9647 15.7464 31.9647C15.7464 31.9647 15.7465 31.9647 15.7465 31.9647C15.7465 31.9647 15.7465 31.9647 15.7466 31.9648C15.7466 31.9648 15.7466 31.9648 15.7466 31.9648C15.7467 31.9648 15.7467 31.9648 15.7467 31.9648C15.7467 31.9648 15.7468 31.9648 15.7468 31.9648C15.7468 31.9648 15.7468 31.9648 15.7469 31.9648C15.7469 31.9648 15.7469 31.9648 15.7469 31.9648C15.747 31.9648 15.747 31.9648 15.747 31.9648C15.747 31.9648 15.747 31.9648 15.7471 31.9648C15.7471 31.9648 15.7471 31.9648 15.7471 31.9648C15.7472 31.9648 15.7472 31.9648 15.7472 31.9648C15.7472 31.9648 15.7473 31.9648 15.7473 31.9648C15.7473 31.9648 15.7473 31.9648 15.7474 31.9648C15.7474 31.9648 15.7474 31.9648 15.7474 31.9648C15.7475 31.9648 15.7475 31.9648 15.7475 31.9648C15.7475 31.9648 15.7476 31.9648 15.7476 31.9648C15.7476 31.9648 15.7476 31.9648 15.7477 31.9648C15.7477 31.9648 15.7477 31.9648 15.7477 31.9648C15.7478 31.9648 15.7478 31.9648 15.7478 31.9648C15.7478 31.9648 15.7479 31.9648 15.7479 31.9648C15.7479 31.9648 15.7479 31.9648 15.748 31.9648C15.748 31.9648 15.748 31.9648 15.748 31.9648C15.7481 31.9648 15.7481 31.9648 15.7481 31.9648C15.7481 31.9648 15.7482 31.9648 15.7482 31.9648C15.7482 31.9648 15.7482 31.9648 15.7483 31.9648C15.7483 31.9648 15.7483 31.9648 15.7483 31.9648C15.7484 31.9648 15.7484 31.9648 15.7484 31.9648C15.7484 31.9648 15.7485 31.9648 15.7485 31.9648C15.7485 31.9648 15.7485 31.9648 15.7486 31.9648C15.7486 31.9648 15.7486 31.9648 15.7486 31.9648C15.7487 31.9648 15.7487 31.9648 15.7487 31.9648C15.7487 31.9648 15.7488 31.9648 15.7488 31.9648C15.7488 31.9648 15.7488 31.9648 15.7489 31.9648C15.7489 31.9648 15.7489 31.9648 15.7489 31.9648C15.749 31.9648 15.749 31.9648 15.749 31.9648C15.749 31.9648 15.7491 31.9648 15.7491 31.9648C15.7491 31.9648 15.7491 31.9648 15.7492 31.9648C15.7492 31.9648 15.7492 31.9648 15.7492 31.9648C15.7493 31.9648 15.7493 31.9648 15.7493 31.9648C15.7493 31.9648 15.7494 31.9648 15.7494 31.9648C15.7494 31.9648 15.7494 31.9648 15.7495 31.9648C15.7495 31.9648 15.7495 31.9648 15.7495 31.9648C15.7496 31.9648 15.7496 31.9648 15.7496 31.9648C15.7496 31.9648 15.7497 31.9649 15.7497 31.9649C15.7497 31.9649 15.7497 31.9649 15.7498 31.9649C15.7498 31.9649 15.7498 31.9649 15.7498 31.9649C15.7499 31.9649 15.7499 31.9649 15.7499 31.9649C15.7499 31.9649 15.75 31.9649 15.75 31.9649C15.75 31.9649 15.75 31.9649 15.7501 31.9649C15.7501 31.9649 15.7501 31.9649 15.7501 31.9649C15.7502 31.9649 15.7502 31.9649 15.7502 31.9649C15.7502 31.9649 15.7503 31.9649 15.7503 31.9649C15.7503 31.9649 15.7504 31.9649 15.7504 31.9649C15.7504 31.9649 15.7504 31.9649 15.7505 31.9649C15.7505 31.9649 15.7505 31.9649 15.7505 31.9649C15.7506 31.9649 15.7506 31.9649 15.7506 31.9649C15.7506 31.9649 15.7507 31.9649 15.7507 31.9649C15.7507 31.9649 15.7507 31.9649 15.7508 31.9649C15.7508 31.9649 15.7508 31.9649 15.7508 31.9649C15.7509 31.9649 15.7509 31.9649 15.7509 31.9649C15.751 31.9649 15.751 31.9649 15.751 31.9649C15.751 31.9649 15.7511 31.9649 15.7511 31.9649C15.7511 31.9649 15.7511 31.9649 15.7512 31.9649C15.7512 31.9649 15.7512 31.9649 15.7512 31.9649C15.7513 31.9649 15.7513 31.9649 15.7513 31.9649C15.7513 31.9649 15.7514 31.9649 15.7514 31.9649C15.7514 31.9649 15.7515 31.9649 15.7515 31.9649C15.7515 31.9649 15.7515 31.9649 15.7516 31.9649C15.7516 31.9649 15.7516 31.9649 15.7516 31.9649C15.7517 31.9649 15.7517 31.9649 15.7517 31.9649C15.7517 31.9649 15.7518 31.9649 15.7518 31.9649C15.7518 31.9649 15.7519 31.9649 15.7519 31.9649C15.7519 31.9649 15.7519 31.9649 15.752 31.9649C15.752 31.9649 15.752 31.9649 15.752 31.9649C15.7521 31.9649 15.7521 31.9649 15.7521 31.9649C15.7522 31.9649 15.7522 31.9649 15.7522 31.9649C15.7522 31.9649 15.7523 31.9649 15.7523 31.9649C15.7523 31.9649 15.7523 31.9649 15.7524 31.9649C15.7524 31.9649 15.7524 31.9649 15.7525 31.9649C15.7525 31.9649 15.7525 31.9649 15.7525 31.9649C15.7526 31.9649 15.7526 31.9649 15.7526 31.9649C15.7526 31.9649 15.7527 31.9649 15.7527 31.9649C15.7527 31.965 15.7528 31.965 15.7528 31.965C15.7528 31.965 15.7528 31.965 15.7529 31.965C15.7529 31.965 15.7529 31.965 15.753 31.965C15.753 31.965 15.753 31.965 15.753 31.965C15.7531 31.965 15.7531 31.965 15.7531 31.965C15.7531 31.965 15.7532 31.965 15.7532 31.965C15.7532 31.965 15.7533 31.965 15.7533 31.965C15.7533 31.965 15.7533 31.965 15.7534 31.965C15.7534 31.965 15.7534 31.965 15.7535 31.965C15.7535 31.965 15.7535 31.965 15.7535 31.965C15.7536 31.965 15.7536 31.965 15.7536 31.965C15.7537 31.965 15.7537 31.965 15.7537 31.965C15.7537 31.965 15.7538 31.965 15.7538 31.965C15.7538 31.965 15.7539 31.965 15.7539 31.965C15.7539 31.965 15.7539 31.965 15.754 31.965C15.754 31.965 15.754 31.965 15.7541 31.965C15.7541 31.965 15.7541 31.965 15.7541 31.965C15.7542 31.965 15.7542 31.965 15.7542 31.965C15.7543 31.965 15.7543 31.965 15.7543 31.965C15.7543 31.965 15.7544 31.965 15.7544 31.965C15.7544 31.965 15.7545 31.965 15.7545 31.965C15.7545 31.965 15.7546 31.965 15.7546 31.965C15.7546 31.965 15.7546 31.965 15.7547 31.965C15.7547 31.965 15.7547 31.965 15.7548 31.965C15.7548 31.965 15.7548 31.965 15.7548 31.965C15.7549 31.965 15.7549 31.965 15.7549 31.965C15.755 31.965 15.755 31.965 15.755 31.965C15.7551 31.965 15.7551 31.965 15.7551 31.965C15.7551 31.965 15.7552 31.965 15.7552 31.965C15.7552 31.965 15.7553 31.965 15.7553 31.965C15.7553 31.965 15.7554 31.965 15.7554 31.965C15.7554 31.965 15.7554 31.965 15.7555 31.965C15.7555 31.965 15.7555 31.965 15.7556 31.965C15.7556 31.965 15.7556 31.965 15.7557 31.965C15.7557 31.965 15.7557 31.965 15.7557 31.965C15.7558 31.965 15.7558 31.9651 15.7558 31.9651C15.7559 31.9651 15.7559 31.9651 15.7559 31.9651C15.756 31.9651 15.756 31.9651 15.756 31.9651C15.7561 31.9651 15.7561 31.9651 15.7561 31.9651C15.7561 31.9651 15.7562 31.9651 15.7562 31.9651C15.7562 31.9651 15.7563 31.9651 15.7563 31.9651C15.7563 31.9651 15.7564 31.9651 15.7564 31.9651C15.7564 31.9651 15.7565 31.9651 15.7565 31.9651C15.7565 31.9651 15.7566 31.9651 15.7566 31.9651C15.7566 31.9651 15.7567 31.9651 15.7567 31.9651C15.7567 31.9651 15.7567 31.9651 15.7568 31.9651C15.7568 31.9651 15.7568 31.9651 15.7569 31.9651C15.7569 31.9651 15.7569 31.9651 15.757 31.9651C15.757 31.9651 15.757 31.9651 15.7571 31.9651C15.7571 31.9651 15.7571 31.9651 15.7572 31.9651C15.7572 31.9651 15.7572 31.9651 15.7573 31.9651C15.7573 31.9651 15.7573 31.9651 15.7574 31.9651C15.7574 31.9651 15.7574 31.9651 15.7574 31.9651C15.7575 31.9651 15.7575 31.9651 15.7575 31.9651C15.7576 31.9651 15.7576 31.9651 15.7576 31.9651C15.7577 31.9651 15.7577 31.9651 15.7577 31.9651C15.7578 31.9651 15.7578 31.9651 15.7578 31.9651C15.7579 31.9651 15.7579 31.9651 15.7579 31.9651C15.758 31.9651 15.758 31.9651 15.758 31.9651C15.7581 31.9651 15.7581 31.9651 15.7581 31.9651C15.7582 31.9651 15.7582 31.9651 15.7582 31.9651C15.7583 31.9651 15.7583 31.9651 15.7583 31.9651C15.7584 31.9651 15.7584 31.9651 15.7584 31.9651C15.7585 31.9651 15.7585 31.9651 15.7585 31.9651C15.7586 31.9651 15.7586 31.9651 15.7586 31.9651C15.7587 31.9651 15.7587 31.9651 15.7587 31.9651C15.7588 31.9651 15.7588 31.9651 15.7588 31.9651C15.7589 31.9651 15.7589 31.9652 15.7589 31.9652C15.759 31.9652 15.759 31.9652 15.7591 31.9652C15.7591 31.9652 15.7591 31.9652 15.7592 31.9652C15.7592 31.9652 15.7592 31.9652 15.7593 31.9652C15.7593 31.9652 15.7593 31.9652 15.7594 31.9652C15.7594 31.9652 15.7594 31.9652 15.7595 31.9652C15.7595 31.9652 15.7595 31.9652 15.7596 31.9652C15.7596 31.9652 15.7596 31.9652 15.7597 31.9652C15.7597 31.9652 15.7597 31.9652 15.7598 31.9652C15.7598 31.9652 15.7599 31.9652 15.7599 31.9652C15.7599 31.9652 15.76 31.9652 15.76 31.9652C15.76 31.9652 15.7601 31.9652 15.7601 31.9652C15.7601 31.9652 15.7602 31.9652 15.7602 31.9652C15.7602 31.9652 15.7603 31.9652 15.7603 31.9652C15.7603 31.9652 15.7604 31.9652 15.7604 31.9652C15.7605 31.9652 15.7605 31.9652 15.7605 31.9652C15.7606 31.9652 15.7606 31.9652 15.7606 31.9652C15.7607 31.9652 15.7607 31.9652 15.7607 31.9652C15.7608 31.9652 15.7608 31.9652 15.7609 31.9652C15.7609 31.9652 15.7609 31.9652 15.761 31.9652C15.761 31.9652 15.761 31.9652 15.7611 31.9652C15.7611 31.9652 15.7611 31.9652 15.7612 31.9652C15.7612 31.9652 15.7613 31.9652 15.7613 31.9652C15.7613 31.9652 15.7614 31.9652 15.7614 31.9652C15.7614 31.9652 15.7615 31.9652 15.7615 31.9652C15.7616 31.9652 15.7616 31.9652 15.7616 31.9652C15.7617 31.9652 15.7617 31.9652 15.7617 31.9652C15.7618 31.9652 15.7618 31.9652 15.7619 31.9652C15.7619 31.9652 15.7619 31.9652 15.762 31.9653C15.762 31.9653 15.762 31.9653 15.7621 31.9653C15.7621 31.9653 15.7622 31.9653 15.7622 31.9653C15.7622 31.9653 15.7623 31.9653 15.7623 31.9653C15.7624 31.9653 15.7624 31.9653 15.7624 31.9653C15.7625 31.9653 15.7625 31.9653 15.7625 31.9653C15.7626 31.9653 15.7626 31.9653 15.7627 31.9653C15.7627 31.9653 15.7627 31.9653 15.7628 31.9653C15.7628 31.9653 15.7629 31.9653 15.7629 31.9653C15.7629 31.9653 15.763 31.9653 15.763 31.9653C15.763 31.9653 15.7631 31.9653 15.7631 31.9653C15.7632 31.9653 15.7632 31.9653 15.7632 31.9653C15.7633 31.9653 15.7633 31.9653 15.7634 31.9653C15.7634 31.9653 15.7634 31.9653 15.7635 31.9653C15.7635 31.9653 15.7636 31.9653 15.7636 31.9653C15.7636 31.9653 15.7637 31.9653 15.7637 31.9653C15.7638 31.9653 15.7638 31.9653 15.7638 31.9653C15.7639 31.9653 15.7639 31.9653 15.764 31.9653C15.764 31.9653 15.764 31.9653 15.7641 31.9653C15.7641 31.9653 15.7642 31.9653 15.7642 31.9653C15.7642 31.9653 15.7643 31.9653 15.7643 31.9653C15.7644 31.9653 15.7644 31.9653 15.7645 31.9653C15.7645 31.9653 15.7645 31.9653 15.7646 31.9653C15.7646 31.9653 15.7647 31.9653 15.7647 31.9653C15.7647 31.9653 15.7648 31.9653 15.7648 31.9653C15.7649 31.9653 15.7649 31.9653 15.7649 31.9653C15.765 31.9653 15.765 31.9653 15.7651 31.9654C15.7651 31.9654 15.7652 31.9654 15.7652 31.9654C15.7652 31.9654 15.7653 31.9654 15.7653 31.9654C15.7654 31.9654 15.7654 31.9654 15.7655 31.9654C15.7655 31.9654 15.7655 31.9654 15.7656 31.9654C15.7656 31.9654 15.7657 31.9654 15.7657 31.9654C15.7657 31.9654 15.7658 31.9654 15.7658 31.9654C15.7659 31.9654 15.7659 31.9654 15.766 31.9654C15.766 31.9654 15.766 31.9654 15.7661 31.9654C15.7661 31.9654 15.7662 31.9654 15.7662 31.9654C15.7663 31.9654 15.7663 31.9654 15.7664 31.9654C15.7664 31.9654 15.7664 31.9654 15.7665 31.9654C15.7665 31.9654 15.7666 31.9654 15.7666 31.9654C15.7667 31.9654 15.7667 31.9654 15.7667 31.9654C15.7668 31.9654 15.7668 31.9654 15.7669 31.9654C15.7669 31.9654 15.767 31.9654 15.767 31.9654C15.7671 31.9654 15.7671 31.9654 15.7671 31.9654C15.7672 31.9654 15.7672 31.9654 15.7673 31.9654C15.7673 31.9654 15.7674 31.9654 15.7674 31.9654C15.7675 31.9654 15.7675 31.9654 15.7675 31.9654C15.7676 31.9654 15.7676 31.9654 15.7677 31.9654C15.7677 31.9654 15.7678 31.9654 15.7678 31.9654C15.7679 31.9654 15.7679 31.9654 15.768 31.9654C15.768 31.9654 15.768 31.9654 15.7681 31.9654C15.7681 31.9655 15.7682 31.9655 15.7682 31.9655C15.7683 31.9655 15.7683 31.9655 15.7684 31.9655C15.7684 31.9655 15.7685 31.9655 15.7685 31.9655C15.7685 31.9655 15.7686 31.9655 15.7686 31.9655C15.7687 31.9655 15.7687 31.9655 15.7688 31.9655C15.7688 31.9655 15.7689 31.9655 15.7689 31.9655C15.769 31.9655 15.769 31.9655 15.7691 31.9655C15.7691 31.9655 15.7692 31.9655 15.7692 31.9655C15.7693 31.9655 15.7693 31.9655 15.7693 31.9655C15.7694 31.9655 15.7694 31.9655 15.7695 31.9655C15.7695 31.9655 15.7696 31.9655 15.7696 31.9655C15.7697 31.9655 15.7697 31.9655 15.7698 31.9655C15.7698 31.9655 15.7699 31.9655 15.7699 31.9655C15.77 31.9655 15.77 31.9655 15.7701 31.9655C15.7701 31.9655 15.7702 31.9655 15.7702 31.9655L16.5486 7.97814ZM22.3218 9.70323L18.5949 7.44828L6.17086 27.9823L9.89777 30.2372L22.3218 9.70323ZM20.9463 9.30886C21.5443 9.91806 22.9908 11.5069 23.793 14.0684C24.5044 16.3402 24.3158 18.4468 24.3308 17.9844L0.343399 17.206C0.343388 17.2064 0.343132 17.2142 0.342854 17.2231C0.342555 17.2326 0.342081 17.248 0.341553 17.2668C0.340537 17.3029 0.338918 17.3656 0.337826 17.4432C0.335736 17.5918 0.334359 17.8635 0.350629 18.2024C0.385186 18.9224 0.500011 19.9963 0.88977 21.2409C1.70319 23.8383 3.17332 25.4635 3.81944 26.1217L20.9463 9.30886ZM20.3375 26.5391C20.5114 26.3836 19.8688 26.9893 19.0412 27.5422C18.3129 28.0287 15.7523 29.6649 12.0239 29.544L12.8022 5.55658C9.04895 5.43479 6.46322 7.08206 5.70952 7.58555C5.2062 7.92179 4.83322 8.22629 4.64761 8.38188C4.54582 8.4672 4.46479 8.53794 4.41683 8.58016C4.392 8.60203 4.37172 8.62005 4.35896 8.63142C4.34715 8.64195 4.3368 8.65121 4.33667 8.65132L20.3375 26.5391ZM12.0239 29.544L19.6408 29.7911L20.4192 5.80375L12.8022 5.55658L12.0239 29.544ZM19.6408 29.7911C17.8583 29.7333 15.2535 29.2294 12.7867 27.3392C10.2394 25.3874 7.96451 21.9184 8.10925 17.458L32.0966 18.2364C32.4223 8.19971 23.0967 5.89063 20.4192 5.80375L19.6408 29.7911ZM8.10925 17.458C8.10587 17.5621 8.08746 15.6789 8.90017 13.5733C9.90384 10.973 11.9873 8.37164 15.2349 6.94889L24.8656 28.9318C28.1635 27.487 30.273 24.8509 31.2902 22.2154C31.7352 21.0625 31.919 20.0589 32.0042 19.393C32.0479 19.052 32.0696 18.7669 32.0814 18.5682C32.0874 18.4683 32.091 18.3855 32.0933 18.3289C32.0944 18.3006 32.0952 18.2773 32.0958 18.2618C32.096 18.2541 32.0963 18.2477 32.0964 18.2435C32.0965 18.2414 32.0965 18.2396 32.0966 18.2385C32.0966 18.2374 32.0966 18.2365 32.0966 18.2364L8.10925 17.458ZM14.5465 7.27692L10.6564 9.2847L21.6639 30.6116L25.554 28.6038L14.5465 7.27692ZM7.59674 28.3546C7.1971 27.9475 5.57952 26.2975 4.7186 23.5484C4.22486 21.9718 3.88266 19.7074 4.51144 17.1262C5.16034 14.4625 6.61147 12.4179 8.16843 11.0252C9.61408 9.7321 11.0626 9.0656 11.9845 8.72288C12.9392 8.36799 13.7592 8.20224 14.2959 8.1177C14.8563 8.02943 15.3304 7.99573 15.6702 7.98183C15.8482 7.97456 16.0104 7.9719 16.1541 7.97183C16.2265 7.9718 16.2955 7.97242 16.361 7.97352C16.3938 7.97407 16.4258 7.97475 16.4571 7.97552C16.4727 7.97591 16.4881 7.97632 16.5034 7.97676C16.511 7.97698 16.5186 7.97721 16.5262 7.97744C16.5299 7.97755 16.5356 7.97773 16.5374 7.97779C16.543 7.97796 16.5487 7.97815 16.1594 19.9718C15.7701 31.9655 15.7757 31.9657 15.7814 31.9659C15.7832 31.9659 15.7889 31.9661 15.7926 31.9662C15.8002 31.9665 15.8078 31.9667 15.8154 31.9669C15.8307 31.9673 15.8461 31.9678 15.8618 31.9681C15.893 31.9689 15.9251 31.9696 15.9579 31.9701C16.0235 31.9712 16.0927 31.9719 16.1652 31.9718C16.3093 31.9718 16.472 31.9691 16.6506 31.9618C16.9917 31.9479 17.4675 31.914 18.0299 31.8254C18.6691 31.7248 21.5243 31.2789 24.1692 28.9131C25.7277 27.519 27.1801 25.4726 27.8295 22.8066C28.4589 20.2231 28.1166 17.9559 27.6218 16.376C26.7588 13.6201 25.1352 11.9611 24.7236 11.5417L7.59674 28.3546ZM6.51511 27.9916L9.94967 30.0711L22.3799 9.54092L18.9453 7.46143L6.51511 27.9916ZM21.6692 30.4691L25.2562 28.6175L14.2473 7.29131L10.6603 9.14295L21.6692 30.4691ZM20.1409 5.9607L13.1194 5.73285L12.341 29.7202L19.3625 29.9481L20.1409 5.9607Z" fill="white" mask="url(#path-17-inside-1_441_841)"/>
</g>
<g clip-path="url(#clip1_441_841)">
<path d="M61.049 11.0168H55.3646C54.9939 11.0168 54.7056 10.7403 54.7056 10.3848V6.86888C54.7056 6.51335 55.0351 6.23682 55.3646 6.23682H61.049C61.4197 6.23682 61.7081 6.51335 61.7081 6.86888V10.3848C61.7081 10.7403 61.4197 11.0168 61.049 11.0168ZM55.3646 6.43434C55.1175 6.43434 54.9115 6.63186 54.9115 6.86888V10.3848C54.9115 10.6218 55.1175 10.8193 55.3646 10.8193H61.049C61.2962 10.8193 61.5021 10.6218 61.5021 10.3848V6.86888C61.5021 6.63186 61.2962 6.43434 61.049 6.43434H55.3646Z" fill="white"/>
<path d="M60.8845 10.6218H55.5708C55.3236 10.6218 55.1177 10.4242 55.1177 10.1872V7.02688C55.1177 6.82936 55.3236 6.63184 55.5708 6.63184H60.8845C61.1316 6.63184 61.3376 6.82936 61.3376 7.06638V10.2267C61.2964 10.4242 61.1316 10.6218 60.8845 10.6218ZM55.5708 6.82936C55.4472 6.82936 55.3236 6.94787 55.3236 7.06638V10.2267C55.3236 10.3452 55.4472 10.4637 55.5708 10.4637H60.8845C61.008 10.4637 61.1316 10.3452 61.1316 10.2267V7.06638C61.1316 6.94787 61.008 6.82936 60.8845 6.82936H55.5708V6.82936Z" fill="white"/>
<path d="M61.3786 11.8859H54.9528C54.7056 11.8859 54.4585 11.6884 54.4585 11.4118C54.4585 11.1748 54.6645 10.9773 54.9528 10.9773H61.4198C61.667 10.9773 61.9141 11.1748 61.9141 11.4513C61.8729 11.6884 61.667 11.8859 61.3786 11.8859ZM54.9528 11.1748C54.788 11.1748 54.6645 11.2933 54.6645 11.4513C54.6645 11.6094 54.788 11.7279 54.9528 11.7279H61.4198C61.5846 11.7279 61.7082 11.6094 61.7082 11.4513C61.7082 11.2933 61.5846 11.1748 61.4198 11.1748H54.9528Z" fill="white"/>
</g>
<g clip-path="url(#clip2_441_841)">
<path d="M80.89 23.5373H79.8018C79.7293 23.5373 79.6809 23.4858 79.6809 23.4086V19.6756C79.6809 19.5984 79.7293 19.5469 79.8018 19.5469H80.9142C80.9868 19.5469 81.0351 19.5984 81.0351 19.6756V23.4086C81.011 23.46 80.9626 23.5373 80.89 23.5373ZM79.9227 23.2798H80.7933V19.8043H79.9227V23.2798Z" fill="white"/>
<path d="M83.4777 23.5372H82.3653C82.2928 23.5372 82.2444 23.4857 82.2444 23.4084V20.6795C82.2444 20.6023 82.2928 20.5508 82.3653 20.5508H83.4777C83.5503 20.5508 83.5986 20.6023 83.5986 20.6795V23.3827C83.5986 23.4599 83.5503 23.5372 83.4777 23.5372ZM82.5104 23.2797H83.381V20.8082H82.5104V23.2797V23.2797Z" fill="white"/>
<path d="M86.0651 23.5371H84.9769C84.9043 23.5371 84.856 23.4857 84.856 23.4084V18.105C84.856 18.0278 84.9043 17.9763 84.9769 17.9763H86.0893C86.1618 17.9763 86.2102 18.0278 86.2102 18.105V23.4084C86.186 23.4599 86.1376 23.5371 86.0651 23.5371ZM85.0978 23.2797H85.9684V18.2338H85.0978V23.2797Z" fill="white"/>
<path d="M82.8247 20.0103C82.8005 20.0103 82.7763 20.0103 82.7521 19.9845L80.8659 18.028H79.294C79.2215 18.028 79.1731 17.9765 79.1731 17.925C79.1731 17.8478 79.2215 17.7963 79.294 17.7963H80.9143C80.9384 17.7963 80.9626 17.7963 80.9868 17.822L82.8005 19.6756L84.2757 16.5863C84.2998 16.5348 84.3482 16.509 84.3724 16.509H85.3881C85.4606 16.509 85.509 16.5605 85.509 16.6378C85.509 16.715 85.4606 16.7665 85.3881 16.7665H84.4449L82.9456 19.9331C82.9214 19.9588 82.8972 19.9845 82.8247 20.0103C82.8489 20.0103 82.8489 20.0103 82.8247 20.0103Z" fill="white"/>
<path d="M86.2345 16.6377L85.0496 17.1526L85.3398 16.6377L85.0496 16.1228L86.2345 16.6377Z" fill="white"/>
</g>
<g clip-path="url(#clip3_441_841)">
<path d="M33.6275 16.1227L34.7366 14.7987H38.7489C39.2382 14.7987 39.6296 14.4376 39.6296 13.9862V11.6391C39.6296 11.1878 39.2382 10.8267 38.7489 10.8267H34.4756C33.9863 10.8267 33.5949 11.1878 33.5949 11.6391V16.1227H33.6275ZM38.7489 11.0373C39.1077 11.0373 39.4013 11.3081 39.4013 11.6391V13.9862C39.4013 14.3172 39.1077 14.588 38.7489 14.588H34.6061L33.8232 15.5209V11.6391C33.8232 11.3081 34.1168 11.0373 34.4756 11.0373H38.7489V11.0373Z" fill="white"/>
</g>
<defs>
<clipPath id="clip0_441_841">
<rect width="7.79476" height="4.76346" fill="white" transform="translate(12.3386 17.5479) rotate(1.85857)"/>
</clipPath>
<clipPath id="clip1_441_841">
<rect width="7.41443" height="5.64909" fill="white" transform="translate(54.4585 6.23682)"/>
</clipPath>
<clipPath id="clip2_441_841">
<rect x="79.1731" y="16.1228" width="7.06136" height="7.41443" fill="white"/>
</clipPath>
<clipPath id="clip3_441_841">
<rect width="6.00216" height="5.29602" fill="white" transform="matrix(-1 0 0 1 39.6296 10.8267)"/>
</clipPath>
</defs>
</svg>
