<svg width="61" height="48" viewBox="0 0 61 48" fill="none" xmlns="http://www.w3.org/2000/svg">
<path d="M60.0642 6.5483C57.8723 7.48872 55.5177 8.12414 53.0423 8.41134C55.5964 6.93157 57.5073 4.60257 58.4183 1.85893C56.0187 3.23903 53.3923 4.21046 50.6536 4.73101C48.8118 2.82696 46.3723 1.56492 43.7139 1.14084C41.0555 0.716758 38.3268 1.15436 35.9516 2.38569C33.5763 3.61703 31.6873 5.57322 30.578 7.95055C29.4686 10.3279 29.2008 12.9933 29.8163 15.5331C24.954 15.2967 20.1973 14.073 15.8551 11.9415C11.5128 9.80992 7.6819 6.81813 4.61106 3.16026C3.56106 4.91401 2.95731 6.94734 2.95731 9.11284C2.95614 11.0623 3.45195 12.9819 4.40074 14.7013C5.34954 16.4207 6.72199 17.8868 8.39631 18.9694C6.45454 18.9096 4.5556 18.4016 2.85756 17.4876V17.6401C2.85737 20.3743 3.83415 23.0243 5.62217 25.1406C7.41019 27.2568 9.89931 28.7089 12.6672 29.2505C10.8659 29.7225 8.97732 29.792 7.14419 29.4538C7.92512 31.8064 9.4463 33.8637 11.4948 35.3376C13.5433 36.8115 16.0165 37.6283 18.5682 37.6736C14.2365 40.9661 8.88689 42.752 3.37994 42.7442C2.40444 42.7444 1.42976 42.6893 0.460938 42.579C6.05081 46.059 12.5578 47.9058 19.2034 47.8987C41.6997 47.8987 53.9978 29.8579 53.9978 14.2114C53.9978 13.7031 53.9847 13.1897 53.9611 12.6813C56.3532 11.0063 58.4181 8.93212 60.0589 6.55593L60.0642 6.5483Z" fill="#338ECD"/>
</svg>
