<svg width="50" height="41" viewBox="0 0 50 41" fill="none" xmlns="http://www.w3.org/2000/svg">
<path d="M49.2276 5.49111C47.4184 6.27736 45.4749 6.80861 43.4317 7.04873C45.5399 5.81154 47.1171 3.86435 47.8691 1.57048C45.8884 2.72433 43.7207 3.53652 41.4601 3.97173C39.9399 2.37982 37.9264 1.32467 35.7321 0.970113C33.5379 0.615552 31.2856 0.981412 29.3251 2.01089C27.3646 3.04037 25.8054 4.67587 24.8897 6.66348C23.9741 8.65108 23.7531 10.8796 24.2611 13.003C20.2477 12.8053 16.3216 11.7823 12.7375 10.0002C9.15339 8.21803 5.99141 5.7167 3.45675 2.65848C2.59008 4.12473 2.09175 5.82473 2.09175 7.63523C2.09078 9.2651 2.50002 10.87 3.28315 12.3075C4.06629 13.7451 5.1991 14.9708 6.58108 15.876C4.97835 15.826 3.41097 15.4012 2.00942 14.6371V14.7646C2.00925 17.0506 2.81549 19.2662 4.29131 21.0355C5.76714 22.8048 7.82165 24.0188 10.1062 24.4716C8.61945 24.8663 7.06065 24.9244 5.54758 24.6416C6.19216 26.6085 7.44774 28.3285 9.13855 29.5608C10.8294 30.7931 12.8707 31.476 14.9769 31.5139C11.4016 34.2666 6.98601 35.7598 2.44058 35.7532C1.63541 35.7534 0.830915 35.7073 0.03125 35.6151C4.64511 38.5246 10.016 40.0687 15.5012 40.0627C34.0696 40.0627 44.2204 24.9795 44.2204 11.898C44.2204 11.473 44.2096 11.0437 44.1901 10.6187C46.1645 9.2183 47.8689 7.48413 49.2232 5.49748L49.2276 5.49111V5.49111Z" fill="#83C441"/>
</svg>
