<svg width="72" height="72" viewBox="0 0 72 72" fill="none" xmlns="http://www.w3.org/2000/svg">
<mask id="path-1-inside-1_385_150" fill="white">
<path d="M0.0144482 72L4.88164 54.1152C1.67454 48.6174 -0.0104063 42.3647 4.8356e-05 36C4.8356e-05 16.1172 16.1172 0 36 0C55.8828 0 72 16.1172 72 36C72 55.8828 55.8828 72 36 72C29.638 72.0102 23.388 70.3266 17.892 67.122L0.0144482 72ZM23.0076 19.1088C22.5427 19.1377 22.0885 19.2601 21.672 19.4688C21.2815 19.6899 20.925 19.9664 20.6136 20.2896C20.1816 20.6964 19.9368 21.0492 19.674 21.3912C18.3435 23.1228 17.6278 25.2483 17.64 27.432C17.6472 29.196 18.108 30.9132 18.828 32.5188C20.3004 35.766 22.7232 39.204 25.9236 42.39C26.694 43.1568 27.4464 43.9272 28.2564 44.6436C32.2286 48.1408 36.9621 50.6629 42.0804 52.0092L44.1288 52.3224C44.7948 52.3584 45.4608 52.308 46.1304 52.2756C47.1789 52.2214 48.2026 51.9375 49.1292 51.444C49.6007 51.2011 50.0607 50.9369 50.508 50.652C50.508 50.652 50.6628 50.5512 50.958 50.328C51.444 49.968 51.7428 49.7124 52.146 49.2912C52.4448 48.9816 52.704 48.618 52.902 48.204C53.1828 47.6172 53.4636 46.4976 53.5788 45.5652C53.6652 44.8524 53.64 44.4636 53.6292 44.2224C53.6148 43.8372 53.2944 43.4376 52.9452 43.2684L50.85 42.3288C50.85 42.3288 47.718 40.9644 45.8064 40.0932C45.6049 40.0053 45.3889 39.9553 45.1692 39.9456C44.9229 39.9203 44.674 39.948 44.4393 40.0268C44.2046 40.1057 43.9895 40.2339 43.8084 40.4028V40.3956C43.7904 40.3956 43.5492 40.6008 40.9464 43.7544C40.797 43.9551 40.5912 44.1068 40.3553 44.1902C40.1194 44.2735 39.864 44.2847 39.6216 44.2224C39.3871 44.1596 39.1573 44.0802 38.934 43.9848C38.4876 43.7976 38.3328 43.7256 38.0268 43.5924L38.0088 43.5852C35.9493 42.686 34.0424 41.4714 32.3568 39.9852C31.9032 39.5892 31.482 39.1572 31.05 38.7396C29.6337 37.3832 28.3994 35.8488 27.378 34.1748L27.1656 33.8328C27.0131 33.603 26.8897 33.3551 26.7984 33.0948C26.6616 32.5656 27.018 32.1408 27.018 32.1408C27.018 32.1408 27.8928 31.1832 28.2996 30.6648C28.6383 30.2339 28.9544 29.7857 29.2464 29.322C29.6712 28.638 29.8044 27.936 29.5812 27.3924C28.5732 24.93 27.5292 22.4784 26.4564 20.0448C26.244 19.5624 25.614 19.2168 25.0416 19.1484C24.8472 19.1268 24.6528 19.1052 24.4584 19.0908C23.975 19.0668 23.4905 19.0716 23.0076 19.1052V19.1088Z"/>
</mask>
<path d="M0.0144482 72L4.88164 54.1152C1.67454 48.6174 -0.0104063 42.3647 4.8356e-05 36C4.8356e-05 16.1172 16.1172 0 36 0C55.8828 0 72 16.1172 72 36C72 55.8828 55.8828 72 36 72C29.638 72.0102 23.388 70.3266 17.892 67.122L0.0144482 72ZM23.0076 19.1088C22.5427 19.1377 22.0885 19.2601 21.672 19.4688C21.2815 19.6899 20.925 19.9664 20.6136 20.2896C20.1816 20.6964 19.9368 21.0492 19.674 21.3912C18.3435 23.1228 17.6278 25.2483 17.64 27.432C17.6472 29.196 18.108 30.9132 18.828 32.5188C20.3004 35.766 22.7232 39.204 25.9236 42.39C26.694 43.1568 27.4464 43.9272 28.2564 44.6436C32.2286 48.1408 36.9621 50.6629 42.0804 52.0092L44.1288 52.3224C44.7948 52.3584 45.4608 52.308 46.1304 52.2756C47.1789 52.2214 48.2026 51.9375 49.1292 51.444C49.6007 51.2011 50.0607 50.9369 50.508 50.652C50.508 50.652 50.6628 50.5512 50.958 50.328C51.444 49.968 51.7428 49.7124 52.146 49.2912C52.4448 48.9816 52.704 48.618 52.902 48.204C53.1828 47.6172 53.4636 46.4976 53.5788 45.5652C53.6652 44.8524 53.64 44.4636 53.6292 44.2224C53.6148 43.8372 53.2944 43.4376 52.9452 43.2684L50.85 42.3288C50.85 42.3288 47.718 40.9644 45.8064 40.0932C45.6049 40.0053 45.3889 39.9553 45.1692 39.9456C44.9229 39.9203 44.674 39.948 44.4393 40.0268C44.2046 40.1057 43.9895 40.2339 43.8084 40.4028V40.3956C43.7904 40.3956 43.5492 40.6008 40.9464 43.7544C40.797 43.9551 40.5912 44.1068 40.3553 44.1902C40.1194 44.2735 39.864 44.2847 39.6216 44.2224C39.3871 44.1596 39.1573 44.0802 38.934 43.9848C38.4876 43.7976 38.3328 43.7256 38.0268 43.5924L38.0088 43.5852C35.9493 42.686 34.0424 41.4714 32.3568 39.9852C31.9032 39.5892 31.482 39.1572 31.05 38.7396C29.6337 37.3832 28.3994 35.8488 27.378 34.1748L27.1656 33.8328C27.0131 33.603 26.8897 33.3551 26.7984 33.0948C26.6616 32.5656 27.018 32.1408 27.018 32.1408C27.018 32.1408 27.8928 31.1832 28.2996 30.6648C28.6383 30.2339 28.9544 29.7857 29.2464 29.322C29.6712 28.638 29.8044 27.936 29.5812 27.3924C28.5732 24.93 27.5292 22.4784 26.4564 20.0448C26.244 19.5624 25.614 19.2168 25.0416 19.1484C24.8472 19.1268 24.6528 19.1052 24.4584 19.0908C23.975 19.0668 23.4905 19.0716 23.0076 19.1052V19.1088Z" fill="#3A2A68"/>
<path d="M0.0144482 72L-1.91537 71.4748L-2.83398 74.8503L0.540913 73.9294L0.0144482 72ZM4.88164 54.1152L6.81146 54.6403L7.03158 53.8315L6.60919 53.1074L4.88164 54.1152ZM4.8356e-05 36L2.00005 36.0033V36H4.8356e-05ZM36 72V69.9999L35.9968 70L36 72ZM17.892 67.122L18.8995 65.3942L18.1748 64.9717L17.3656 65.1925L17.892 67.122ZM23.0076 19.1088L23.1316 21.1049L25.0076 20.9885V19.1088H23.0076ZM21.672 19.4688L20.776 17.6807L20.7306 17.7035L20.6865 17.7285L21.672 19.4688ZM20.6136 20.2896L21.9847 21.7456L22.0202 21.7123L22.0539 21.6772L20.6136 20.2896ZM19.674 21.3912L18.0882 20.1726L18.0881 20.1726L19.674 21.3912ZM17.64 27.432L19.64 27.4238L19.64 27.4208L17.64 27.432ZM18.828 32.5188L17.0031 33.3371L17.0065 33.3447L18.828 32.5188ZM25.9236 42.39L24.5126 43.8074L24.5127 43.8075L25.9236 42.39ZM28.2564 44.6436L26.9314 46.1417L26.9348 46.1447L28.2564 44.6436ZM42.0804 52.0092L41.5717 53.9434L41.6738 53.9702L41.7781 53.9862L42.0804 52.0092ZM44.1288 52.3224L43.8265 54.2994L43.9232 54.3142L44.0209 54.3195L44.1288 52.3224ZM46.1304 52.2756L46.2271 54.2732L46.2335 54.2729L46.1304 52.2756ZM49.1292 51.444L48.2134 49.666L48.2011 49.6723L48.1889 49.6788L49.1292 51.444ZM50.508 50.652L51.5824 52.3389L53.6845 51L51.9222 49.2378L50.508 50.652ZM50.958 50.328L49.7676 48.7208L49.7597 48.7267L49.7518 48.7326L50.958 50.328ZM52.146 49.2912L50.7069 47.9023L50.7013 47.9082L52.146 49.2912ZM52.902 48.204L51.0979 47.3407L51.0977 47.3411L52.902 48.204ZM53.5788 45.5652L55.5637 45.8104L55.5643 45.8058L53.5788 45.5652ZM53.6292 44.2224L51.6306 44.2971L51.6309 44.3045L51.6312 44.3118L53.6292 44.2224ZM52.9452 43.2684L53.8173 41.4685L53.7906 41.4556L53.7636 41.4435L52.9452 43.2684ZM50.85 42.3288L51.6684 40.5039L51.6586 40.4995L51.6488 40.4952L50.85 42.3288ZM45.8064 40.0932L46.6358 38.2733L46.6208 38.2664L46.6056 38.2598L45.8064 40.0932ZM45.1692 39.9456L44.9649 41.9351L45.0228 41.9411L45.0809 41.9436L45.1692 39.9456ZM43.8084 40.4028H41.8084V45.0031L45.1726 41.8653L43.8084 40.4028ZM43.8084 40.3956H45.8084V38.3956H43.8084V40.3956ZM40.9464 43.7544L39.4039 42.4813L39.372 42.52L39.342 42.5603L40.9464 43.7544ZM39.6216 44.2224L39.105 46.1545L39.1141 46.1569L39.1232 46.1593L39.6216 44.2224ZM38.934 43.9848L39.7205 42.1458L39.7075 42.1404L38.934 43.9848ZM38.0268 43.5924L38.8251 41.7586L38.7975 41.7466L38.7695 41.7354L38.0268 43.5924ZM38.0088 43.5852L37.2086 45.4181L37.2371 45.4306L37.2661 45.4422L38.0088 43.5852ZM32.3568 39.9852L33.6796 38.485L33.6721 38.4785L32.3568 39.9852ZM31.05 38.7396L32.4401 37.3016L32.4333 37.2951L31.05 38.7396ZM27.378 34.1748L29.0853 33.1331L29.0812 33.1263L29.077 33.1196L27.378 34.1748ZM27.1656 33.8328L28.8646 32.7776L28.8486 32.7519L28.8319 32.7266L27.1656 33.8328ZM26.7984 33.0948L24.8621 33.5953L24.8832 33.6771L24.9112 33.7567L26.7984 33.0948ZM27.018 32.1408L25.5414 30.7918L25.513 30.823L25.4859 30.8553L27.018 32.1408ZM28.2996 30.6648L26.7274 29.4287L26.7262 29.4301L28.2996 30.6648ZM29.2464 29.322L30.9388 30.3878L30.9454 30.3772L29.2464 29.322ZM29.5812 27.3924L27.7303 28.1501L27.7311 28.152L29.5812 27.3924ZM26.4564 20.0448L24.626 20.8507L24.6264 20.8515L26.4564 20.0448ZM25.0416 19.1484L25.2789 17.1625L25.2707 17.1615L25.2625 17.1606L25.0416 19.1484ZM24.4584 19.0908L24.6062 17.0963L24.5819 17.0945L24.5577 17.0933L24.4584 19.0908ZM23.0076 19.1052L22.8688 17.11L21.0076 17.2396V19.1052H23.0076ZM1.94426 72.5251L6.81146 54.6403L2.95183 53.59L-1.91537 71.4748L1.94426 72.5251ZM6.60919 53.1074C3.58108 47.9165 1.99017 42.0128 2.00005 36.0033L-1.99995 35.9967C-2.01099 42.7167 -0.231996 49.3184 3.1541 55.1229L6.60919 53.1074ZM2.00005 36C2.00005 17.2218 17.2218 2 36 2V-2C15.0127 -2 -1.99995 15.0126 -1.99995 36H2.00005ZM36 2C54.7782 2 70 17.2218 70 36H74C74 15.0126 56.9874 -2 36 -2V2ZM70 36C70 54.7782 54.7782 70 36 70V74C56.9874 74 74 56.9873 74 36H70ZM35.9968 70C29.9899 70.0097 24.0887 68.42 18.8995 65.3942L16.8846 68.8497C22.6873 72.2332 29.2862 74.0108 36.0033 73.9999L35.9968 70ZM17.3656 65.1925L-0.512017 70.0705L0.540913 73.9294L18.4185 69.0514L17.3656 65.1925ZM22.8837 17.1126C22.15 17.1582 21.4331 17.3514 20.776 17.6807L22.5681 21.2568C22.7438 21.1688 22.9354 21.1171 23.1316 21.1049L22.8837 17.1126ZM20.6865 17.7285C20.1282 18.0446 19.6185 18.4399 19.1734 18.9019L22.0539 21.6772C22.2315 21.4929 22.4348 21.3352 22.6576 21.2091L20.6865 17.7285ZM19.2425 18.8335C18.6644 19.378 18.3043 19.8914 18.0882 20.1726L21.2599 22.6098C21.5694 22.207 21.6989 22.0148 21.9847 21.7456L19.2425 18.8335ZM18.0881 20.1726C16.4868 22.2567 15.6254 24.8149 15.6401 27.4432L19.64 27.4208C19.6303 25.6817 20.2003 23.9888 21.2599 22.6098L18.0881 20.1726ZM15.6401 27.4401C15.6487 29.5474 16.1983 31.5423 17.0031 33.3371L20.6529 31.7004C20.0178 30.2841 19.6458 28.8445 19.64 27.4238L15.6401 27.4401ZM17.0065 33.3447C18.5941 36.8459 21.169 40.4788 24.5126 43.8074L27.3347 40.9726C24.2775 37.9292 22.0068 34.6861 20.6495 31.6928L17.0065 33.3447ZM24.5127 43.8075C25.2546 44.5459 26.0646 45.375 26.9314 46.1417L29.5814 43.1455C28.8283 42.4793 28.1335 41.7677 27.3345 40.9724L24.5127 43.8075ZM26.9348 46.1447C31.1406 49.8476 36.1524 52.518 41.5717 53.9434L42.5892 50.075C37.7719 48.8079 33.3167 46.4341 29.5781 43.1425L26.9348 46.1447ZM41.7781 53.9862L43.8265 54.2994L44.4311 50.3453L42.3827 50.0321L41.7781 53.9862ZM44.0209 54.3195C44.8195 54.3626 45.6341 54.3019 46.2271 54.2732L46.0338 50.2779C45.2876 50.314 44.7701 50.3541 44.2368 50.3253L44.0209 54.3195ZM46.2335 54.2729C47.5747 54.2037 48.8842 53.8405 50.0695 53.2091L48.1889 49.6788C47.521 50.0346 46.7831 50.2392 46.0273 50.2782L46.2335 54.2729ZM50.0451 53.222C50.5707 52.9512 51.0837 52.6565 51.5824 52.3389L49.4336 48.9651C49.0377 49.2172 48.6306 49.4511 48.2134 49.666L50.0451 53.222ZM50.508 50.652C51.5994 52.328 51.5995 52.3279 51.5996 52.3278C51.5996 52.3278 51.5998 52.3277 51.5998 52.3277C51.6 52.3275 51.6002 52.3274 51.6003 52.3273C51.6006 52.3271 51.601 52.3269 51.6013 52.3267C51.602 52.3262 51.6027 52.3258 51.6035 52.3253C51.605 52.3243 51.6067 52.3232 51.6085 52.322C51.6122 52.3196 51.6164 52.3168 51.6213 52.3135C51.631 52.3071 51.643 52.299 51.6574 52.2893C51.6863 52.2698 51.7245 52.2436 51.7719 52.2103C51.8666 52.1437 51.998 52.049 52.1642 51.9233L49.7518 48.7326C49.6228 48.8302 49.5292 48.8974 49.4728 48.937C49.4446 48.9569 49.4256 48.9698 49.4162 48.9762C49.4115 48.9794 49.4091 48.9809 49.4092 48.9809C49.4092 48.9808 49.4099 48.9804 49.4111 48.9796C49.4117 48.9792 49.4125 48.9787 49.4134 48.9781C49.4139 48.9778 49.4144 48.9774 49.4149 48.9771C49.4152 48.9769 49.4155 48.9767 49.4158 48.9766C49.4159 48.9765 49.4161 48.9764 49.4162 48.9763C49.4163 48.9762 49.4164 48.9761 49.4164 48.9761C49.4165 48.976 49.4167 48.976 50.508 50.652ZM52.1485 51.9351C52.7102 51.519 53.0972 51.1898 53.5908 50.6742L50.7013 47.9082C50.3885 48.2349 50.1779 48.4169 49.7676 48.7208L52.1485 51.9351ZM53.5851 50.6801C54.0261 50.2231 54.4114 49.6835 54.7063 49.0669L51.0977 47.3411C50.9967 47.5524 50.8635 47.74 50.7069 47.9023L53.5851 50.6801ZM54.7061 49.0673C55.1167 48.2092 55.4349 46.8529 55.5637 45.8104L51.5939 45.3199C51.4923 46.1423 51.2489 47.0252 51.0979 47.3407L54.7061 49.0673ZM55.5643 45.8058C55.6704 44.9302 55.6397 44.413 55.6272 44.1329L51.6312 44.3118C51.6373 44.4469 51.6428 44.542 51.6407 44.6878C51.6386 44.8315 51.6283 45.0362 51.5933 45.3245L55.5643 45.8058ZM55.6278 44.1477C55.6016 43.4451 55.3125 42.8683 55.0189 42.4726C54.7202 42.07 54.3093 41.7069 53.8173 41.4685L52.0731 45.0682C51.9303 44.999 51.8543 44.9203 51.8066 44.8561C51.7641 44.7988 51.6425 44.6144 51.6306 44.2971L55.6278 44.1477ZM53.7636 41.4435L51.6684 40.5039L50.0316 44.1537L52.1268 45.0933L53.7636 41.4435ZM50.85 42.3288C51.6488 40.4952 51.6488 40.4952 51.6488 40.4952C51.6487 40.4952 51.6487 40.4952 51.6487 40.4952C51.6486 40.4951 51.6485 40.4951 51.6483 40.495C51.6479 40.4948 51.6474 40.4946 51.6466 40.4943C51.6452 40.4936 51.643 40.4927 51.64 40.4914C51.6342 40.4888 51.6253 40.485 51.6138 40.4799C51.5906 40.4698 51.5562 40.4548 51.5118 40.4354C51.4229 40.3966 51.2936 40.3402 51.1324 40.2696C50.81 40.1286 50.3603 39.9315 49.8511 39.7073C48.8303 39.2578 47.5792 38.7032 46.6358 38.2733L44.977 41.9131C45.9452 42.3543 47.216 42.9176 48.2391 43.3681C48.7518 43.5939 49.2046 43.7923 49.5291 43.9343C49.6915 44.0053 49.8218 44.0622 49.9116 44.1014C49.9566 44.1211 49.9914 44.1362 50.015 44.1465C50.0268 44.1517 50.0358 44.1556 50.0419 44.1583C50.0449 44.1596 50.0473 44.1606 50.0488 44.1613C50.0496 44.1616 50.0502 44.1619 50.0506 44.1621C50.0508 44.1621 50.051 44.1622 50.0511 44.1623C50.0511 44.1623 50.0512 44.1623 50.0512 44.1623C50.0512 44.1623 50.0513 44.1623 50.85 42.3288ZM46.6056 38.2598C46.1792 38.0739 45.7223 37.9681 45.2575 37.9475L45.0809 41.9436C45.0555 41.9425 45.0305 41.9367 45.0072 41.9266L46.6056 38.2598ZM45.3735 37.956C44.8433 37.9016 44.3076 37.9612 43.8024 38.131L45.0763 41.9227C45.0405 41.9347 45.0025 41.939 44.9649 41.9351L45.3735 37.956ZM43.8024 38.131C43.2971 38.3007 42.834 38.5766 42.4443 38.9402L45.1726 41.8653C45.1449 41.8911 45.1121 41.9107 45.0763 41.9227L43.8024 38.131ZM45.8084 40.4028V40.3956H41.8084V40.4028H45.8084ZM43.8084 38.3956C43.3863 38.3956 43.0776 38.5304 42.977 38.5762C42.8418 38.6378 42.7414 38.7018 42.6883 38.7373C42.5807 38.8095 42.5016 38.8776 42.4672 38.9078C42.3902 38.9755 42.3232 39.0436 42.2773 39.0914C42.177 39.1958 42.0383 39.3494 41.8384 39.579C41.4327 40.045 40.7082 40.9011 39.4039 42.4813L42.4889 45.0275C43.7875 43.4541 44.485 42.6308 44.8551 42.2057C45.043 41.9899 45.1306 41.8951 45.162 41.8624C45.1819 41.8417 45.1571 41.8691 45.1068 41.9133C45.0858 41.9317 45.0163 41.9924 44.9155 42.06C44.8658 42.0932 44.7681 42.1557 44.635 42.2163C44.5366 42.2612 44.2294 42.3956 43.8084 42.3956V38.3956ZM39.342 42.5603C39.4297 42.4424 39.5506 42.3533 39.6891 42.3044L41.0215 46.076C41.6319 45.8603 42.1643 45.4678 42.5509 44.9484L39.342 42.5603ZM39.6891 42.3044C39.8277 42.2554 39.9777 42.2488 40.12 42.2855L39.1232 46.1593C39.7502 46.3206 40.411 46.2916 41.0215 46.076L39.6891 42.3044ZM40.1383 42.2903C39.9957 42.2521 39.8561 42.2039 39.7204 42.1459L38.1476 45.8237C38.4584 45.9566 38.7784 46.0672 39.105 46.1545L40.1383 42.2903ZM39.7075 42.1404C39.2771 41.9599 39.1562 41.9027 38.8251 41.7586L37.2286 45.4262C37.5094 45.5484 37.6981 45.6352 38.1606 45.8292L39.7075 42.1404ZM38.7695 41.7354L38.7515 41.7282L37.2661 45.4422L37.2841 45.4493L38.7695 41.7354ZM38.8091 41.7523C36.9399 40.9362 35.2093 39.8339 33.6795 38.485L31.0341 41.4853C32.8755 43.1089 34.9587 44.4358 37.2086 45.4181L38.8091 41.7523ZM33.6721 38.4785C33.2693 38.1269 32.9291 37.7744 32.4401 37.3016L29.66 40.1775C30.0349 40.54 30.5371 41.0515 31.0415 41.4918L33.6721 38.4785ZM32.4333 37.2951C31.142 36.0584 30.0166 34.6594 29.0853 33.1331L25.6707 35.2164C26.7822 37.0382 28.1254 38.708 29.6667 40.184L32.4333 37.2951ZM29.077 33.1196L28.8646 32.7776L25.4666 34.8879L25.679 35.2299L29.077 33.1196ZM28.8319 32.7266C28.7712 32.6351 28.7221 32.5365 28.6857 32.4328L24.9112 33.7567C25.0574 34.1737 25.255 34.5708 25.4994 34.9389L28.8319 32.7266ZM28.7348 32.5942C28.8094 32.8828 28.7377 33.1056 28.7024 33.1903C28.6828 33.2372 28.6614 33.2746 28.6411 33.3057C28.6303 33.3224 28.618 33.3401 28.6035 33.3594C28.5962 33.3691 28.5882 33.3794 28.5794 33.3905C28.575 33.396 28.5704 33.4018 28.5655 33.4077C28.5631 33.4107 28.5606 33.4137 28.5581 33.4168C28.5568 33.4184 28.5555 33.4199 28.5542 33.4215C28.5535 33.4223 28.5529 33.4231 28.5522 33.4239C28.5519 33.4243 28.5514 33.4249 28.5512 33.4251C28.5507 33.4257 28.5502 33.4263 27.018 32.1408C25.4859 30.8553 25.4853 30.8559 25.4848 30.8565C25.4847 30.8567 25.4842 30.8573 25.4838 30.8577C25.4831 30.8586 25.4824 30.8594 25.4817 30.8602C25.4804 30.8619 25.4789 30.8636 25.4775 30.8654C25.4746 30.8689 25.4716 30.8725 25.4685 30.8763C25.4623 30.8839 25.4557 30.8921 25.4487 30.9008C25.4347 30.9184 25.4192 30.9384 25.4025 30.9608C25.369 31.0054 25.3299 31.0604 25.2878 31.1251C25.205 31.2524 25.1031 31.4291 25.0115 31.6484C24.8321 32.0777 24.6507 32.7775 24.8621 33.5953L28.7348 32.5942ZM27.018 32.1408C28.4946 33.4897 28.4947 33.4897 28.4947 33.4896C28.4947 33.4896 28.4948 33.4896 28.4948 33.4896C28.4948 33.4895 28.4949 33.4894 28.495 33.4893C28.4952 33.4891 28.4954 33.4889 28.4957 33.4886C28.4962 33.488 28.497 33.4871 28.498 33.486C28.4999 33.4839 28.5027 33.4809 28.5062 33.477C28.5133 33.4692 28.5236 33.458 28.5366 33.4437C28.5626 33.4151 28.5998 33.374 28.6455 33.3233C28.7369 33.2221 28.8633 33.0814 29.0032 32.9236C29.272 32.6201 29.6286 32.2109 29.873 31.8995L26.7262 29.4301C26.5638 29.6371 26.2796 29.9658 26.0094 30.2708C25.8797 30.4171 25.762 30.5482 25.6766 30.6428C25.634 30.6899 25.5997 30.7278 25.5763 30.7536C25.5646 30.7664 25.5556 30.7763 25.5497 30.7828C25.5467 30.7861 25.5445 30.7885 25.5431 30.79C25.5424 30.7907 25.5419 30.7913 25.5416 30.7916C25.5415 30.7918 25.5414 30.7919 25.5414 30.7919C25.5414 30.7919 25.5413 30.7919 25.5414 30.7919C25.5414 30.7919 25.5414 30.7919 25.5414 30.7919C25.5414 30.7919 25.5414 30.7918 27.018 32.1408ZM29.8719 31.9009C30.2536 31.4154 30.6097 30.9103 30.9388 30.3878L27.5541 28.2562C27.2991 28.6611 27.0231 29.0525 26.7274 29.4287L29.8719 31.9009ZM30.9454 30.3772C31.5491 29.4051 31.9944 28.0042 31.4313 26.6327L27.7311 28.152C27.6716 28.007 27.6934 27.9225 27.6877 27.9543C27.6816 27.989 27.6518 28.0987 27.5474 28.2668L30.9454 30.3772ZM31.4321 26.6347C30.4171 24.155 29.3661 21.687 28.2865 19.238L24.6264 20.8515C25.6924 23.2697 26.7294 25.705 27.7303 28.1501L31.4321 26.6347ZM28.2869 19.2389C27.9652 18.5083 27.4041 18.0246 26.9223 17.732C26.426 17.4305 25.8528 17.2311 25.2789 17.1625L24.8043 21.1343C24.7962 21.1333 24.8029 21.1335 24.8189 21.139C24.8259 21.1414 24.8324 21.1441 24.8378 21.1467C24.8433 21.1492 24.846 21.1508 24.8458 21.1507C24.8456 21.1506 24.8407 21.1476 24.8316 21.1405C24.8226 21.1335 24.8073 21.1206 24.7879 21.1005C24.751 21.0623 24.6838 20.9819 24.626 20.8507L28.2869 19.2389ZM25.2625 17.1606C25.0743 17.1397 24.8433 17.1138 24.6062 17.0963L24.3107 21.0853C24.4623 21.0966 24.6202 21.1139 24.8208 21.1362L25.2625 17.1606ZM24.5577 17.0933C23.9949 17.0653 23.4309 17.0709 22.8688 17.11L23.1465 21.1004C23.5501 21.0723 23.9551 21.0682 24.3592 21.0883L24.5577 17.0933ZM21.0076 19.1052V19.1088H25.0076V19.1052H21.0076Z" fill="white" mask="url(#path-1-inside-1_385_150)"/>
</svg>
