<svg width="72" height="72" viewBox="0 0 72 72" fill="none" xmlns="http://www.w3.org/2000/svg">
<path d="M0.0144482 72L4.88164 54.1152C1.67454 48.6174 -0.0104063 42.3647 4.8356e-05 36C4.8356e-05 16.1172 16.1172 0 36 0C55.8828 0 72 16.1172 72 36C72 55.8828 55.8828 72 36 72C29.638 72.0102 23.388 70.3266 17.892 67.122L0.0144482 72ZM23.0076 19.1088C22.5427 19.1377 22.0885 19.2601 21.672 19.4688C21.2815 19.6899 20.925 19.9664 20.6136 20.2896C20.1816 20.6964 19.9368 21.0492 19.674 21.3912C18.3435 23.1228 17.6278 25.2483 17.64 27.432C17.6472 29.196 18.108 30.9132 18.828 32.5188C20.3004 35.766 22.7232 39.204 25.9236 42.39C26.694 43.1568 27.4464 43.9272 28.2564 44.6436C32.2286 48.1408 36.9621 50.6629 42.0804 52.0092L44.1288 52.3224C44.7948 52.3584 45.4608 52.308 46.1304 52.2756C47.1789 52.2214 48.2026 51.9375 49.1292 51.444C49.6007 51.2011 50.0607 50.9369 50.508 50.652C50.508 50.652 50.6628 50.5512 50.958 50.328C51.444 49.968 51.7428 49.7124 52.146 49.2912C52.4448 48.9816 52.704 48.618 52.902 48.204C53.1828 47.6172 53.4636 46.4976 53.5788 45.5652C53.6652 44.8524 53.64 44.4636 53.6292 44.2224C53.6148 43.8372 53.2944 43.4376 52.9452 43.2684L50.85 42.3288C50.85 42.3288 47.718 40.9644 45.8064 40.0932C45.6049 40.0053 45.3889 39.9553 45.1692 39.9456C44.9229 39.9203 44.674 39.948 44.4393 40.0268C44.2046 40.1057 43.9895 40.2339 43.8084 40.4028V40.3956C43.7904 40.3956 43.5492 40.6008 40.9464 43.7544C40.797 43.9551 40.5912 44.1068 40.3553 44.1902C40.1194 44.2735 39.864 44.2847 39.6216 44.2224C39.3871 44.1596 39.1573 44.0802 38.934 43.9848C38.4876 43.7976 38.3328 43.7256 38.0268 43.5924L38.0088 43.5852C35.9493 42.686 34.0424 41.4714 32.3568 39.9852C31.9032 39.5892 31.482 39.1572 31.05 38.7396C29.6337 37.3832 28.3994 35.8488 27.378 34.1748L27.1656 33.8328C27.0131 33.603 26.8897 33.3551 26.7984 33.0948C26.6616 32.5656 27.018 32.1408 27.018 32.1408C27.018 32.1408 27.8928 31.1832 28.2996 30.6648C28.6383 30.2339 28.9544 29.7857 29.2464 29.322C29.6712 28.638 29.8044 27.936 29.5812 27.3924C28.5732 24.93 27.5292 22.4784 26.4564 20.0448C26.244 19.5624 25.614 19.2168 25.0416 19.1484C24.8472 19.1268 24.6528 19.1052 24.4584 19.0908C23.975 19.0668 23.4905 19.0716 23.0076 19.1052V19.1088Z" fill="#3A2A68"/>
</svg>
