<svg width="39" height="37" viewBox="0 0 39 37" fill="none" xmlns="http://www.w3.org/2000/svg">
<path d="M1.52095 37.0001H13.5609C14.2609 37.0001 14.8209 36.7201 15.1709 36.0901L19.2309 29.4401C19.4409 29.0201 19.8609 29.0201 20.0709 29.4401L24.1309 36.0901C24.4809 36.7201 25.0409 37.0001 25.7409 37.0001H36.9409C37.9909 37.0001 38.3409 36.3001 37.7809 35.3901L27.2109 19.2201C27.0709 18.9401 27.0709 18.6601 27.2109 18.3801L37.7809 2.2101C38.3409 1.3001 37.9909 0.600098 36.9409 0.600098H24.9009C24.2009 0.600098 23.6409 0.880097 23.2909 1.5101L19.2309 8.1601C19.0209 8.5801 18.6009 8.5801 18.3909 8.1601L14.3309 1.5101C13.9809 0.880097 13.4209 0.600098 12.7209 0.600098H1.52095C0.470946 0.600098 0.120946 1.3001 0.680946 2.2101L11.2509 18.3801C11.3909 18.6601 11.3909 18.9401 11.2509 19.2201L0.680946 35.3901C0.120946 36.3001 0.470946 37.0001 1.52095 37.0001Z" fill="#FBFEFE"/>
</svg>
